<?xml version="1.0" encoding="utf-8"?>
<!-- Generator: Adobe Illustrator 13.0.0, SVG Export Plug-In  -->
<!DOCTYPE svg PUBLIC "-//W3C//DTD SVG 1.1//EN" "http://www.w3.org/Graphics/SVG/1.1/DTD/svg11.dtd" [
	<!ENTITY ns_flows "http://ns.adobe.com/Flows/1.0/">
]>
<svg version="1.1"
	 xmlns="http://www.w3.org/2000/svg" xmlns:xlink="http://www.w3.org/1999/xlink" xmlns:a="http://ns.adobe.com/AdobeSVGViewerExtensions/3.0/"
	 x="0px" y="0px" width="151px" height="56px" viewBox="-20.448 -3.619 151 56" enable-background="new -20.448 -3.619 151 56"
	 xml:space="preserve">
<defs>
</defs>
<path id="XMLID_3_" fill="#EC2527" d="M2.584,0.172C2.24,2.584,1.464,5.169,0.775,7.409C0.517,8.357,0.517,9.735,0,10.511v0.172
	h25.416c0.344-2.413,1.12-4.997,1.809-7.237C27.483,2.498,27.483,1.12,28,0.344V0.172H2.584z M0.775,26.45
	C0.517,27.397,0.517,28.776,0,29.551v0.172h25.416c0.517-2.412,1.12-4.824,1.809-7.151c0.258-0.948,0.258-2.326,0.775-3.102v-0.172
	H2.584C1.981,21.71,1.464,24.123,0.775,26.45z M0.775,45.403C0.517,46.35,0.517,47.729,0,48.504v0.172h25.416
	c0.517-2.412,1.12-4.824,1.809-7.15c0.258-0.947,0.258-2.326,0.775-3.102v-0.172H2.584C1.981,40.665,1.464,43.163,0.775,45.403z"/>
<path id="XMLID_1_" fill="#050505" d="M93.477,10.597v-0.086c4.911,0,9.735,0,14.646,0c0.086-0.948,0.432-1.896,0.689-2.671
	c0.432-1.465,0.689-2.929,1.034-4.222c0.345-1.034,0.259-2.326,0.775-3.188c0-0.086,0-0.086,0-0.172c-8.013,0-16.024,0-24.123,0
	c-2.153,0-4.308,0-6.462,0c-0.689,0-2.067-0.172-2.498,0.086c-0.432,0.604-0.345,1.551-0.604,2.326
	c-0.517,1.723-0.947,3.705-1.465,5.428c-0.258,0.775-0.172,1.723-0.603,2.326c0,0.086,0,0.086,0,0.172c1.637,0,3.188,0,4.825,0
	c-0.173,1.551-0.689,3.102-1.121,4.566c-0.861,2.757-1.292,5.514-2.153,8.185c-0.517,1.551-0.689,3.188-1.12,4.653
	c-0.172,0.516-0.086,1.119-0.345,1.551c0,0.086,0,0.086,0,0.172c1.638,0,3.188,0,4.825,0c-0.173,1.723-0.775,3.445-1.293,4.996
	c-0.431,1.293-0.517,2.758-1.033,3.877c-0.086,0.346-0.086,0.775-0.173,1.121c-0.431,1.464-0.688,3.102-1.12,4.652
	c-0.431,1.291-1.033,2.842-1.033,4.221h-0.086c-1.121-2.326-2.499-4.566-3.877-6.72c-1.293-2.153-2.154-4.308-3.447-6.462
	c-0.775-1.292-1.378-2.67-2.239-3.963c-0.259-0.431-0.603-0.775-0.775-1.379c-0.087-0.086,0,0-0.087-0.172
	c3.274-1.895,5.859-4.652,7.151-8.615c0.173-0.948,0.345-1.896,0.603-2.929c0-0.431,0-0.861,0-1.292
	c0.346-1.551,0-3.791-0.258-5.083c-0.947-3.963-2.326-6.547-5.17-8.615C62.289,0.086,55.225,0,47.126,0c-4.135,0-8.271,0-12.406,0
	c0,16.197,0,32.48,0,48.676c4.308,0,8.529,0,12.837,0c0-5.428,0-10.855,0-16.283c1.637,0,3.36,0,4.997,0
	c0.258,0.173,0.431,0.948,0.603,1.293c0.517,0.947,1.034,1.981,1.551,3.016c1.465,2.757,2.757,5.514,4.222,8.271
	c0.604,1.12,1.637,2.412,1.896,3.79c15.853,0,31.704,0,47.557,0c0.862-3.445,1.638-6.806,2.499-10.252c-6.462,0-12.924,0-19.385,0
	c0.689-2.929,1.379-5.857,2.153-8.787h0.087v-0.086c4.91,0,9.734,0,14.646,0c0.345-2.326,1.12-4.738,1.724-6.807
	c0.344-1.034,0.258-2.326,0.775-3.188c0-0.086,0-0.086,0-0.172c-6.462,0-12.924,0-19.385,0c0.689-2.929,1.378-5.858,2.153-8.788
	C93.39,10.597,93.39,10.597,93.477,10.597z M47.298,22.141c0-3.963,0-7.926,0-11.975c4.911-0.086,10.598-0.517,12.062,2.929
	c0.259,0.603,0.345,1.378,0.345,2.24C59.705,22.486,54.363,22.228,47.298,22.141z"/>
</svg>
