<?xml version="1.0" encoding="utf-8"?>
<!-- Generator: Adobe Illustrator 19.0.0, SVG Export Plug-In . SVG Version: 6.00 Build 0)  -->
<svg version="1.1" id="Layer_1" xmlns="http://www.w3.org/2000/svg" xmlns:xlink="http://www.w3.org/1999/xlink" x="0px" y="0px"
	 viewBox="0 0 150 65" style="enable-background:new 0 0 150 65;" xml:space="preserve">
<style type="text/css">
	.st0{fill:#EC2527;}
	.st1{fill:#FFFFFF;}
</style>
<g id="XMLID_2_">
	<g id="XMLID_8_">
		<g id="XMLID_46_">
			<path id="XMLID_48_" class="st0" d="M14.1,4.4c-0.4,2.8-1.3,5.8-2.1,8.4c-0.3,1.1-0.3,2.7-0.9,3.6v0.2h29.5
				c0.4-2.8,1.3-5.8,2.1-8.4C43,7.1,43,5.5,43.6,4.6V4.4H14.1z M12,34.9c-0.3,1.1-0.3,2.7-0.9,3.6v0.2h29.5c0.6-2.8,1.3-5.6,2.1-8.3
				c0.3-1.1,0.3-2.7,0.9-3.6v-0.2H14.1C13.4,29.4,12.8,32.2,12,34.9z M12,56.9c-0.3,1.1-0.3,2.7-0.9,3.6v0.2h29.5
				c0.6-2.8,1.3-5.6,2.1-8.3c0.3-1.1,0.3-2.7,0.9-3.6v-0.2H14.1C13.4,51.4,12.8,54.3,12,56.9z"/>
		</g>
	</g>
	<path id="XMLID_13_" class="st1" d="M119.6,16.5v-0.1c5.7,0,11.3,0,17,0c0.1-1.1,0.5-2.2,0.8-3.1c0.5-1.7,0.8-3.4,1.2-4.9
		c0.4-1.2,0.3-2.7,0.9-3.7c0-0.1,0-0.1,0-0.2c-9.3,0-18.6,0-28,0c-2.5,0-5,0-7.5,0c-0.8,0-2.4-0.2-2.9,0.1c-0.5,0.7-0.4,1.8-0.7,2.7
		c-0.6,2-1.1,4.3-1.7,6.3c-0.3,0.9-0.2,2-0.7,2.7c0,0.1,0,0.1,0,0.2c1.9,0,3.7,0,5.6,0c-0.2,1.8-0.8,3.6-1.3,5.3
		c-1,3.2-1.5,6.4-2.5,9.5c-0.6,1.8-0.8,3.7-1.3,5.4c-0.2,0.6-0.1,1.3-0.4,1.8c0,0.1,0,0.1,0,0.2c1.9,0,3.7,0,5.6,0
		c-0.2,2-0.9,4-1.5,5.8c-0.5,1.5-0.6,3.2-1.2,4.5c-0.1,0.4-0.1,0.9-0.2,1.3c-0.5,1.7-0.8,3.6-1.3,5.4c-0.5,1.5-1.2,3.3-1.2,4.9h-0.1
		c-1.3-2.7-2.9-5.3-4.5-7.8c-1.5-2.5-2.5-5-4-7.5c-0.9-1.5-1.6-3.1-2.6-4.6c-0.3-0.5-0.7-0.9-0.9-1.6c-0.1-0.1,0,0-0.1-0.2
		c3.8-2.2,6.8-5.4,8.3-10c0.2-1.1,0.4-2.2,0.7-3.4c0-0.5,0-1,0-1.5c0.4-1.8,0-4.4-0.3-5.9c-1.1-4.6-2.7-7.6-6-10
		c-5.4-3.8-13.6-3.9-23-3.9c-4.8,0-9.6,0-14.4,0c0,18.8,0,37.7,0,56.5c5,0,9.9,0,14.9,0c0-6.3,0-12.6,0-18.9c1.9,0,3.9,0,5.8,0
		c0.3,0.2,0.5,1.1,0.7,1.5c0.6,1.1,1.2,2.3,1.8,3.5c1.7,3.2,3.2,6.4,4.9,9.6c0.7,1.3,1.9,2.8,2.2,4.4c18.4,0,36.8,0,55.2,0
		c1-4,1.9-7.9,2.9-11.9c-7.5,0-15,0-22.5,0c0.8-3.4,1.6-6.8,2.5-10.2h0.1v-0.1c5.7,0,11.3,0,17,0c0.4-2.7,1.3-5.5,2-7.9
		c0.4-1.2,0.3-2.7,0.9-3.7c0-0.1,0-0.1,0-0.2c-7.5,0-15,0-22.5,0c0.8-3.4,1.6-6.8,2.5-10.2C119.5,16.5,119.5,16.5,119.6,16.5z
		 M66,29.9c0-4.6,0-9.2,0-13.9c5.7-0.1,12.3-0.6,14,3.4c0.3,0.7,0.4,1.6,0.4,2.6C80.4,30.3,74.2,30,66,29.9z"/>
</g>
</svg>
