<?xml version="1.0" encoding="utf-8"?>
<!-- Generator: Adobe Illustrator 16.0.0, SVG Export Plug-In . SVG Version: 6.00 Build 0)  -->
<!DOCTYPE svg PUBLIC "-//W3C//DTD SVG 1.1//EN" "http://www.w3.org/Graphics/SVG/1.1/DTD/svg11.dtd">
<svg version="1.1" id="레이어_1" xmlns="http://www.w3.org/2000/svg" xmlns:xlink="http://www.w3.org/1999/xlink" x="0px"
	 y="0px" width="32.403px" height="41.155px" viewBox="0 0 32.403 41.155" enable-background="new 0 0 32.403 41.155"
	 xml:space="preserve">
<path fill-rule="evenodd" clip-rule="evenodd" fill="#565756" d="M32.403,37.619l-3.535,3.536l-5.633-5.632
	c-2.364,1.557-5.191,2.47-8.235,2.47c-8.285,0-15-6.716-15-15C0,19.951,0,17.652,0,15C0,6.716,6.716,0,15,0c8.284,0,15,6.716,15,15
	c0,2.632,0,4.985,0,7.993c0,3.434-1.167,6.588-3.107,9.116L32.403,37.619z M25.003,22.994c0-5.522,0-2.47,0-7.993
	c0-5.522-4.477-10-9.999-10c-5.523,0-10,4.478-10,10c0,5.523,0,2.471,0,7.993s4.477,10,10,10c1.654,0,3.21-0.408,4.584-1.119
	l-4.863-4.863l3.536-3.535l5.063,5.063C24.384,26.952,25.003,25.046,25.003,22.994z"/>
</svg>
