<svg xmlns="http://www.w3.org/2000/svg" width="69" height="20" viewBox="0 0 69 20">
    <g fill="none" fill-rule="evenodd">
        <g>
            <g>
                <g>
                    <path fill="#4B5055" d="M33.774 10.578L31.353 10.578 31.353 12.716 31.353 13.851 31.353 14.737 45.107 14.737 45.107 12.716 33.774 12.716zM32.37 9.927L35.253 7.372 38.025 9.844 39.837 8.268 35.239 4.186 33.459 5.772 33.46 5.773 30.619 8.289zM44.894 5.189L42.782 5.189 42.472 5.189 42.472 10.18 44.894 10.18 44.894 7.611 46.629 7.611 46.629 5.189zM11.463 4.355v.904H2.404v-.904H0v5.56h13.867v-5.56h-2.404zM2.404 7.857h9.06v-.54h-9.06v.54zM0 10.54L0 12.598 5.689 12.598 5.689 15.07 8.222 15.07 8.222 12.598 13.867 12.598 13.867 10.54z" transform="translate(-829 -725) translate(719 287) translate(110 438)"/>
                    <path fill="#F03223" d="M48.719 19.56L68.745 19.56 68.745 0 48.719 0z" transform="translate(-829 -725) translate(719 287) translate(110 438)"/>
                    <path fill="#FFF" d="M63.617 5.189L63.617 9.706 61.572 9.706 61.572 5.23 60.107 5.23 60.107 11.042 60.4 11.042 61.572 11.042 63.617 11.042 63.617 14.737 65.082 14.737 65.082 5.189zM57.016 5.189L55.916 5.189 55.916 6.622 57.016 6.622 57.016 14.737 58.481 14.737 58.481 5.189 57.748 5.189zM52.782 5.189L51.681 5.189 51.681 6.622 52.782 6.622 52.782 14.737 54.247 14.737 54.247 5.189 53.514 5.189z" transform="translate(-829 -725) translate(719 287) translate(110 438)"/>
                    <path fill="#4B5055" d="M22.603 12.45c.875 0 1.585.71 1.585 1.585s-.71 1.585-1.585 1.585-1.585-.71-1.585-1.585.71-1.585 1.585-1.585zm6.866-5.315v-2.02H15.714V9.877h5.545v.682h-5.545v2.02h3.62c-.196.443-.306.933-.306 1.45 0 1.975 1.601 3.576 3.577 3.576 1.975 0 3.577-1.601 3.577-3.577 0-.516-.11-1.006-.307-1.449h3.594v-2.02h-5.53v-.682h5.53v-2.02H18.002v-.722h11.467z" transform="translate(-829 -725) translate(719 287) translate(110 438)"/>
                </g>
            </g>
        </g>
    </g>
</svg>
