<?xml version="1.0" encoding="utf-8"?>
<!-- Generator: Adobe Illustrator 13.0.0, SVG Export Plug-In  -->
<!DOCTYPE svg PUBLIC "-//W3C//DTD SVG 1.1//EN" "http://www.w3.org/Graphics/SVG/1.1/DTD/svg11.dtd" [
	<!ENTITY ns_flows "http://ns.adobe.com/Flows/1.0/">
]>
<svg version="1.1"
	 xmlns="http://www.w3.org/2000/svg" xmlns:xlink="http://www.w3.org/1999/xlink" xmlns:a="http://ns.adobe.com/AdobeSVGViewerExtensions/3.0/"
	 x="0px" y="0px" width="122px" height="110px" viewBox="0 -0.628 122 110" enable-background="new 0 -0.628 122 110"
	 xml:space="preserve">
<defs>
</defs>
<rect x="79.386" y="20.146" transform="matrix(0.7071 0.7071 -0.7071 0.7071 55.2165 -44.1369)" fill="#B3B3B3" width="3" height="48.876"/>
<rect x="71.348" y="8.375" transform="matrix(0.7071 0.7071 -0.7071 0.7071 47.1543 -40.817)" fill="#B3B3B3" width="3" height="56.274"/>
<rect x="63.478" y="4.119" transform="matrix(0.7071 0.7071 -0.7071 0.7071 39.021 -37.6665)" fill="#B3B3B3" width="3" height="48.3"/>
<rect x="43.2" y="44.451" transform="matrix(0.7071 0.7071 -0.7071 0.7071 51.0638 -31.3765)" fill="#B3B3B3" width="40.414" height="3"/>
<rect x="50.1" y="34.824" transform="matrix(0.7071 0.7071 -0.7071 0.7071 47.0766 -41.0039)" fill="#B3B3B3" width="45.869" height="3"/>
<rect x="62.719" y="25.199" transform="matrix(0.7071 0.7071 -0.7071 0.7071 43.0882 -50.6298)" fill="#B3B3B3" width="39.885" height="2.999"/>
<g>
	<defs>
		<rect id="SVGID_1_" y="0" width="121.006" height="109.371"/>
	</defs>
	<clipPath id="SVGID_2_">
		<use xlink:href="#SVGID_1_"  overflow="visible"/>
	</clipPath>
	<path clip-path="url(#SVGID_2_)" fill="#B3B3B3" d="M22.683,78.958L3.051,98.59c-2.073,2.074-2.073,5.436-0.001,7.509l0.218,0.218
		c2.073,2.072,5.435,2.073,7.51,0l19.633-19.632L22.683,78.958z"/>
	<path clip-path="url(#SVGID_2_)" fill="#B3B3B3" d="M7.023,109.372L7.023,109.372c-1.82,0-3.529-0.708-4.816-1.994l-0.217-0.218
		c-2.654-2.654-2.654-6.975,0-9.63l19.631-19.633c0.585-0.586,1.536-0.586,2.122,0l7.728,7.728c0.281,0.281,0.44,0.663,0.44,1.061
		s-0.159,0.779-0.44,1.061l-19.633,19.632C10.553,108.664,8.842,109.372,7.023,109.372 M22.683,81.079L4.112,99.651
		c-1.485,1.485-1.486,3.902-0.001,5.388l0.217,0.218c0.72,0.718,1.677,1.115,2.695,1.115s1.974-0.397,2.694-1.115L28.29,86.685
		L22.683,81.079z"/>
	<path clip-path="url(#SVGID_2_)" d="M65.715,73.057L65.715,73.057c-8.252,0-15.75-2.95-21.106-8.308
		C31.827,51.968,34.089,28.91,49.651,13.35C58.134,4.866,69.174,0,79.942,0c8.254,0,15.751,2.951,21.108,8.309
		c6.233,6.232,9.115,15.043,8.116,24.808c-0.986,9.649-5.661,19.092-13.159,26.59C87.526,68.191,76.483,73.057,65.715,73.057
		 M79.942,3c-9.979,0-20.245,4.545-28.17,12.471C37.38,29.862,35.118,51.016,46.729,62.628c4.791,4.79,11.534,7.429,18.985,7.429
		c9.979,0,20.247-4.546,28.173-12.471c7.012-7.011,11.378-15.81,12.296-24.775c0.904-8.85-1.671-16.798-7.254-22.381
		C94.139,5.639,87.396,3,79.942,3 M67.614,63.711c-6.159,0-11.756-2.205-15.758-6.209c-4.657-4.656-6.812-11.231-6.067-18.511
		c0.733-7.167,4.2-14.177,9.763-19.741c6.294-6.294,14.493-9.904,22.492-9.904c6.159,0,11.755,2.205,15.76,6.209
		c9.525,9.527,7.867,26.687-3.696,38.251C83.813,60.101,75.614,63.711,67.614,63.711 M78.044,12.346
		c-7.21,0-14.635,3.29-20.371,9.025c-5.076,5.078-8.236,11.443-8.899,17.924c-0.652,6.366,1.196,12.079,5.203,16.086
		c3.486,3.485,8.202,5.33,13.637,5.33c7.21,0,14.636-3.29,20.372-9.026c10.394-10.395,12.052-25.65,3.696-34.009
		C88.195,14.189,83.479,12.346,78.044,12.346"/>
	<path clip-path="url(#SVGID_2_)" d="M30.399,88.175c-0.384,0-0.768-0.146-1.061-0.44c-2.57-2.573-5.142-5.145-7.716-7.716
		c-0.58-0.58-0.587-1.517-0.017-2.106c8.209-8.47,13.35-17.23,15.718-26.784c0.165-0.666,0.762-1.134,1.448-1.138h0.008
		c0.683,0,1.28,0.461,1.452,1.123c1.165,4.493,3.352,8.367,6.499,11.514c3.149,3.148,7.024,5.334,11.514,6.498
		c0.665,0.172,1.127,0.773,1.124,1.46c-0.004,0.687-0.473,1.283-1.139,1.448c-9.551,2.367-18.312,7.508-26.786,15.718
		C31.151,88.035,30.776,88.175,30.399,88.175 M24.779,78.932c1.883,1.882,3.765,3.764,5.646,5.646
		c7.183-6.729,14.603-11.379,22.54-14.112c-3.136-1.383-5.935-3.295-8.357-5.716c-2.42-2.422-4.332-5.219-5.715-8.356
		C36.159,64.332,31.508,71.751,24.779,78.932"/>
	<path clip-path="url(#SVGID_2_)" fill="#B3B3B3" d="M116.354,87.606c-4.212,4.21-11.038,4.211-15.25-0.001
		c-4.211-4.212-4.211-11.038,0-15.249c4.212-4.211,11.038-4.211,15.25,0C120.565,76.567,120.565,83.393,116.354,87.606"/>
	<path clip-path="url(#SVGID_2_)" fill="#B3B3B3" d="M108.729,92.264c-3.281,0-6.365-1.278-8.687-3.599
		c-4.787-4.789-4.787-12.582,0-17.37c2.321-2.32,5.405-3.598,8.687-3.598s6.365,1.277,8.686,3.598
		c4.788,4.788,4.788,12.581,0,17.371C115.095,90.986,112.01,92.264,108.729,92.264 M108.729,70.698
		c-2.479,0-4.812,0.966-6.564,2.719c-3.618,3.619-3.618,9.508,0,13.128c1.753,1.754,4.085,2.72,6.564,2.72s4.811-0.966,6.563-2.719
		c3.619-3.62,3.619-9.51,0-13.129C113.54,71.664,111.209,70.698,108.729,70.698"/>
</g>
</svg>
