<?xml version="1.0" encoding="utf-8"?>
<!-- Generator: Adobe Illustrator 13.0.0, SVG Export Plug-In  -->
<!DOCTYPE svg PUBLIC "-//W3C//DTD SVG 1.1//EN" "http://www.w3.org/Graphics/SVG/1.1/DTD/svg11.dtd" [
	<!ENTITY ns_flows "http://ns.adobe.com/Flows/1.0/">
]>
<svg version="1.1"
	 xmlns="http://www.w3.org/2000/svg" xmlns:xlink="http://www.w3.org/1999/xlink" xmlns:a="http://ns.adobe.com/AdobeSVGViewerExtensions/3.0/"
	 x="0px" y="0px" width="84px" height="110px" viewBox="0 0 84 110" enable-background="new 0 0 84 110" xml:space="preserve">
<defs>
</defs>
<g>
	<defs>
		<rect id="SVGID_1_" x="0" width="84.436" height="110.471"/>
	</defs>
	<clipPath id="SVGID_2_">
		<use xlink:href="#SVGID_1_"  overflow="visible"/>
	</clipPath>
	<path clip-path="url(#SVGID_2_)" fill="#010101" d="M25.926,110.471c-0.312,0-0.625-0.098-0.89-0.293l-7.251-5.344l-7.251,5.344
		c-0.529,0.391-1.25,0.39-1.779,0.001l-8.144-6C0.227,103.896,0,103.448,0,102.971V1.5C0,0.671,0.672,0,1.5,0h81.437
		c0.828,0,1.5,0.671,1.5,1.5v101.471c0,0.477-0.227,0.925-0.61,1.208l-8.149,6c-0.529,0.389-1.25,0.389-1.779,0l-7.259-5.345
		l-7.253,5.345c-0.529,0.389-1.25,0.389-1.779,0l-7.257-5.345l-7.253,5.345c-0.529,0.389-1.25,0.39-1.779-0.001l-7.251-5.344
		l-7.251,5.344C26.551,110.374,26.239,110.471,25.926,110.471 M66.639,101.471c0.313,0,0.625,0.098,0.89,0.292l7.259,5.346
		l6.649-4.896V3H3v99.213l6.645,4.895l7.251-5.344c0.529-0.391,1.25-0.391,1.779,0l7.251,5.344l7.251-5.344
		c0.529-0.391,1.25-0.391,1.779,0l7.251,5.344l7.253-5.345c0.528-0.389,1.25-0.389,1.778,0l7.258,5.345l7.253-5.345
		C66.014,101.569,66.328,101.471,66.639,101.471"/>
	<path clip-path="url(#SVGID_2_)" fill="#B3B4B4" d="M26.501,19.422c0,3.866-3.134,7-7,7s-7-3.134-7-7c0-3.866,3.134-7,7-7
		S26.501,15.556,26.501,19.422"/>
	<path clip-path="url(#SVGID_2_)" fill="#B3B4B4" d="M26.501,39.972c0,3.866-3.134,7-7,7s-7-3.134-7-7c0-3.866,3.134-7,7-7
		S26.501,36.105,26.501,39.972"/>
	<path clip-path="url(#SVGID_2_)" fill="#B3B4B4" d="M26.501,60.521c0,3.866-3.134,7-7,7s-7-3.134-7-7c0-3.865,3.134-7,7-7
		S26.501,56.656,26.501,60.521"/>
	<path clip-path="url(#SVGID_2_)" fill="#B3B4B4" d="M26.501,81.072c0,3.866-3.134,6.998-7,6.998s-7-3.132-7-6.998
		s3.134-7.001,7-7.001S26.501,77.206,26.501,81.072"/>
	<rect x="36.168" y="17.471" clip-path="url(#SVGID_2_)" fill="#010101" width="34" height="3"/>
	<rect x="36.168" y="38.471" clip-path="url(#SVGID_2_)" fill="#010101" width="34" height="3"/>
	<rect x="36.168" y="59.021" clip-path="url(#SVGID_2_)" fill="#010101" width="34" height="3"/>
	<rect x="36.168" y="79.572" clip-path="url(#SVGID_2_)" fill="#010101" width="34" height="2.999"/>
	<path clip-path="url(#SVGID_2_)" fill="#010101" d="M20.915,23.896c-0.397,0-0.778-0.157-1.061-0.439l-5.074-5.075l2.121-2.121
		l3.92,3.92l6.66-7.898l2.292,1.934l-7.712,9.146c-0.27,0.321-0.663,0.514-1.083,0.532C20.957,23.896,20.936,23.896,20.915,23.896"
		/>
	<path clip-path="url(#SVGID_2_)" fill="#010101" d="M20.915,44.045c-0.397,0-0.778-0.157-1.061-0.439l-5.074-5.075L16.9,36.41
		l3.92,3.92l6.66-7.898l2.292,1.934l-7.712,9.146c-0.27,0.321-0.663,0.514-1.083,0.531C20.957,44.044,20.936,44.045,20.915,44.045"
		/>
	<path clip-path="url(#SVGID_2_)" fill="#010101" d="M20.915,64.862c-0.397,0-0.778-0.156-1.061-0.438l-5.074-5.075l2.121-2.121
		l3.92,3.92l6.66-7.897l2.292,1.934l-7.712,9.146c-0.27,0.32-0.663,0.514-1.083,0.531C20.957,64.861,20.936,64.862,20.915,64.862"/>
	<path clip-path="url(#SVGID_2_)" fill="#010101" d="M20.915,85.342c-0.397,0-0.779-0.157-1.061-0.439l-5.074-5.074l2.121-2.121
		l3.92,3.92l6.66-7.899l2.292,1.935l-7.712,9.146c-0.27,0.321-0.663,0.513-1.083,0.532C20.957,85.342,20.936,85.342,20.915,85.342"
		/>
</g>
</svg>
