<?xml version="1.0" encoding="utf-8"?>
<!-- Generator: Adobe Illustrator 13.0.0, SVG Export Plug-In  -->
<!DOCTYPE svg PUBLIC "-//W3C//DTD SVG 1.1//EN" "http://www.w3.org/Graphics/SVG/1.1/DTD/svg11.dtd" [
	<!ENTITY ns_flows "http://ns.adobe.com/Flows/1.0/">
]>
<svg version="1.1"
	 xmlns="http://www.w3.org/2000/svg" xmlns:xlink="http://www.w3.org/1999/xlink" xmlns:a="http://ns.adobe.com/AdobeSVGViewerExtensions/3.0/"
	 x="0px" y="0px" width="118px" height="103px" viewBox="0 -0.57 118 103" enable-background="new 0 -0.57 118 103"
	 xml:space="preserve">
<defs>
</defs>
<polygon fill="#B3B3B3" points="7.977,8.59 53.621,8.59 20.138,42.409 7.977,42.409 "/>
<g>
	<defs>
		<rect id="SVGID_1_" width="117.584" height="102.43"/>
	</defs>
	<clipPath id="SVGID_2_">
		<use xlink:href="#SVGID_1_"  overflow="visible"/>
	</clipPath>
	<path clip-path="url(#SVGID_2_)" fill="#B3B3B3" d="M20.138,43.91H7.977c-0.829,0-1.5-0.672-1.5-1.5V8.591
		c0-0.828,0.671-1.5,1.5-1.5h45.644c0.605,0,1.151,0.364,1.384,0.923c0.233,0.558,0.107,1.202-0.318,1.632l-33.483,33.82
		C20.921,43.75,20.538,43.91,20.138,43.91 M9.477,40.91h10.036l30.512-30.819H9.477V40.91z"/>
	<polygon clip-path="url(#SVGID_2_)" fill="#B3B3B3" points="96.939,8.59 96.939,15.681 88.251,15.681 88.251,8.59 64.222,8.59 
		97.704,42.409 109.865,42.409 109.865,8.59 	"/>
	<path clip-path="url(#SVGID_2_)" fill="#B3B3B3" d="M109.865,43.91H97.704c-0.4,0-0.784-0.16-1.065-0.444L63.155,9.646
		c-0.426-0.43-0.551-1.074-0.317-1.632c0.232-0.559,0.778-0.923,1.384-0.923h24.03c0.828,0,1.5,0.672,1.5,1.5v5.59h5.688v-5.59
		c0-0.828,0.671-1.5,1.5-1.5h12.926c0.828,0,1.5,0.672,1.5,1.5V42.41C111.365,43.238,110.693,43.91,109.865,43.91 M98.329,40.91
		h10.036V10.091h-9.926v5.59c0,0.829-0.671,1.5-1.5,1.5h-8.688c-0.828,0-1.5-0.671-1.5-1.5v-5.59H67.817L98.329,40.91z"/>
	<path clip-path="url(#SVGID_2_)" d="M105.233,102.43H12.607c-0.829,0-1.5-0.672-1.5-1.5V42.409c0-0.828,0.671-1.5,1.5-1.5h6.904
		l38.335-38.72c0.563-0.569,1.568-0.569,2.132,0l38.334,38.72h6.921c0.829,0,1.5,0.672,1.5,1.5v58.521
		C106.733,101.758,106.063,102.43,105.233,102.43 M14.107,99.43h89.626V43.909h-6.047c-0.4,0-0.784-0.16-1.066-0.444L58.913,5.376
		L21.204,43.465c-0.282,0.284-0.665,0.444-1.066,0.444h-6.03V99.43z"/>
	<path clip-path="url(#SVGID_2_)" d="M75.645,102.43H41.939c-0.828,0-1.5-0.672-1.5-1.5v-8.204c0-0.828,0.672-1.5,1.5-1.5h33.706
		c0.828,0,1.5,0.672,1.5,1.5v8.204C77.145,101.758,76.473,102.43,75.645,102.43 M43.439,99.43h30.705v-5.204H43.439V99.43z"/>
	<path clip-path="url(#SVGID_2_)" d="M68.698,94.226H48.886c-0.829,0-1.5-0.672-1.5-1.5V61.823c0-0.828,0.671-1.5,1.5-1.5h19.812
		c0.829,0,1.5,0.672,1.5,1.5v30.903C70.198,93.554,69.527,94.226,68.698,94.226 M50.386,91.226h16.812V63.323H50.386V91.226z"/>
	<path clip-path="url(#SVGID_2_)" d="M39.365,79.732H21.869c-0.829,0-1.5-0.672-1.5-1.5V61.823c0-0.828,0.671-1.5,1.5-1.5h17.496
		c0.829,0,1.5,0.672,1.5,1.5v16.409C40.865,79.06,40.194,79.732,39.365,79.732 M23.369,76.732h14.496V63.323H23.369V76.732z"/>
	<path clip-path="url(#SVGID_2_)" d="M95.79,79.732H78.294c-0.829,0-1.5-0.672-1.5-1.5V61.823c0-0.828,0.671-1.5,1.5-1.5H95.79
		c0.829,0,1.5,0.672,1.5,1.5v16.409C97.29,79.06,96.619,79.732,95.79,79.732 M79.794,76.732H94.29V63.323H79.794V76.732z"/>
	<path clip-path="url(#SVGID_2_)" d="M66.26,45.027H51.323c-0.828,0-1.5-0.672-1.5-1.5v-14.01c0-0.828,0.672-1.5,1.5-1.5H66.26
		c0.828,0,1.5,0.672,1.5,1.5v14.01C67.76,44.355,67.088,45.027,66.26,45.027 M52.823,42.027h11.936v-11.01H52.823V42.027z"/>
	<path clip-path="url(#SVGID_2_)" d="M96.939,17.181h-8.688c-0.829,0-1.5-0.672-1.5-1.5V1.5c0-0.828,0.671-1.5,1.5-1.5h8.688
		c0.828,0,1.5,0.672,1.5,1.5v14.181C98.439,16.509,97.768,17.181,96.939,17.181 M89.752,14.181h5.688V3h-5.688V14.181z"/>
	<rect x="84.136" clip-path="url(#SVGID_2_)" width="16.981" height="3"/>
	<path clip-path="url(#SVGID_2_)" fill="#B3B3B3" d="M33.145,100.93c0.265-0.538,0.414-1.131,0.414-1.758
		c0-2.219-1.855-4.049-4.252-4.316c-0.487-3.895-4.171-6.923-8.648-6.923c-3.47,0-6.457,1.823-7.856,4.451
		c-0.279-0.034-0.561-0.058-0.851-0.058c-3.455,0-6.254,2.508-6.254,5.602c0,1.105,0.363,2.134,0.98,3.002H33.145z"/>
	<path clip-path="url(#SVGID_2_)" fill="#B3B3B3" d="M33.144,102.43H6.678c-0.486,0-0.942-0.235-1.223-0.631
		c-0.823-1.157-1.258-2.496-1.258-3.871c0-3.929,3.5-7.145,7.795-7.102c1.852-2.732,5.084-4.394,8.666-4.394
		c4.783,0,8.858,3.006,9.93,7.151c2.613,0.745,4.47,2.988,4.47,5.588c0,0.839-0.191,1.652-0.567,2.42
		C34.238,102.105,33.716,102.43,33.144,102.43 M7.533,99.43h24.512c0.009-0.085,0.013-0.172,0.013-0.258
		c0-1.425-1.255-2.641-2.918-2.825c-0.689-0.077-1.236-0.617-1.322-1.305c-0.4-3.198-3.478-5.609-7.16-5.609
		c-2.786,0-5.35,1.434-6.531,3.656c-0.292,0.548-0.888,0.855-1.507,0.784c-0.219-0.027-0.441-0.047-0.669-0.047
		c-2.621,0-4.754,1.84-4.754,4.102C7.197,98.443,7.312,98.952,7.533,99.43"/>
	<path clip-path="url(#SVGID_2_)" fill="#B3B3B3" d="M112.042,100.93c0.272-0.538,0.429-1.131,0.429-1.758
		c0-2.219-1.918-4.049-4.395-4.316c-0.503-3.895-4.308-6.923-8.934-6.923c-3.586,0-6.67,1.823-8.116,4.451
		c-0.287-0.034-0.581-0.058-0.88-0.058c-3.568,0-6.46,2.508-6.46,5.602c0,1.105,0.375,2.134,1.012,3.002H112.042z"/>
	<path clip-path="url(#SVGID_2_)" fill="#B3B3B3" d="M112.042,102.43H84.698c-0.479,0-0.927-0.228-1.209-0.613
		c-0.853-1.161-1.303-2.506-1.303-3.889c0-3.94,3.646-7.134,8.044-7.102c1.905-2.732,5.23-4.394,8.912-4.394
		c4.913,0,9.102,3.001,10.206,7.14c2.7,0.735,4.622,2.988,4.622,5.6c0,0.845-0.199,1.665-0.592,2.438
		C113.124,102.113,112.606,102.43,112.042,102.43 M85.538,99.43h25.418c0.01-0.086,0.015-0.172,0.015-0.258
		c0-1.422-1.313-2.637-3.056-2.825c-0.69-0.074-1.238-0.611-1.327-1.299c-0.413-3.201-3.614-5.615-7.445-5.615
		c-2.903,0-5.573,1.442-6.803,3.675c-0.294,0.535-0.885,0.837-1.491,0.766c-0.229-0.027-0.464-0.047-0.701-0.047
		c-2.735,0-4.961,1.84-4.961,4.102C85.187,98.442,85.307,98.952,85.538,99.43"/>
	<rect y="99.43" clip-path="url(#SVGID_2_)" width="117.584" height="3"/>
	<rect x="97.704" y="40.909" clip-path="url(#SVGID_2_)" width="13.77" height="3"/>
	<rect x="6.364" y="40.909" clip-path="url(#SVGID_2_)" width="13.77" height="3"/>
</g>
</svg>
