<?xml version="1.0" encoding="utf-8"?>
<!-- Generator: Adobe Illustrator 13.0.0, SVG Export Plug-In  -->
<!DOCTYPE svg PUBLIC "-//W3C//DTD SVG 1.1//EN" "http://www.w3.org/Graphics/SVG/1.1/DTD/svg11.dtd" [
	<!ENTITY ns_flows "http://ns.adobe.com/Flows/1.0/">
]>
<svg version="1.1"
	 xmlns="http://www.w3.org/2000/svg" xmlns:xlink="http://www.w3.org/1999/xlink" xmlns:a="http://ns.adobe.com/AdobeSVGViewerExtensions/3.0/"
	 x="0px" y="0px" width="106px" height="106px" viewBox="0 0 106 106" enable-background="new 0 0 106 106" xml:space="preserve">
<defs>
</defs>
<g>
	<defs>
		<rect id="SVGID_1_" y="0" width="106.188" height="106.188"/>
	</defs>
	<clipPath id="SVGID_2_">
		<use xlink:href="#SVGID_1_"  overflow="visible"/>
	</clipPath>
	<path clip-path="url(#SVGID_2_)" fill="#B3B4B4" d="M104.688,53.094c0,28.495-23.1,51.594-51.594,51.594
		C24.6,104.688,1.5,81.589,1.5,53.094C1.5,24.599,24.6,1.5,53.095,1.5C81.589,1.5,104.688,24.599,104.688,53.094"/>
	<path clip-path="url(#SVGID_2_)" fill="#B3B4B4" d="M53.095,106.189C23.819,106.189,0,82.37,0,53.094C0,23.818,23.819,0,53.095,0
		c29.276,0,53.094,23.818,53.094,53.094C106.188,82.37,82.371,106.189,53.095,106.189 M53.095,3C25.473,3,3,25.472,3,53.094
		c0,27.622,22.473,50.096,50.095,50.096s50.094-22.474,50.094-50.096C103.188,25.472,80.717,3,53.095,3"/>
	<path clip-path="url(#SVGID_2_)" fill="#FFFFFF" d="M57.47,27.588c-4.042,8.787-12.9,14.896-23.203,14.896
		c-2.295,0-4.505-0.329-6.622-0.897c-0.05,0.662-0.101,1.325-0.101,1.998v9.468c0,14.11,11.44,25.548,25.551,25.548
		c14.113,0,25.553-11.438,25.553-25.548v-9.468c0-0.407-0.043-0.804-0.061-1.206C69.183,41.617,61.235,35.776,57.47,27.588"/>
	<path clip-path="url(#SVGID_2_)" fill="#010101" d="M53.095,80.101c-14.916,0-27.051-12.134-27.051-27.048v-9.467
		c0-0.719,0.052-1.409,0.103-2.077c0.033-0.445,0.264-0.869,0.628-1.128c0.365-0.258,0.828-0.358,1.258-0.242
		c11.647,3.124,23.298-2.796,28.074-13.178c0.244-0.532,0.776-0.873,1.362-0.873s1.118,0.341,1.362,0.873
		c3.629,7.888,11.244,13.223,19.876,13.923c0.754,0.061,1.345,0.674,1.378,1.43l0.024,0.41c0.019,0.286,0.038,0.572,0.038,0.862
		v9.467C80.148,67.967,68.012,80.101,53.095,80.101 M29.045,43.456c-0.001,0.043-0.001,0.086-0.001,0.13v9.467
		c0,13.26,10.789,24.048,24.051,24.048c13.263,0,24.053-10.788,24.053-24.048v-9.318C68.949,42.661,61.695,37.864,57.47,30.8
		C51.749,40.353,40.501,45.751,29.045,43.456"/>
	<path clip-path="url(#SVGID_2_)" fill="#010101" d="M78.587,43.879c-0.04,0-0.081-0.001-0.121-0.005
		c-9.711-0.787-18.278-6.787-22.358-15.659c-0.184-0.398-0.184-0.856,0-1.254c1.184-2.573,1.896-5.313,2.119-8.144
		c0.033-0.445,0.265-0.851,0.628-1.108c0.364-0.258,0.825-0.339,1.255-0.224c11.395,3.056,19.423,13.032,19.976,24.824
		c0.021,0.43-0.146,0.849-0.455,1.149C79.349,43.729,78.975,43.879,78.587,43.879 M59.121,27.566
		c3.469,7.021,10.144,11.906,17.819,13.108c-1.098-9.121-7.256-16.769-15.933-19.777C60.67,23.194,60.037,25.429,59.121,27.566"/>
	<path clip-path="url(#SVGID_2_)" fill="#010101" d="M34.267,43.983c-2.308,0-4.666-0.318-7.011-0.947
		c-0.697-0.187-1.163-0.845-1.106-1.565c1.085-13.983,12.921-24.936,26.945-24.936c0.768,0,1.511,0.054,2.206,0.11
		c1.589,0.129,3.206,0.411,4.807,0.838c0.699,0.187,1.165,0.846,1.108,1.566c-0.249,3.186-1.051,6.27-2.384,9.165
		C54.426,37.793,44.784,43.983,34.267,43.983 M29.272,40.438C40.503,42.863,51.5,36.976,56.107,26.96
		c1.006-2.187,1.672-4.494,1.985-6.876c-1.017-0.217-2.032-0.367-3.033-0.448c-0.66-0.053-1.308-0.101-1.965-0.101
		C41.053,19.536,30.827,28.619,29.272,40.438"/>
	<rect x="40.187" y="48.638" clip-path="url(#SVGID_2_)" fill="#010101" width="7.843" height="3"/>
	<rect x="58.717" y="48.638" clip-path="url(#SVGID_2_)" fill="#010101" width="7.843" height="3"/>
	<path clip-path="url(#SVGID_2_)" fill="#010101" d="M52.995,67.831h-0.006c-2.018,0-4.002-0.553-5.734-1.599l1.551-2.568
		c1.264,0.763,2.712,1.167,4.184,1.167h0.004c2.339,0,4.56-1.017,6.096-2.79l2.268,1.964C59.251,66.437,56.203,67.831,52.995,67.831
		"/>
	<path clip-path="url(#SVGID_2_)" fill="#010101" d="M53.095,106.188c-15.339,0-29.956-6.739-40.105-18.49
		c-0.29-0.336-0.416-0.784-0.344-1.223c1.61-9.837,8.796-18.222,18.304-21.361l0.942,2.849c-8.238,2.72-14.516,9.86-16.162,18.31
		c9.556,10.76,23.133,16.916,37.365,16.916c14.261,0,27.825-6.073,37.328-16.687c-1.549-8.563-7.813-15.796-16.126-18.539
		l0.939-2.849c9.598,3.167,16.768,11.655,18.267,21.623c0.065,0.435-0.063,0.876-0.352,1.208
		C83.058,99.539,68.458,106.188,53.095,106.188"/>
</g>
</svg>
