<?xml version="1.0" encoding="utf-8"?>
<!-- Generator: Adobe Illustrator 13.0.0, SVG Export Plug-In  -->
<!DOCTYPE svg PUBLIC "-//W3C//DTD SVG 1.1//EN" "http://www.w3.org/Graphics/SVG/1.1/DTD/svg11.dtd" [
	<!ENTITY ns_flows "http://ns.adobe.com/Flows/1.0/">
]>
<svg version="1.1"
	 xmlns="http://www.w3.org/2000/svg" xmlns:xlink="http://www.w3.org/1999/xlink" xmlns:a="http://ns.adobe.com/AdobeSVGViewerExtensions/3.0/"
	 x="0px" y="0px" width="104px" height="106px" viewBox="0 0 104 106" enable-background="new 0 0 104 106" xml:space="preserve">
<defs>
</defs>
<g>
	<defs>
		<rect id="SVGID_1_" width="103.5" height="106.055"/>
	</defs>
	<clipPath id="SVGID_2_">
		<use xlink:href="#SVGID_1_"  overflow="visible"/>
	</clipPath>
	<path clip-path="url(#SVGID_2_)" fill="#B3B4B4" d="M31.65,14.077c-5.551,0-10.051,4.499-10.051,10.05v45.901
		c0,5.551-4.5,10.049-10.05,10.049H41.7V70.028V24.126C41.7,18.576,37.201,14.077,31.65,14.077"/>
	<path clip-path="url(#SVGID_2_)" fill="#B3B4B4" d="M41.701,81.577H11.55c-0.828,0-1.5-0.672-1.5-1.5s0.672-1.5,1.5-1.5
		c4.715,0,8.55-3.835,8.55-8.549V24.126c0-6.368,5.182-11.55,11.551-11.55c6.369,0,11.55,5.182,11.55,11.55v55.95
		C43.201,80.905,42.529,81.577,41.701,81.577 M19.308,78.577h20.893v-54.45c0-4.715-3.836-8.55-8.55-8.55
		c-4.715,0-8.551,3.835-8.551,8.55v45.901C23.1,73.413,21.636,76.462,19.308,78.577"/>
	<path clip-path="url(#SVGID_2_)" fill="#010101" d="M56.308,89.597c0.792,0.782,1.79,1.274,2.993,1.474v-7.973
		c-1.063-0.26-1.98-0.546-2.752-0.857c-0.771-0.311-1.414-0.682-1.926-1.113c-0.512-0.43-0.887-0.957-1.129-1.578
		c-0.24-0.622-0.36-1.374-0.36-2.256c0-0.904,0.16-1.73,0.481-2.482c0.32-0.753,0.756-1.404,1.309-1.956
		c0.551-0.552,1.203-0.987,1.955-1.31c0.752-0.32,1.56-0.511,2.422-0.57v-1.986h1.654v2.016c1.625,0.201,2.919,0.803,3.882,1.805
		c0.962,1.004,1.644,2.388,2.046,4.152h-2.558c-0.401-1.986-1.524-3.148-3.37-3.49v7.4l1.806,0.482
		c0.401,0.1,0.872,0.275,1.414,0.526s1.063,0.597,1.564,1.038s0.927,0.992,1.278,1.654s0.527,1.455,0.527,2.377
		c0,0.982-0.166,1.855-0.497,2.617c-0.331,0.763-0.787,1.42-1.368,1.971c-0.582,0.552-1.274,0.988-2.076,1.309
		c-0.803,0.319-1.686,0.521-2.648,0.602v2.467h-1.654v-2.467c-2.006-0.201-3.6-0.896-4.783-2.091
		c-1.184-1.193-1.855-2.843-2.016-4.948h2.557C55.1,87.752,55.515,88.815,56.308,89.597 M56.85,74.418
		c-0.672,0.592-1.008,1.46-1.008,2.604c0,0.521,0.085,0.967,0.256,1.338c0.17,0.371,0.41,0.684,0.723,0.934
		c0.309,0.25,0.676,0.465,1.098,0.646c0.42,0.18,0.882,0.342,1.383,0.481v-7.04C58.338,73.482,57.521,73.829,56.85,74.418
		 M62.506,90.77c0.471-0.16,0.882-0.396,1.232-0.707c0.352-0.311,0.623-0.701,0.813-1.173c0.19-0.472,0.286-1.027,0.286-1.669
		c0-0.582-0.101-1.068-0.302-1.46c-0.199-0.392-0.471-0.727-0.812-1.008c-0.341-0.28-0.752-0.517-1.233-0.707
		s-0.992-0.366-1.535-0.526v7.551C61.518,91.032,62.033,90.931,62.506,90.77"/>
	<path clip-path="url(#SVGID_2_)" fill="#010101" d="M102,106.055H41.7c-0.829,0-1.5-0.672-1.5-1.5V24.126
		c0-4.715-3.835-8.55-8.55-8.55c-0.828,0-1.5-0.671-1.5-1.5c0-0.828,0.672-1.5,1.5-1.5h60.3c6.369,0,11.55,5.182,11.55,11.55v80.429
		C103.5,105.383,102.828,106.055,102,106.055 M43.2,103.055h57.3V24.126c0-4.715-3.836-8.55-8.55-8.55H39.408
		c2.328,2.115,3.792,5.165,3.792,8.55V103.055z"/>
	<path clip-path="url(#SVGID_2_)" fill="#010101" d="M11.55,81.577C5.181,81.577,0,76.396,0,70.028V1.5C0,0.672,0.671,0,1.5,0
		h60.301c0.828,0,1.5,0.672,1.5,1.5v12.576c0,0.828-0.672,1.5-1.5,1.5H31.65c-4.714,0-8.55,3.835-8.55,8.55v45.901
		C23.1,76.396,17.918,81.577,11.55,81.577 M3,3v67.027c0,4.714,3.835,8.549,8.55,8.549c4.714,0,8.55-3.835,8.55-8.549V24.126
		c0-6.368,5.181-11.55,11.55-11.55h28.651V3H3z"/>
	<rect x="52.808" y="25.772" clip-path="url(#SVGID_2_)" fill="#010101" width="15.075" height="3"/>
	<rect x="75.817" y="72.848" clip-path="url(#SVGID_2_)" fill="#010101" width="15.074" height="3"/>
	<rect x="75.817" y="79.196" clip-path="url(#SVGID_2_)" fill="#010101" width="15.074" height="3"/>
	<rect x="75.697" y="92.198" clip-path="url(#SVGID_2_)" fill="#B3B4B4" width="15.076" height="3"/>
	<rect x="53.469" y="35.425" clip-path="url(#SVGID_2_)" fill="#010101" width="37.423" height="3"/>
	<rect x="53.469" y="43.8" clip-path="url(#SVGID_2_)" fill="#010101" width="37.423" height="3"/>
	<rect x="53.469" y="52.175" clip-path="url(#SVGID_2_)" fill="#010101" width="37.423" height="3"/>
	<rect x="53.469" y="60.55" clip-path="url(#SVGID_2_)" fill="#010101" width="37.423" height="3"/>
</g>
</svg>
