<?xml version="1.0" encoding="utf-8"?>
<!-- Generator: Adobe Illustrator 13.0.0, SVG Export Plug-In  -->
<!DOCTYPE svg PUBLIC "-//W3C//DTD SVG 1.1//EN" "http://www.w3.org/Graphics/SVG/1.1/DTD/svg11.dtd" [
	<!ENTITY ns_flows "http://ns.adobe.com/Flows/1.0/">
]>
<svg version="1.1"
	 xmlns="http://www.w3.org/2000/svg" xmlns:xlink="http://www.w3.org/1999/xlink" xmlns:a="http://ns.adobe.com/AdobeSVGViewerExtensions/3.0/"
	 x="0px" y="0px" width="123px" height="98px" viewBox="0 0 123 98" enable-background="new 0 0 123 98" xml:space="preserve">
<defs>
</defs>
<g>
	<defs>
		<rect id="SVGID_1_" width="122.5" height="97.878"/>
	</defs>
	<clipPath id="SVGID_2_">
		<use xlink:href="#SVGID_1_"  overflow="visible"/>
	</clipPath>
	<path clip-path="url(#SVGID_2_)" fill="#010101" d="M30.75,65.87l-2.147-2.096l30.329-31.081c0.28-0.287,0.663-0.449,1.064-0.452
		h0.009c0.398,0,0.78,0.158,1.061,0.439l19.025,19.026l30.449-28.334l2.045,2.195L81.074,54.888
		c-0.59,0.551-1.511,0.533-2.082-0.037L60.019,35.876L30.75,65.87z"/>
	<path clip-path="url(#SVGID_2_)" fill="#B3B4B4" d="M38.262,64.822c0,4.741-3.844,8.587-8.586,8.587
		c-4.742,0-8.587-3.846-8.587-8.587c0-4.742,3.845-8.586,8.587-8.586C34.417,56.236,38.262,60.08,38.262,64.822"/>
	<path clip-path="url(#SVGID_2_)" fill="#B3B4B4" d="M68.849,34.595c0,4.742-3.844,8.586-8.585,8.586
		c-4.742,0-8.588-3.844-8.588-8.586c0-4.743,3.846-8.587,8.588-8.587C65.005,26.008,68.849,29.852,68.849,34.595"/>
	<path clip-path="url(#SVGID_2_)" fill="#B3B4B4" d="M88.382,53.878c0,4.742-3.845,8.586-8.587,8.586
		c-4.741,0-8.586-3.844-8.586-8.586c0-4.743,3.845-8.587,8.586-8.587C84.537,45.291,88.382,49.135,88.382,53.878"/>
	<path clip-path="url(#SVGID_2_)" fill="#B3B4B4" d="M120.148,24.47c0,4.742-3.844,8.586-8.586,8.586
		c-4.741,0-8.586-3.844-8.586-8.586c0-4.741,3.845-8.585,8.586-8.585C116.305,15.885,120.148,19.729,120.148,24.47"/>
	<rect x="9.124" clip-path="url(#SVGID_2_)" fill="#010101" width="3" height="97.878"/>
	<rect y="86.756" clip-path="url(#SVGID_2_)" fill="#010101" width="122.5" height="3"/>
</g>
</svg>
