<?xml version="1.0" encoding="utf-8"?>
<!-- Generator: Adobe Illustrator 13.0.0, SVG Export Plug-In  -->
<!DOCTYPE svg PUBLIC "-//W3C//DTD SVG 1.1//EN" "http://www.w3.org/Graphics/SVG/1.1/DTD/svg11.dtd" [
	<!ENTITY ns_flows "http://ns.adobe.com/Flows/1.0/">
]>
<svg version="1.1"
	 xmlns="http://www.w3.org/2000/svg" xmlns:xlink="http://www.w3.org/1999/xlink" xmlns:a="http://ns.adobe.com/AdobeSVGViewerExtensions/3.0/"
	 x="0px" y="0px" width="123px" height="120px" viewBox="0 0 123 120" enable-background="new 0 0 123 120" xml:space="preserve">
<defs>
</defs>
<g>
	<defs>
		<rect id="SVGID_1_" width="122.724" height="119.985"/>
	</defs>
	<clipPath id="SVGID_2_">
		<use xlink:href="#SVGID_1_"  overflow="visible"/>
	</clipPath>
	<path clip-path="url(#SVGID_2_)" fill="#B3B4B4" d="M1.501,60.783v31.51c0,14.466,11.728,26.192,26.193,26.192
		c14.466,0,26.195-11.727,26.195-26.192v-31.51H1.501z"/>
	<path clip-path="url(#SVGID_2_)" fill="#B3B4B4" d="M27.694,119.985c-15.27,0-27.693-12.423-27.693-27.692v-31.51
		c0-0.828,0.671-1.5,1.5-1.5h52.388c0.828,0,1.5,0.672,1.5,1.5v31.51C55.389,107.562,42.965,119.985,27.694,119.985 M3.001,62.283
		v30.01c0,13.615,11.077,24.692,24.693,24.692c13.617,0,24.695-11.077,24.695-24.692v-30.01H3.001z"/>
	<path clip-path="url(#SVGID_2_)" fill="#FFFFFF" d="M1.5,56.355c0-14.467,11.729-26.193,26.194-26.193v30.621H1.5V56.355z"/>
	<path clip-path="url(#SVGID_2_)" fill="#010101" d="M29.194,62.283H0v-5.928c0-15.27,12.424-27.693,27.694-27.693h1.5V62.283z
		 M3,59.283h23.194V31.707C13.273,32.485,3,43.243,3,56.355V59.283z"/>
	<path clip-path="url(#SVGID_2_)" fill="#FFFFFF" d="M53.888,56.355v4.428H27.695V30.162C42.161,30.162,53.888,41.888,53.888,56.355
		"/>
	<path clip-path="url(#SVGID_2_)" fill="#010101" d="M55.387,62.283H26.194V28.662h1.5c15.27,0,27.693,12.423,27.693,27.693V62.283z
		 M29.194,59.283h23.193v-2.928c0-13.112-10.273-23.87-23.193-24.648V59.283z"/>
	<path clip-path="url(#SVGID_2_)" fill="#010101" d="M82.366,117.528c-10.537,0-19.109-8.748-19.109-19.5V19.5
		c0-9.098-7.402-16.5-16.5-16.5h-0.959c-9.101,0-16.527,5.758-16.552,12.838l-0.052,14.33l-3-0.012l0.052-14.33
		C26.277,7.099,35.048,0,45.798,0h0.959c10.752,0,19.5,8.748,19.5,19.5v78.528c0,9.098,7.227,16.5,16.109,16.5
		s16.11-7.402,16.11-16.5V41.5h3v56.528C101.477,108.78,92.904,117.528,82.366,117.528"/>
	<path clip-path="url(#SVGID_2_)" fill="#FFFFFF" d="M31.644,50.386c0,2.125-1.722,3.848-3.846,3.848s-3.845-1.723-3.845-3.848
		v-8.252c0-2.123,1.721-3.846,3.845-3.846s3.846,1.723,3.846,3.846V50.386z"/>
	<path clip-path="url(#SVGID_2_)" fill="#010101" d="M27.798,55.733c-2.948,0-5.346-2.399-5.346-5.347v-8.252
		c0-2.948,2.398-5.346,5.346-5.346c2.948,0,5.346,2.398,5.346,5.346v8.252C33.144,53.334,30.746,55.733,27.798,55.733
		 M27.798,39.789c-1.294,0-2.346,1.053-2.346,2.346v8.252c0,1.295,1.052,2.347,2.346,2.347s2.346-1.052,2.346-2.347v-8.252
		C30.144,40.842,29.092,39.789,27.798,39.789"/>
	<path clip-path="url(#SVGID_2_)" fill="#B3B4B4" d="M121.224,23.287c0,11.735-9.512,21.248-21.248,21.248
		c-11.734,0-21.246-9.513-21.246-21.248c0-11.734,9.512-21.247,21.246-21.247C111.712,2.04,121.224,11.553,121.224,23.287"/>
	<path clip-path="url(#SVGID_2_)" fill="#B3B4B4" d="M99.976,46.035c-12.542,0-22.746-10.205-22.746-22.748S87.434,0.54,99.976,0.54
		c12.544,0,22.748,10.204,22.748,22.747S112.52,46.035,99.976,46.035 M99.976,3.54c-10.888,0-19.746,8.858-19.746,19.747
		s8.858,19.748,19.746,19.748c10.889,0,19.748-8.859,19.748-19.748S110.864,3.54,99.976,3.54"/>
	<path clip-path="url(#SVGID_2_)" fill="#010101" d="M99.976,41.34c-9.954,0-18.052-8.098-18.052-18.053
		c0-9.954,8.098-18.052,18.052-18.052s18.053,8.098,18.053,18.052C118.028,33.242,109.93,41.34,99.976,41.34 M99.976,8.235
		c-8.3,0-15.052,6.752-15.052,15.052c0,8.301,6.752,15.053,15.052,15.053s15.053-6.752,15.053-15.053
		C115.028,14.987,108.275,8.235,99.976,8.235"/>
	<path clip-path="url(#SVGID_2_)" fill="#010101" d="M97.267,28.29c0.519,0.554,1.167,0.908,1.939,1.058V24.08
		c-0.082-0.035-0.195-0.071-0.34-0.113c-0.142-0.041-0.299-0.08-0.465-0.113c-0.623-0.166-1.236-0.368-1.842-0.593
		c-0.604-0.228-1.146-0.53-1.626-0.909c-0.479-0.377-0.86-0.847-1.146-1.41c-0.285-0.561-0.43-1.266-0.43-2.106
		c0-0.855,0.165-1.612,0.492-2.266c0.328-0.657,0.76-1.207,1.298-1.652c0.538-0.444,1.159-0.791,1.864-1.034
		c0.707-0.244,1.438-0.391,2.193-0.441V11.5h1.49v1.942c0.753,0.084,1.464,0.248,2.127,0.492c0.664,0.242,1.249,0.578,1.754,1.008
		c0.503,0.427,0.914,0.961,1.234,1.601c0.318,0.639,0.504,1.396,0.555,2.269h-3.581c-0.016-0.672-0.226-1.243-0.628-1.714
		c-0.403-0.471-0.893-0.707-1.461-0.707v4.462c0.2,0.05,0.406,0.101,0.616,0.152s0.434,0.109,0.668,0.176
		c1.243,0.336,2.2,0.752,2.873,1.248c0.673,0.494,1.169,1.013,1.487,1.55c0.318,0.538,0.508,1.076,0.568,1.612
		c0.059,0.537,0.087,1.017,0.087,1.438c0,0.369-0.093,0.835-0.277,1.398c-0.185,0.564-0.518,1.114-0.994,1.65
		c-0.479,0.539-1.123,1.018-1.929,1.439c-0.809,0.419-1.841,0.673-3.1,0.757v2.143h-1.49v-2.143
		c-1.881-0.135-3.352-0.717-4.41-1.743c-1.059-1.023-1.672-2.526-1.841-4.51h3.555C96.493,26.979,96.746,27.733,97.267,28.29
		 M98.376,16.519c-0.27,0.083-0.514,0.214-0.732,0.388c-0.218,0.177-0.391,0.397-0.516,0.658c-0.127,0.259-0.189,0.566-0.189,0.919
		c0,0.555,0.178,0.983,0.529,1.286c0.352,0.301,0.934,0.546,1.738,0.731v-4.109C98.921,16.392,98.644,16.436,98.376,16.519
		 M101.64,29.133c0.327-0.109,0.621-0.265,0.883-0.464c0.258-0.202,0.475-0.451,0.644-0.746c0.166-0.293,0.251-0.644,0.251-1.045
		c0-0.655-0.207-1.148-0.617-1.475c-0.412-0.328-1.113-0.627-2.104-0.896v4.84C100.997,29.314,101.313,29.242,101.64,29.133"/>
</g>
</svg>
