<?xml version="1.0" encoding="utf-8"?>
<!-- Generator: Adobe Illustrator 13.0.0, SVG Export Plug-In  -->
<!DOCTYPE svg PUBLIC "-//W3C//DTD SVG 1.1//EN" "http://www.w3.org/Graphics/SVG/1.1/DTD/svg11.dtd" [
	<!ENTITY ns_flows "http://ns.adobe.com/Flows/1.0/">
]>
<svg version="1.1"
	 xmlns="http://www.w3.org/2000/svg" xmlns:xlink="http://www.w3.org/1999/xlink" xmlns:a="http://ns.adobe.com/AdobeSVGViewerExtensions/3.0/"
	 x="0px" y="0px" width="105px" height="107px" viewBox="0 0 105 107" enable-background="new 0 0 105 107" xml:space="preserve">
<defs>
</defs>
<polygon fill="#B3B3B3" points="39.85,73.38 1.5,105.25 1.5,41.5 "/>
<g>
	<defs>
		<rect id="SVGID_1_" x="0" width="105.25" height="106.75"/>
	</defs>
	<clipPath id="SVGID_2_">
		<use xlink:href="#SVGID_1_"  overflow="visible"/>
	</clipPath>
	<path clip-path="url(#SVGID_2_)" fill="#B3B3B3" d="M1.5,106.75c-0.216,0-0.434-0.047-0.637-0.142
		C0.336,106.361,0,105.832,0,105.25V41.5c0-0.582,0.336-1.112,0.863-1.359c0.528-0.247,1.148-0.167,1.596,0.205l38.35,31.88
		c0.342,0.285,0.541,0.708,0.541,1.153c0,0.446-0.199,0.869-0.542,1.153l-38.35,31.87C2.185,106.632,1.845,106.75,1.5,106.75
		 M3,44.697v57.355L37.503,73.38L3,44.697z"/>
	<polygon clip-path="url(#SVGID_2_)" fill="#B3B3B3" points="103.75,41.49 103.75,105.25 65.39,73.359 66.8,72.189 	"/>
	<path clip-path="url(#SVGID_2_)" fill="#B3B3B3" d="M103.75,106.75c-0.344,0-0.684-0.118-0.959-0.347l-38.36-31.891
		c-0.342-0.285-0.541-0.708-0.541-1.154s0.199-0.868,0.543-1.153l38.358-31.868c0.447-0.373,1.07-0.451,1.597-0.206
		c0.525,0.249,0.862,0.777,0.862,1.359v63.76c0,0.582-0.337,1.111-0.862,1.358C104.184,106.703,103.967,106.75,103.75,106.75
		 M67.738,73.36l34.513,28.692V44.687L67.738,73.36z"/>
	<path clip-path="url(#SVGID_2_)" fill="#010101" d="M91.561,53.501l-1.922-2.304l11.771-9.817l-11.771-9.817l1.922-2.304
		l13.15,10.969c0.342,0.285,0.539,0.707,0.539,1.152c0,0.445-0.197,0.867-0.539,1.152L91.561,53.501z"/>
	<path clip-path="url(#SVGID_2_)" fill="#010101" d="M13.43,53.272L0.54,42.533C0.199,42.248,0,41.826,0,41.379
		c0-0.444,0.197-0.867,0.539-1.152l12.889-10.75l1.922,2.305L3.844,41.378l11.507,9.589L13.43,53.272z"/>
	<path clip-path="url(#SVGID_2_)" fill="#010101" d="M90.6,18.35H75.25c-0.828,0-1.5-0.672-1.5-1.5V1.5h3v13.85H90.6V18.35z"/>
	<path clip-path="url(#SVGID_2_)" fill="#010101" d="M52.63,85.5c-0.341,0-0.682-0.116-0.96-0.348l-38.24-31.88
		c-0.342-0.285-0.54-0.707-0.54-1.152V1.5c0-0.828,0.671-1.5,1.5-1.5h60.86c0.397,0,0.779,0.158,1.061,0.439l15.351,15.35
		c0.28,0.281,0.438,0.663,0.438,1.061v35.5c0,0.445-0.198,0.867-0.54,1.152l-37.969,31.65C53.313,85.384,52.972,85.5,52.63,85.5
		 M15.89,51.418l36.74,30.629l36.47-30.4V17.471L74.629,3H15.89V51.418z"/>
	<path clip-path="url(#SVGID_2_)" fill="#010101" d="M103.75,106.75H1.5c-0.632,0-1.196-0.396-1.411-0.99
		c-0.215-0.595-0.034-1.26,0.452-1.663l38.35-31.87l0.867,1.043l1.173,1.15l-0.021,0.021c-0.032,0.032-0.066,0.063-0.102,0.093
		L5.653,103.75h93.946L64.431,74.513l1.918-2.307l38.36,31.891c0.486,0.403,0.666,1.069,0.452,1.663
		C104.947,106.355,104.382,106.75,103.75,106.75"/>
	<path clip-path="url(#SVGID_2_)" fill="#010101" d="M60.783,56.81c-2.978,1.57-6.013,2.167-9.641,2.167
		c-8.885,0-16.415-6.5-16.415-16.9c0-11.16,7.747-20.802,19.772-20.802c9.426,0,15.765,6.609,15.765,15.655
		c0,8.125-4.551,12.892-9.643,12.892c-2.167,0-4.172-1.463-4.01-4.767h-0.216c-1.896,3.197-4.39,4.767-7.637,4.767
		c-3.144,0-5.851-2.546-5.851-6.824c0-6.718,5.307-12.839,12.837-12.839c2.329,0,4.388,0.486,5.796,1.137L59.7,41.101
		c-0.812,4.116-0.161,6.012,1.625,6.067c2.764,0.053,5.852-3.631,5.852-9.915c0-7.853-4.714-13.488-13.109-13.488
		c-8.831,0-16.252,6.989-16.252,17.985c0,9.047,5.904,14.626,13.922,14.626c3.087,0,5.958-0.65,8.18-1.895L60.783,56.81z
		 M57.805,33.408c-0.543-0.162-1.464-0.379-2.709-0.379c-4.767,0-8.614,4.495-8.614,9.749c0,2.386,1.192,4.118,3.575,4.118
		c3.142,0,6.013-4.009,6.61-7.367L57.805,33.408z"/>
</g>
</svg>
