<?xml version="1.0" encoding="utf-8"?>
<!-- Generator: Adobe Illustrator 13.0.0, SVG Export Plug-In  -->
<!DOCTYPE svg PUBLIC "-//W3C//DTD SVG 1.1//EN" "http://www.w3.org/Graphics/SVG/1.1/DTD/svg11.dtd" [
	<!ENTITY ns_flows "http://ns.adobe.com/Flows/1.0/">
]>
<svg version="1.1"
	 xmlns="http://www.w3.org/2000/svg" xmlns:xlink="http://www.w3.org/1999/xlink" xmlns:a="http://ns.adobe.com/AdobeSVGViewerExtensions/3.0/"
	 x="0px" y="0px" width="113px" height="97px" viewBox="0 0 113 97" enable-background="new 0 0 113 97" xml:space="preserve">
<defs>
</defs>
<g>
	<defs>
		<rect id="SVGID_1_" y="0" width="112.641" height="96.574"/>
	</defs>
	<clipPath id="SVGID_2_">
		<use xlink:href="#SVGID_1_"  overflow="visible"/>
	</clipPath>
	<path clip-path="url(#SVGID_2_)" fill="#B3B4B4" d="M80.472,21.393c1.663-2.23,2.658-4.99,2.658-7.986
		C83.13,6.002,77.129,0,69.725,0c-7.006,0-12.747,5.379-13.344,12.225l-0.06,0.289l-0.057-0.25C55.684,5.397,49.934,0,42.916,0
		c-7.402,0-13.405,6.002-13.405,13.407c0,2.711,0.812,5.232,2.197,7.341l24.613,21.825L80.472,21.393z"/>
	<path clip-path="url(#SVGID_2_)" fill="#010101" d="M39.976,84.879H24.045c-0.829,0-1.5-0.672-1.5-1.5v-4.537L0.44,56.737
		C0.158,56.456,0,56.074,0,55.676V22.385c0-4.161,3.385-7.547,7.546-7.547c4.16,0,7.544,3.386,7.544,7.547v18.003
		c0.899-0.433,1.896-0.662,2.934-0.662c1.885,0.001,3.668,0.747,5.021,2.101l18.002,18.375c0.275,0.281,0.429,0.657,0.429,1.05
		v22.127C41.476,84.208,40.804,84.879,39.976,84.879 M25.545,81.879h12.931V61.865L20.912,43.938
		c-0.776-0.778-1.805-1.21-2.888-1.211c-1.002,0-1.933,0.38-2.621,1.069c-0.711,0.709-1.09,1.668-1.069,2.699
		c0.021,1.055,0.455,2.058,1.221,2.824l12.062,12.063l-2.121,2.121L13.434,51.44c-1.317-1.317-2.063-3.053-2.099-4.885
		c-0.024-1.162,0.238-2.276,0.755-3.263V22.385c0-2.507-2.039-4.547-4.544-4.547C5.039,17.838,3,19.878,3,22.385v32.67
		l22.106,22.105c0.281,0.282,0.439,0.663,0.439,1.061V81.879z"/>
	<rect x="12.272" y="83.379" clip-path="url(#SVGID_2_)" fill="#B3B4B4" width="32.023" height="11.695"/>
	<path clip-path="url(#SVGID_2_)" fill="#B3B4B4" d="M45.795,96.575H10.772V81.879h35.023V96.575z M13.771,93.575h29.023v-8.695
		H13.771V93.575z"/>
	<path clip-path="url(#SVGID_2_)" fill="#010101" d="M88.594,84.879H72.662c-0.829,0-1.5-0.672-1.5-1.5V61.252
		c0-0.393,0.154-0.769,0.429-1.05l17.992-18.365c1.328-1.328,3.063-2.073,4.896-2.109c1.092-0.033,2.131,0.206,3.069,0.659V22.385
		c0-4.161,3.386-7.547,7.547-7.547c4.16,0,7.547,3.386,7.547,7.547v33.291c0,0.397-0.159,0.779-0.44,1.061L90.094,78.842v4.537
		C90.094,84.208,89.422,84.879,88.594,84.879 M74.162,81.879h12.932v-3.658c0-0.397,0.158-0.778,0.439-1.061l22.108-22.105v-32.67
		c0-2.507-2.04-4.547-4.547-4.547c-2.508,0-4.547,2.04-4.547,4.547V43.29c0.518,0.988,0.779,2.103,0.757,3.266
		c-0.037,1.832-0.782,3.567-2.1,4.885L87.143,63.502l-2.121-2.121l12.063-12.063c0.767-0.767,1.2-1.77,1.222-2.824
		c0.02-1.031-0.359-1.99-1.068-2.698c-0.71-0.711-1.685-1.064-2.7-1.069c-1.053,0.021-2.056,0.454-2.822,1.22L74.162,61.865V81.879z
		"/>
	<rect x="68.346" y="83.379" clip-path="url(#SVGID_2_)" fill="#B3B4B4" width="32.021" height="11.695"/>
	<path clip-path="url(#SVGID_2_)" fill="#B3B4B4" d="M101.867,96.575H66.846V81.879h35.021V96.575z M69.846,93.575h29.021v-8.695
		H69.846V93.575z"/>
</g>
</svg>
