<?xml version="1.0" encoding="utf-8"?>
<!-- Generator: Adobe Illustrator 13.0.0, SVG Export Plug-In  -->
<!DOCTYPE svg PUBLIC "-//W3C//DTD SVG 1.1//EN" "http://www.w3.org/Graphics/SVG/1.1/DTD/svg11.dtd" [
	<!ENTITY ns_flows "http://ns.adobe.com/Flows/1.0/">
]>
<svg version="1.1"
	 xmlns="http://www.w3.org/2000/svg" xmlns:xlink="http://www.w3.org/1999/xlink" xmlns:a="http://ns.adobe.com/AdobeSVGViewerExtensions/3.0/"
	 x="0px" y="0px" width="122px" height="96px" viewBox="0 0 122 96" enable-background="new 0 0 122 96" xml:space="preserve">
<defs>
</defs>
<g>
	<defs>
		<rect id="SVGID_1_" width="122.069" height="95.902"/>
	</defs>
	<clipPath id="SVGID_2_">
		<use xlink:href="#SVGID_1_"  overflow="visible"/>
	</clipPath>
	<path clip-path="url(#SVGID_2_)" fill="#010101" d="M10.641,54.704H1.5c-0.829,0-1.5-0.672-1.5-1.5V29.229
		c0-0.828,0.671-1.5,1.5-1.5h9.141c0.828,0,1.5,0.672,1.5,1.5v23.975C12.141,54.032,11.469,54.704,10.641,54.704 M3,51.704h6.141
		V30.729H3V51.704z"/>
	<polygon clip-path="url(#SVGID_2_)" fill="#B3B4B4" points="33.014,94.402 17.846,94.402 17.846,58.946 43.706,58.946 	"/>
	<path clip-path="url(#SVGID_2_)" fill="#B3B4B4" d="M33.014,95.902H17.846c-0.829,0-1.5-0.672-1.5-1.5V58.946
		c0-0.828,0.671-1.5,1.5-1.5h25.86c0.475,0,0.921,0.224,1.204,0.605c0.284,0.381,0.37,0.873,0.232,1.327L34.45,94.834
		C34.259,95.468,33.676,95.902,33.014,95.902 M19.346,92.902H31.9l9.787-32.456H19.346V92.902z"/>
	<polygon clip-path="url(#SVGID_2_)" fill="#B3B4B4" points="53.398,23.49 53.398,58.946 85.508,80.933 85.508,1.5 	"/>
	<path clip-path="url(#SVGID_2_)" fill="#B3B4B4" d="M85.508,82.433c-0.297,0-0.594-0.088-0.848-0.263L52.55,60.183
		c-0.408-0.279-0.652-0.742-0.652-1.237V23.49c0-0.495,0.244-0.958,0.652-1.237l32.11-21.99c0.459-0.317,1.055-0.347,1.547-0.09
		c0.492,0.26,0.801,0.771,0.801,1.328v79.432c0,0.557-0.309,1.067-0.801,1.326C85.987,82.375,85.747,82.433,85.508,82.433
		 M54.898,58.155l29.109,19.934V4.346L54.898,24.281V58.155z"/>
	<path clip-path="url(#SVGID_2_)" fill="#010101" d="M96.227,82.433H85.508c-0.829,0-1.5-0.672-1.5-1.5V1.501
		c0-0.829,0.671-1.5,1.5-1.5h10.719c0.828,0,1.5,0.671,1.5,1.5v79.432C97.727,81.761,97.055,82.433,96.227,82.433 M87.008,79.433
		h7.719V3h-7.719V79.433z"/>
	<path clip-path="url(#SVGID_2_)" fill="#010101" d="M23.344,41.511c-3.101,0-5.624-2.522-5.624-5.622s2.523-5.622,5.624-5.622
		s5.623,2.522,5.623,5.622S26.445,41.511,23.344,41.511 M23.344,33.267c-1.447,0-2.624,1.176-2.624,2.622
		c0,1.446,1.177,2.622,2.624,2.622c1.446,0,2.623-1.176,2.623-2.622C25.967,34.443,24.79,33.267,23.344,33.267"/>
	<path clip-path="url(#SVGID_2_)" fill="#010101" d="M53.348,60.446H10.641c-0.829,0-1.5-0.672-1.5-1.5V23.49
		c0-0.828,0.671-1.5,1.5-1.5h42.707c0.828,0,1.5,0.672,1.5,1.5v35.456C54.848,59.774,54.176,60.446,53.348,60.446 M12.141,57.446
		h39.707V24.99H12.141V57.446z"/>
	<rect x="109.069" y="38.511" clip-path="url(#SVGID_2_)" fill="#010101" width="13" height="3"/>
	
		<rect x="111.269" y="13.513" transform="matrix(0.4249 0.9052 -0.9052 0.4249 82.9646 -90.5726)" clip-path="url(#SVGID_2_)" fill="#010101" width="2.999" height="12.998"/>
	
		<rect x="106.269" y="58.512" transform="matrix(0.9053 0.4249 -0.4249 0.9053 36.1816 -42.2264)" clip-path="url(#SVGID_2_)" fill="#010101" width="13" height="2.999"/>
</g>
</svg>
