<?xml version="1.0" encoding="utf-8"?>
<!-- Generator: Adobe Illustrator 13.0.0, SVG Export Plug-In  -->
<!DOCTYPE svg PUBLIC "-//W3C//DTD SVG 1.1//EN" "http://www.w3.org/Graphics/SVG/1.1/DTD/svg11.dtd" [
	<!ENTITY ns_flows "http://ns.adobe.com/Flows/1.0/">
]>
<svg version="1.1"
	 xmlns="http://www.w3.org/2000/svg" xmlns:xlink="http://www.w3.org/1999/xlink" xmlns:a="http://ns.adobe.com/AdobeSVGViewerExtensions/3.0/"
	 x="0px" y="0px" width="125px" height="88px" viewBox="0 0 125 88" enable-background="new 0 0 125 88" xml:space="preserve">
<defs>
</defs>
<g>
	<defs>
		<rect id="SVGID_1_" width="125.063" height="88.296"/>
	</defs>
	<clipPath id="SVGID_2_">
		<use xlink:href="#SVGID_1_"  overflow="visible"/>
	</clipPath>
	<path clip-path="url(#SVGID_2_)" fill="#010101" d="M112.651,65.249H79.768c-0.828,0-1.5-0.672-1.5-1.5v-0.613H46.59v0.613
		c0,0.828-0.672,1.5-1.5,1.5H11.908c-0.829,0-1.5-0.672-1.5-1.5V45.181c0-4.784,3.891-8.675,8.674-8.675h86.395
		c4.783,0,8.675,3.891,8.675,8.675v18.568C114.151,64.577,113.479,65.249,112.651,65.249 M81.268,62.249h29.884V45.181
		c0-3.129-2.546-5.675-5.675-5.675H19.082c-3.128,0-5.674,2.546-5.674,5.675v17.068H43.59v-0.613c0-0.828,0.672-1.5,1.5-1.5h34.678
		c0.828,0,1.5,0.672,1.5,1.5V62.249z"/>
	<path clip-path="url(#SVGID_2_)" fill="#010101" d="M28.114,88.296h-4.613c-4.418,0-8.013-3.595-8.013-8.013v-7.566
		c0-0.828,0.672-1.5,1.5-1.5h17.639c0.828,0,1.5,0.672,1.5,1.5v7.566C36.127,84.701,32.532,88.296,28.114,88.296 M18.488,74.217
		v6.066c0,2.764,2.249,5.013,5.013,5.013h4.613c2.764,0,5.013-2.249,5.013-5.013v-6.066H18.488z"/>
	<path clip-path="url(#SVGID_2_)" fill="#010101" d="M101.355,88.296h-4.612c-4.419,0-8.014-3.595-8.014-8.013v-7.566
		c0-0.828,0.672-1.5,1.5-1.5h17.639c0.828,0,1.5,0.672,1.5,1.5v7.566C109.368,84.701,105.773,88.296,101.355,88.296 M91.729,74.217
		v6.066c0,2.764,2.249,5.013,5.014,5.013h4.612c2.764,0,5.013-2.249,5.013-5.013v-6.066H91.729z"/>
	<path clip-path="url(#SVGID_2_)" fill="#010101" d="M119.688,34.062h-4.407c-2.964,0-5.375-2.412-5.375-5.376
		c0-2.963,2.411-5.374,5.375-5.374h4.407c2.964,0,5.375,2.411,5.375,5.374C125.063,31.649,122.652,34.062,119.688,34.062
		 M115.281,26.312c-1.31,0-2.375,1.066-2.375,2.374c0,1.311,1.065,2.376,2.375,2.376h4.407c1.31,0,2.375-1.065,2.375-2.376
		c0-1.308-1.065-2.374-2.375-2.374H115.281z"/>
	<path clip-path="url(#SVGID_2_)" fill="#010101" d="M105.238,38.006h-3c0-4.759,6.215-10.82,9.168-10.82v3
		C110.215,30.306,105.238,34.738,105.238,38.006"/>
	<path clip-path="url(#SVGID_2_)" fill="#010101" d="M9.782,34.062H5.375C2.411,34.062,0,31.649,0,28.686
		c0-2.963,2.411-5.374,5.375-5.374h4.407c2.964,0,5.375,2.411,5.375,5.374C15.157,31.649,12.746,34.062,9.782,34.062 M5.375,26.312
		C4.065,26.312,3,27.377,3,28.686c0,1.311,1.065,2.376,2.375,2.376h4.407c1.31,0,2.375-1.065,2.375-2.376
		c0-1.308-1.065-2.374-2.375-2.374H5.375z"/>
	<path clip-path="url(#SVGID_2_)" fill="#010101" d="M22.825,38.006h-3c0-3.268-4.978-7.7-6.186-7.821l0.018-2.999
		C16.61,27.186,22.825,33.247,22.825,38.006"/>
	<path clip-path="url(#SVGID_2_)" fill="#B3B4B4" d="M34.935,50.877c0,3.302-2.678,5.979-5.979,5.979
		c-3.302,0-5.98-2.678-5.98-5.979s2.678-5.98,5.98-5.98C32.257,44.897,34.935,47.575,34.935,50.877"/>
	<path clip-path="url(#SVGID_2_)" fill="#B3B4B4" d="M28.956,58.356c-4.125,0-7.48-3.354-7.48-7.479c0-4.125,3.355-7.48,7.48-7.48
		c4.124,0,7.479,3.355,7.479,7.48C36.435,55.002,33.08,58.356,28.956,58.356 M28.956,46.397c-2.471,0-4.48,2.01-4.48,4.48
		c0,2.469,2.009,4.479,4.48,4.479c2.47,0,4.479-2.01,4.479-4.479C33.435,48.407,31.426,46.397,28.956,46.397"/>
	<path clip-path="url(#SVGID_2_)" fill="#B3B4B4" d="M101.583,50.877c0,3.302-2.678,5.979-5.979,5.979s-5.979-2.678-5.979-5.979
		s2.677-5.98,5.979-5.98S101.583,47.575,101.583,50.877"/>
	<path clip-path="url(#SVGID_2_)" fill="#B3B4B4" d="M95.604,58.356c-4.124,0-7.479-3.354-7.479-7.479
		c0-4.125,3.354-7.48,7.479-7.48s7.479,3.355,7.479,7.48C103.084,55.002,99.729,58.356,95.604,58.356 M95.604,46.397
		c-2.47,0-4.479,2.01-4.479,4.48c0,2.469,2.009,4.479,4.479,4.479s4.479-2.01,4.479-4.479
		C100.084,48.407,98.074,46.397,95.604,46.397"/>
	<path clip-path="url(#SVGID_2_)" fill="#B3B4B4" d="M45.09,63.749H11.758c-2.476,0-4.484,2.008-4.484,4.484
		s2.008,4.483,4.484,4.483H45.09V63.749z"/>
	<path clip-path="url(#SVGID_2_)" fill="#B3B4B4" d="M45.09,74.217H11.758c-3.3,0-5.984-2.685-5.984-5.983
		c0-3.3,2.684-5.984,5.984-5.984H45.09c0.828,0,1.5,0.672,1.5,1.5v8.968C46.59,73.545,45.918,74.217,45.09,74.217 M11.758,65.249
		c-1.645,0-2.984,1.339-2.984,2.984s1.339,2.983,2.984,2.983H43.59v-5.968H11.758z"/>
	<path clip-path="url(#SVGID_2_)" fill="#B3B4B4" d="M113.1,63.749H79.768v8.968H113.1c2.477,0,4.484-2.007,4.484-4.483
		S115.576,63.749,113.1,63.749"/>
	<path clip-path="url(#SVGID_2_)" fill="#B3B4B4" d="M113.1,74.217H79.768c-0.828,0-1.5-0.672-1.5-1.5v-8.968
		c0-0.828,0.672-1.5,1.5-1.5H113.1c3.3,0,5.984,2.685,5.984,5.984C119.084,71.532,116.399,74.217,113.1,74.217 M81.268,71.217H113.1
		c1.645,0,2.984-1.338,2.984-2.983s-1.34-2.984-2.984-2.984H81.268V71.217z"/>
	<path clip-path="url(#SVGID_2_)" fill="#010101" d="M79.768,76.907H45.09c-0.828,0-1.5-0.672-1.5-1.5V61.636
		c0-0.828,0.672-1.5,1.5-1.5h34.678c0.828,0,1.5,0.672,1.5,1.5v13.771C81.268,76.235,80.596,76.907,79.768,76.907 M46.59,73.907
		h31.678V63.136H46.59V73.907z"/>
	<rect x="48.403" y="49.377" clip-path="url(#SVGID_2_)" fill="#010101" width="28.051" height="3"/>
	<path clip-path="url(#SVGID_2_)" fill="#010101" d="M103.532,39.506H21.325c-0.828,0-1.5-0.672-1.5-1.5V26.619
		C19.825,11.942,31.766,0,46.444,0h31.969c14.678,0,26.619,11.942,26.619,26.619v11.387
		C105.032,38.834,104.36,39.506,103.532,39.506 M22.825,36.506h79.207v-9.887C102.032,13.596,91.437,3,78.413,3H46.444
		C33.421,3,22.825,13.596,22.825,26.619V36.506z"/>
	<rect x="53.581" y="7" clip-path="url(#SVGID_2_)" fill="#010101" width="4.098" height="3"/>
	<path clip-path="url(#SVGID_2_)" fill="#010101" d="M29.825,26.619h-3C26.825,15.801,35.626,7,46.444,7h4.61v3h-4.61
		C37.28,10,29.825,17.455,29.825,26.619"/>
	<path clip-path="url(#SVGID_2_)" fill="#010101" d="M92.604,39.506H66.253c-0.828,0-1.5-0.672-1.5-1.5
		c0-8.092,6.584-14.675,14.676-14.675s14.676,6.583,14.676,14.675C94.104,38.834,93.433,39.506,92.604,39.506 M67.849,36.506h23.16
		c-0.738-5.731-5.65-10.175-11.58-10.175S68.587,30.775,67.849,36.506"/>
</g>
</svg>
