<?xml version="1.0" encoding="utf-8"?>
<!-- Generator: Adobe Illustrator 13.0.0, SVG Export Plug-In  -->
<!DOCTYPE svg PUBLIC "-//W3C//DTD SVG 1.1//EN" "http://www.w3.org/Graphics/SVG/1.1/DTD/svg11.dtd" [
	<!ENTITY ns_flows "http://ns.adobe.com/Flows/1.0/">
]>
<svg version="1.1"
	 xmlns="http://www.w3.org/2000/svg" xmlns:xlink="http://www.w3.org/1999/xlink" xmlns:a="http://ns.adobe.com/AdobeSVGViewerExtensions/3.0/"
	 x="0px" y="0px" width="108px" height="117px" viewBox="6 1.563 108 117" enable-background="new 6 1.563 108 117"
	 xml:space="preserve">
<defs>
</defs>
<rect x="75.36" y="111.329" display="none" fill="#B3B3B3" width="18.53" height="7.734"/>
<rect x="73.806" y="109.118" display="none" fill="#B3B3B3" width="21.639" height="2.603"/>
<polygon display="none" fill="#B3B3B3" points="64.473,50.227 64.473,44.137 79.651,44.137 79.651,7.321 32.084,7.321 
	32.084,19.927 57.228,19.927 57.228,27.247 53.688,27.247 53.688,119.063 67.416,119.063 67.416,50.227 "/>
<rect x="30.232" display="none" fill="#B3B3B3" width="51.274" height="7.32"/>
<g display="none">
	<defs>
		<rect id="SVGID_2_" width="117.445" height="120.563"/>
	</defs>
	<clipPath id="SVGID_3_" display="inline">
		<use xlink:href="#SVGID_2_"  display="none" overflow="visible"/>
	</clipPath>
	<path clip-path="url(#SVGID_3_)" d="M101.835,120.563H67.416c-0.828,0-1.5-0.672-1.5-1.5V50.227c0-0.828,0.672-1.5,1.5-1.5h34.419
		c0.828,0,1.5,0.672,1.5,1.5v68.836C103.335,119.891,102.663,120.563,101.835,120.563 M68.916,117.563h31.419V51.727H68.916V117.563
		z"/>
	<path clip-path="url(#SVGID_3_)" d="M104.779,51.727H64.473c-0.828,0-1.5-0.672-1.5-1.5v-6.09c0-0.828,0.672-1.5,1.5-1.5h40.307
		c0.828,0,1.5,0.672,1.5,1.5v6.09C106.279,51.055,105.607,51.727,104.779,51.727 M65.973,48.727h37.308v-3.09H65.973V48.727z"/>
	<path clip-path="url(#SVGID_3_)" d="M53.688,120.563H12.307c-0.828,0-1.5-0.672-1.5-1.5V27.247c0-0.829,0.672-1.5,1.5-1.5h41.381
		c0.828,0,1.5,0.671,1.5,1.5v91.816C55.188,119.891,54.516,120.563,53.688,120.563 M13.807,117.563h38.381V28.747H13.807V117.563z"
		/>
	<path clip-path="url(#SVGID_3_)" d="M57.228,28.747H8.769c-0.829,0-1.5-0.672-1.5-1.5v-7.32c0-0.828,0.671-1.5,1.5-1.5h48.459
		c0.828,0,1.5,0.672,1.5,1.5v7.32C58.728,28.075,58.056,28.747,57.228,28.747 M10.269,25.747h45.459v-4.319H10.269V25.747z"/>
	<rect x="72.699" y="56.34" clip-path="url(#SVGID_3_)" fill="#B3B3B3" width="6.241" height="5.67"/>
	<rect x="81.506" y="56.34" clip-path="url(#SVGID_3_)" fill="#B3B3B3" width="6.24" height="5.67"/>
	<rect x="90.311" y="56.34" clip-path="url(#SVGID_3_)" fill="#B3B3B3" width="6.24" height="5.67"/>
	<rect x="72.699" y="66.969" clip-path="url(#SVGID_3_)" fill="#B3B3B3" width="6.241" height="5.67"/>
	<rect x="81.506" y="66.969" clip-path="url(#SVGID_3_)" fill="#B3B3B3" width="6.24" height="5.67"/>
	<rect x="90.311" y="66.969" clip-path="url(#SVGID_3_)" fill="#B3B3B3" width="6.24" height="5.67"/>
	<rect x="72.699" y="77.597" clip-path="url(#SVGID_3_)" fill="#B3B3B3" width="6.241" height="5.67"/>
	<rect x="81.506" y="77.597" clip-path="url(#SVGID_3_)" fill="#B3B3B3" width="6.24" height="5.67"/>
	<rect x="90.311" y="77.597" clip-path="url(#SVGID_3_)" fill="#B3B3B3" width="6.24" height="5.67"/>
	<rect x="72.699" y="88.226" clip-path="url(#SVGID_3_)" fill="#B3B3B3" width="6.241" height="5.67"/>
	<rect x="81.506" y="88.226" clip-path="url(#SVGID_3_)" fill="#B3B3B3" width="6.24" height="5.67"/>
	<rect x="90.311" y="88.226" clip-path="url(#SVGID_3_)" fill="#B3B3B3" width="6.24" height="5.67"/>
	<rect x="72.699" y="97.895" clip-path="url(#SVGID_3_)" fill="#B3B3B3" width="6.241" height="5.67"/>
	<rect x="81.506" y="97.895" clip-path="url(#SVGID_3_)" fill="#B3B3B3" width="6.24" height="5.67"/>
	<rect x="90.311" y="97.895" clip-path="url(#SVGID_3_)" fill="#B3B3B3" width="6.24" height="5.67"/>
	<path clip-path="url(#SVGID_3_)" d="M39.565,44.046H12.307c-0.828,0-1.5-0.672-1.5-1.5v-7.24c0-0.828,0.672-1.5,1.5-1.5h27.258
		c0.829,0,1.5,0.672,1.5,1.5v7.24C41.065,43.374,40.394,44.046,39.565,44.046 M13.807,41.046h24.259v-4.24H13.807V41.046z"/>
	<path clip-path="url(#SVGID_3_)" d="M39.565,58.931H12.307c-0.828,0-1.5-0.672-1.5-1.5V50.19c0-0.828,0.672-1.5,1.5-1.5h27.258
		c0.829,0,1.5,0.672,1.5,1.5v7.241C41.065,58.259,40.394,58.931,39.565,58.931 M13.807,55.931h24.259V51.69H13.807V55.931z"/>
	<path clip-path="url(#SVGID_3_)" d="M39.565,73.814H12.307c-0.828,0-1.5-0.672-1.5-1.5v-7.24c0-0.828,0.672-1.5,1.5-1.5h27.258
		c0.829,0,1.5,0.672,1.5,1.5v7.24C41.065,73.142,40.394,73.814,39.565,73.814 M13.807,70.814h24.259v-4.24H13.807V70.814z"/>
	<path clip-path="url(#SVGID_3_)" d="M39.565,88.697H12.307c-0.828,0-1.5-0.672-1.5-1.5v-7.241c0-0.827,0.672-1.5,1.5-1.5h27.258
		c0.829,0,1.5,0.673,1.5,1.5v7.241C41.065,88.025,40.394,88.697,39.565,88.697 M13.807,85.697h24.259v-4.24H13.807V85.697z"/>
	<path clip-path="url(#SVGID_3_)" d="M39.565,103.581H12.307c-0.828,0-1.5-0.672-1.5-1.5v-7.24c0-0.828,0.672-1.5,1.5-1.5h27.258
		c0.829,0,1.5,0.672,1.5,1.5v7.24C41.065,102.909,40.394,103.581,39.565,103.581 M13.807,100.581h24.259v-4.239H13.807V100.581z"/>
	<path clip-path="url(#SVGID_3_)" d="M53.688,44.046h-7.254c-0.829,0-1.5-0.672-1.5-1.5v-7.24c0-0.828,0.671-1.5,1.5-1.5h7.254
		c0.828,0,1.5,0.672,1.5,1.5v7.24C55.188,43.374,54.516,44.046,53.688,44.046 M47.934,41.046h4.254v-4.24h-4.254V41.046z"/>
	<path clip-path="url(#SVGID_3_)" d="M53.688,58.931h-7.254c-0.829,0-1.5-0.672-1.5-1.5V50.19c0-0.828,0.671-1.5,1.5-1.5h7.254
		c0.828,0,1.5,0.672,1.5,1.5v7.241C55.188,58.259,54.516,58.931,53.688,58.931 M47.934,55.931h4.254V51.69h-4.254V55.931z"/>
	<path clip-path="url(#SVGID_3_)" d="M53.688,73.814h-7.254c-0.829,0-1.5-0.672-1.5-1.5v-7.24c0-0.828,0.671-1.5,1.5-1.5h7.254
		c0.828,0,1.5,0.672,1.5,1.5v7.24C55.188,73.142,54.516,73.814,53.688,73.814 M47.934,70.814h4.254v-4.24h-4.254V70.814z"/>
	<path clip-path="url(#SVGID_3_)" d="M53.688,88.697h-7.254c-0.829,0-1.5-0.672-1.5-1.5v-7.241c0-0.827,0.671-1.5,1.5-1.5h7.254
		c0.828,0,1.5,0.673,1.5,1.5v7.241C55.188,88.025,54.516,88.697,53.688,88.697 M47.934,85.697h4.254v-4.24h-4.254V85.697z"/>
	<path clip-path="url(#SVGID_3_)" d="M53.688,103.581h-7.254c-0.829,0-1.5-0.672-1.5-1.5v-7.24c0-0.828,0.671-1.5,1.5-1.5h7.254
		c0.828,0,1.5,0.672,1.5,1.5v7.24C55.188,102.909,54.516,103.581,53.688,103.581 M47.934,100.581h4.254v-4.239h-4.254V100.581z"/>
	<rect y="117.563" clip-path="url(#SVGID_3_)" width="117.445" height="3"/>
	<path clip-path="url(#SVGID_3_)" d="M43.927,120.563H22.291c-0.828,0-1.5-0.672-1.5-1.5v-9.945c0-0.828,0.672-1.5,1.5-1.5h21.636
		c0.828,0,1.5,0.672,1.5,1.5v9.945C45.427,119.891,44.755,120.563,43.927,120.563 M23.791,117.563h18.636v-6.945H23.791V117.563z"/>
</g>
<g>
	<defs>
		<rect id="SVGID_1_" x="6.559" y="2.179" width="106.661" height="115.822"/>
	</defs>
	<clipPath id="SVGID_4_">
		<use xlink:href="#SVGID_1_"  overflow="visible"/>
	</clipPath>
	<path clip-path="url(#SVGID_4_)" d="M90.979,65.138c-7.532,0-13.661-6.127-13.661-13.659V41.044c0-0.904,0.732-1.636,1.637-1.636
		h24.047c0.904,0,1.637,0.732,1.637,1.636v10.435C104.639,59.011,98.511,65.138,90.979,65.138 M80.591,42.68v8.799
		c0,5.727,4.661,10.387,10.389,10.387c5.727,0,10.387-4.66,10.387-10.387V42.68H80.591z"/>
	<rect x="78.956" y="46.306" clip-path="url(#SVGID_4_)" width="16.297" height="3.272"/>
	<path clip-path="url(#SVGID_4_)" d="M100.128,106.047H75.242v-3.272h24.886c5.415,0,9.819-4.406,9.819-9.82V5.452H9.832v87.502
		c0,5.414,4.405,9.82,9.82,9.82h24.727v3.272H19.652c-7.219,0-13.092-5.874-13.092-13.093V3.816c0-0.904,0.732-1.636,1.636-1.636
		h103.388c0.904,0,1.636,0.732,1.636,1.636v89.139C113.22,100.173,107.348,106.047,100.128,106.047"/>
	<polygon clip-path="url(#SVGID_4_)" fill="#B3B3B3" points="51.424,32.861 43.04,18.339 51.424,3.816 68.195,3.816 76.58,18.339 
		68.195,32.861 	"/>
	<path clip-path="url(#SVGID_4_)" fill="#B3B3B3" d="M68.195,34.498H51.424c-0.584,0-1.125-0.312-1.417-0.818l-8.384-14.522
		c-0.292-0.507-0.292-1.13,0-1.636l8.384-14.523C50.3,2.492,50.84,2.18,51.424,2.18h16.771c0.585,0,1.125,0.312,1.417,0.818
		l8.385,14.523c0.291,0.506,0.291,1.129,0,1.636L69.612,33.68C69.32,34.186,68.78,34.498,68.195,34.498 M52.369,31.225h14.883
		l7.438-12.886L67.252,5.452H52.369L44.93,18.339L52.369,31.225z"/>
	<polygon clip-path="url(#SVGID_4_)" fill="#B3B3B3" points="68.323,32.861 76.503,103.433 59.81,116.365 43.118,103.433 
		51.292,32.861 	"/>
	<path clip-path="url(#SVGID_4_)" fill="#B3B3B3" d="M59.81,118.001c-0.354,0-0.707-0.113-1.003-0.343l-16.691-12.933
		c-0.453-0.352-0.69-0.912-0.625-1.482l8.176-70.57c0.095-0.826,0.794-1.449,1.625-1.449h17.031c0.831,0,1.53,0.623,1.626,1.447
		l8.179,70.571c0.065,0.57-0.17,1.131-0.623,1.482l-16.693,12.933C60.517,117.888,60.163,118.001,59.81,118.001 M44.849,102.705
		l14.961,11.592l14.962-11.592l-7.905-68.207H52.749L44.849,102.705z"/>
	<path clip-path="url(#SVGID_4_)" d="M83.787,31.569c-0.077,0-0.153-0.005-0.23-0.016c-0.492-0.07-0.926-0.36-1.178-0.788
		L66.943,4.648c-0.298-0.506-0.302-1.132-0.012-1.644c0.291-0.509,0.834-0.825,1.422-0.825h43.23c0.671,0,1.274,0.41,1.521,1.034
		s0.088,1.335-0.401,1.794L84.907,31.125C84.602,31.412,84.2,31.569,83.787,31.569 M71.221,5.452l12.936,21.89l23.298-21.89H71.221z
		 M35.99,31.569c-0.413,0-0.814-0.157-1.121-0.444L7.075,5.008c-0.488-0.459-0.647-1.17-0.4-1.794
		c0.247-0.624,0.85-1.034,1.521-1.034h43.229c0.587,0,1.129,0.315,1.421,0.825c0.292,0.512,0.288,1.138-0.012,1.644L37.398,30.766
		c-0.253,0.428-0.686,0.718-1.177,0.788C36.143,31.564,36.067,31.569,35.99,31.569 M12.326,5.452l23.294,21.89l12.935-21.89H12.326z
		"/>
	<rect x="51.423" y="2.179" clip-path="url(#SVGID_4_)" width="16.931" height="3.272"/>
	<rect x="51.292" y="31.225" clip-path="url(#SVGID_4_)" width="17.031" height="3.272"/>
</g>
</svg>
