<?xml version="1.0" encoding="utf-8"?>
<!-- Generator: Adobe Illustrator 13.0.0, SVG Export Plug-In  -->
<!DOCTYPE svg PUBLIC "-//W3C//DTD SVG 1.1//EN" "http://www.w3.org/Graphics/SVG/1.1/DTD/svg11.dtd" [
	<!ENTITY ns_flows "http://ns.adobe.com/Flows/1.0/">
]>
<svg version="1.1"
	 xmlns="http://www.w3.org/2000/svg" xmlns:xlink="http://www.w3.org/1999/xlink" xmlns:a="http://ns.adobe.com/AdobeSVGViewerExtensions/3.0/"
	 x="0px" y="0px" width="118px" height="121px" viewBox="0 -0.437 118 121" enable-background="new 0 -0.437 118 121"
	 xml:space="preserve">
<defs>
</defs>
<rect x="75.36" y="111.329" fill="#B3B3B3" width="18.53" height="7.734"/>
<rect x="73.806" y="109.118" fill="#B3B3B3" width="21.639" height="2.603"/>
<polygon fill="#B3B3B3" points="64.473,50.227 64.473,44.137 79.651,44.137 79.651,7.321 32.084,7.321 32.084,19.927 57.228,19.927 
	57.228,27.247 53.688,27.247 53.688,119.063 67.416,119.063 67.416,50.227 "/>
<rect x="30.232" fill="#B3B3B3" width="51.274" height="7.32"/>
<g>
	<defs>
		<rect id="SVGID_1_" width="117.445" height="120.563"/>
	</defs>
	<clipPath id="SVGID_2_">
		<use xlink:href="#SVGID_1_"  overflow="visible"/>
	</clipPath>
	<path clip-path="url(#SVGID_2_)" d="M101.835,120.563H67.416c-0.828,0-1.5-0.672-1.5-1.5V50.227c0-0.828,0.672-1.5,1.5-1.5h34.419
		c0.828,0,1.5,0.672,1.5,1.5v68.836C103.335,119.891,102.663,120.563,101.835,120.563 M68.916,117.563h31.419V51.727H68.916V117.563
		z"/>
	<path clip-path="url(#SVGID_2_)" d="M104.779,51.727H64.473c-0.828,0-1.5-0.672-1.5-1.5v-6.09c0-0.828,0.672-1.5,1.5-1.5h40.307
		c0.828,0,1.5,0.672,1.5,1.5v6.09C106.279,51.055,105.607,51.727,104.779,51.727 M65.973,48.727h37.308v-3.09H65.973V48.727z"/>
	<path clip-path="url(#SVGID_2_)" d="M53.688,120.563H12.307c-0.828,0-1.5-0.672-1.5-1.5V27.247c0-0.829,0.672-1.5,1.5-1.5h41.381
		c0.828,0,1.5,0.671,1.5,1.5v91.816C55.188,119.891,54.516,120.563,53.688,120.563 M13.807,117.563h38.381V28.747H13.807V117.563z"
		/>
	<path clip-path="url(#SVGID_2_)" d="M57.228,28.747H8.769c-0.829,0-1.5-0.672-1.5-1.5v-7.32c0-0.828,0.671-1.5,1.5-1.5h48.459
		c0.828,0,1.5,0.672,1.5,1.5v7.32C58.728,28.075,58.056,28.747,57.228,28.747 M10.269,25.747h45.459v-4.319H10.269V25.747z"/>
	<rect x="72.699" y="56.34" clip-path="url(#SVGID_2_)" fill="#B3B3B3" width="6.241" height="5.67"/>
	<rect x="81.506" y="56.34" clip-path="url(#SVGID_2_)" fill="#B3B3B3" width="6.24" height="5.67"/>
	<rect x="90.311" y="56.34" clip-path="url(#SVGID_2_)" fill="#B3B3B3" width="6.24" height="5.67"/>
	<rect x="72.699" y="66.969" clip-path="url(#SVGID_2_)" fill="#B3B3B3" width="6.241" height="5.67"/>
	<rect x="81.506" y="66.969" clip-path="url(#SVGID_2_)" fill="#B3B3B3" width="6.24" height="5.67"/>
	<rect x="90.311" y="66.969" clip-path="url(#SVGID_2_)" fill="#B3B3B3" width="6.24" height="5.67"/>
	<rect x="72.699" y="77.597" clip-path="url(#SVGID_2_)" fill="#B3B3B3" width="6.241" height="5.67"/>
	<rect x="81.506" y="77.597" clip-path="url(#SVGID_2_)" fill="#B3B3B3" width="6.24" height="5.67"/>
	<rect x="90.311" y="77.597" clip-path="url(#SVGID_2_)" fill="#B3B3B3" width="6.24" height="5.67"/>
	<rect x="72.699" y="88.226" clip-path="url(#SVGID_2_)" fill="#B3B3B3" width="6.241" height="5.67"/>
	<rect x="81.506" y="88.226" clip-path="url(#SVGID_2_)" fill="#B3B3B3" width="6.24" height="5.67"/>
	<rect x="90.311" y="88.226" clip-path="url(#SVGID_2_)" fill="#B3B3B3" width="6.24" height="5.67"/>
	<rect x="72.699" y="97.895" clip-path="url(#SVGID_2_)" fill="#B3B3B3" width="6.241" height="5.67"/>
	<rect x="81.506" y="97.895" clip-path="url(#SVGID_2_)" fill="#B3B3B3" width="6.24" height="5.67"/>
	<rect x="90.311" y="97.895" clip-path="url(#SVGID_2_)" fill="#B3B3B3" width="6.24" height="5.67"/>
	<path clip-path="url(#SVGID_2_)" d="M39.565,44.046H12.307c-0.828,0-1.5-0.672-1.5-1.5v-7.24c0-0.828,0.672-1.5,1.5-1.5h27.258
		c0.829,0,1.5,0.672,1.5,1.5v7.24C41.065,43.374,40.394,44.046,39.565,44.046 M13.807,41.046h24.259v-4.24H13.807V41.046z"/>
	<path clip-path="url(#SVGID_2_)" d="M39.565,58.931H12.307c-0.828,0-1.5-0.672-1.5-1.5V50.19c0-0.828,0.672-1.5,1.5-1.5h27.258
		c0.829,0,1.5,0.672,1.5,1.5v7.241C41.065,58.259,40.394,58.931,39.565,58.931 M13.807,55.931h24.259V51.69H13.807V55.931z"/>
	<path clip-path="url(#SVGID_2_)" d="M39.565,73.814H12.307c-0.828,0-1.5-0.672-1.5-1.5v-7.24c0-0.828,0.672-1.5,1.5-1.5h27.258
		c0.829,0,1.5,0.672,1.5,1.5v7.24C41.065,73.142,40.394,73.814,39.565,73.814 M13.807,70.814h24.259v-4.24H13.807V70.814z"/>
	<path clip-path="url(#SVGID_2_)" d="M39.565,88.697H12.307c-0.828,0-1.5-0.672-1.5-1.5v-7.241c0-0.827,0.672-1.5,1.5-1.5h27.258
		c0.829,0,1.5,0.673,1.5,1.5v7.241C41.065,88.025,40.394,88.697,39.565,88.697 M13.807,85.697h24.259v-4.24H13.807V85.697z"/>
	<path clip-path="url(#SVGID_2_)" d="M39.565,103.581H12.307c-0.828,0-1.5-0.672-1.5-1.5v-7.24c0-0.828,0.672-1.5,1.5-1.5h27.258
		c0.829,0,1.5,0.672,1.5,1.5v7.24C41.065,102.909,40.394,103.581,39.565,103.581 M13.807,100.581h24.259v-4.239H13.807V100.581z"/>
	<path clip-path="url(#SVGID_2_)" d="M53.688,44.046h-7.254c-0.829,0-1.5-0.672-1.5-1.5v-7.24c0-0.828,0.671-1.5,1.5-1.5h7.254
		c0.828,0,1.5,0.672,1.5,1.5v7.24C55.188,43.374,54.516,44.046,53.688,44.046 M47.934,41.046h4.254v-4.24h-4.254V41.046z"/>
	<path clip-path="url(#SVGID_2_)" d="M53.688,58.931h-7.254c-0.829,0-1.5-0.672-1.5-1.5V50.19c0-0.828,0.671-1.5,1.5-1.5h7.254
		c0.828,0,1.5,0.672,1.5,1.5v7.241C55.188,58.259,54.516,58.931,53.688,58.931 M47.934,55.931h4.254V51.69h-4.254V55.931z"/>
	<path clip-path="url(#SVGID_2_)" d="M53.688,73.814h-7.254c-0.829,0-1.5-0.672-1.5-1.5v-7.24c0-0.828,0.671-1.5,1.5-1.5h7.254
		c0.828,0,1.5,0.672,1.5,1.5v7.24C55.188,73.142,54.516,73.814,53.688,73.814 M47.934,70.814h4.254v-4.24h-4.254V70.814z"/>
	<path clip-path="url(#SVGID_2_)" d="M53.688,88.697h-7.254c-0.829,0-1.5-0.672-1.5-1.5v-7.241c0-0.827,0.671-1.5,1.5-1.5h7.254
		c0.828,0,1.5,0.673,1.5,1.5v7.241C55.188,88.025,54.516,88.697,53.688,88.697 M47.934,85.697h4.254v-4.24h-4.254V85.697z"/>
	<path clip-path="url(#SVGID_2_)" d="M53.688,103.581h-7.254c-0.829,0-1.5-0.672-1.5-1.5v-7.24c0-0.828,0.671-1.5,1.5-1.5h7.254
		c0.828,0,1.5,0.672,1.5,1.5v7.24C55.188,102.909,54.516,103.581,53.688,103.581 M47.934,100.581h4.254v-4.239h-4.254V100.581z"/>
	<rect y="117.563" clip-path="url(#SVGID_2_)" width="117.445" height="3"/>
	<path clip-path="url(#SVGID_2_)" d="M43.927,120.563H22.291c-0.828,0-1.5-0.672-1.5-1.5v-9.945c0-0.828,0.672-1.5,1.5-1.5h21.636
		c0.828,0,1.5,0.672,1.5,1.5v9.945C45.427,119.891,44.755,120.563,43.927,120.563 M23.791,117.563h18.636v-6.945H23.791V117.563z"/>
</g>
</svg>
