<?xml version="1.0" encoding="utf-8"?>
<!-- Generator: Adobe Illustrator 13.0.0, SVG Export Plug-In  -->
<!DOCTYPE svg PUBLIC "-//W3C//DTD SVG 1.1//EN" "http://www.w3.org/Graphics/SVG/1.1/DTD/svg11.dtd" [
	<!ENTITY ns_flows "http://ns.adobe.com/Flows/1.0/">
]>
<svg version="1.1"
	 xmlns="http://www.w3.org/2000/svg" xmlns:xlink="http://www.w3.org/1999/xlink" xmlns:a="http://ns.adobe.com/AdobeSVGViewerExtensions/3.0/"
	 x="0px" y="0px" width="109px" height="109px" viewBox="0 0 109 109" enable-background="new 0 0 109 109" xml:space="preserve">
<defs>
</defs>
<path display="none" fill="#B3B3B3" d="M81.814,23.536l7.677-8.565C80.146,6.596,67.811,1.5,54.277,1.5V13
	C64.859,13,74.512,16.987,81.814,23.536"/>
<path display="none" fill="#B3B3B3" d="M81.814,25.037c-0.366,0-0.726-0.136-1-0.384C73.512,18.105,64.086,14.5,54.277,14.5
	c-0.828,0-1.5-0.672-1.5-1.5V1.5c0-0.829,0.672-1.5,1.5-1.5c13.386,0,26.249,4.92,36.214,13.855c0.616,0.553,0.67,1.501,0.116,2.118
	l-7.676,8.565c-0.265,0.296-0.638,0.475-1.035,0.496C81.871,25.036,81.843,25.037,81.814,25.037 M55.775,11.526
	c9.511,0.331,18.604,3.812,25.906,9.912l5.676-6.333C78.491,7.61,67.381,3.359,55.775,3.022V11.526z"/>
<path display="none" fill="#B3B3B3" d="M14.501,88.941l8.668-7.555c-3.764-4.313-6.639-9.42-8.357-15.031L3.63,69.122
	C5.805,76.534,9.555,83.271,14.501,88.941"/>
<path display="none" fill="#B3B3B3" d="M14.503,90.441c-0.419,0-0.835-0.174-1.132-0.514c-5.199-5.962-8.961-12.82-11.18-20.384
	c-0.115-0.394-0.064-0.815,0.139-1.17c0.204-0.354,0.544-0.61,0.94-0.709L14.452,64.9c0.776-0.191,1.561,0.254,1.795,1.016
	c1.644,5.371,4.354,10.245,8.053,14.484c0.261,0.301,0.393,0.69,0.366,1.09c-0.026,0.396-0.211,0.766-0.511,1.027l-8.668,7.556
	C15.203,90.32,14.852,90.441,14.503,90.441 M5.533,70.197c1.984,6.08,5.049,11.658,9.13,16.615l6.409-5.588
	c-3.186-3.916-5.621-8.305-7.256-13.078L5.533,70.197z"/>
<path display="none" fill="#B3B3B3" d="M93.38,67.505C88.984,80.493,78.305,90.583,64.954,94.15l2.976,11.107
	c17.385-4.645,31.229-17.941,36.646-34.994L93.38,67.505z"/>
<path display="none" fill="#B3B3B3" d="M67.93,106.759c-0.664,0-1.271-0.44-1.449-1.11l-2.975-11.109
	c-0.104-0.385-0.05-0.795,0.148-1.139c0.199-0.346,0.527-0.596,0.912-0.699c12.875-3.439,23.115-13.038,27.394-25.678
	c0.248-0.737,1.022-1.159,1.778-0.976l11.197,2.761c0.402,0.101,0.746,0.36,0.949,0.724c0.203,0.362,0.247,0.792,0.121,1.188
	c-5.551,17.471-19.992,31.26-37.691,35.987C68.188,106.743,68.057,106.759,67.93,106.759 M66.784,95.188l2.2,8.215
	c15.545-4.661,28.238-16.76,33.652-32.07l-8.299-2.046C89.667,81.766,79.514,91.309,66.784,95.188"/>
<path display="none" fill="#010101" d="M54.277,86.368c-15.062,0-27.315-12.251-27.315-27.312v-9.563
	c0-0.765,0.06-1.527,0.108-2.139c0.036-0.445,0.266-0.85,0.63-1.108c0.366-0.257,0.825-0.34,1.256-0.222
	c11.708,3.153,23.547-2.82,28.378-13.32c0.244-0.532,0.775-0.873,1.361-0.873s1.119,0.341,1.363,0.873
	c3.668,7.974,11.366,13.367,20.092,14.074c0.752,0.061,1.342,0.672,1.375,1.426l0.024,0.404c0.021,0.293,0.039,0.587,0.039,0.885
	v9.563C81.591,74.117,69.337,86.368,54.277,86.368 M29.963,49.343c-0.001,0.051-0.001,0.102-0.001,0.152v9.563
	c0,13.404,10.907,24.311,24.315,24.311c13.407,0,24.313-10.905,24.313-24.311v-9.428c-8.291-1.082-15.627-5.936-19.895-13.084
	C52.919,46.217,41.505,51.674,29.963,49.343"/>
<path display="none" fill="#010101" d="M80.029,49.774c-0.039,0-0.08-0.001-0.12-0.005c-9.806-0.794-18.454-6.852-22.575-15.809
	c-0.184-0.398-0.184-0.857,0-1.255c1.197-2.598,1.917-5.368,2.143-8.233c0.032-0.444,0.265-0.851,0.629-1.108
	c0.362-0.258,0.826-0.337,1.254-0.224c11.507,3.085,19.611,13.158,20.17,25.064c0.02,0.431-0.146,0.849-0.455,1.149
	C80.791,49.624,80.417,49.774,80.029,49.774 M60.35,33.312c3.51,7.107,10.268,12.049,18.034,13.259
	c-1.103-9.235-7.34-16.979-16.125-20.018C61.917,28.882,61.277,31.146,60.35,33.312"/>
<path display="none" fill="#010101" d="M35.256,49.881c-2.337,0-4.718-0.323-7.081-0.959c-0.696-0.188-1.161-0.845-1.104-1.565
	c1.095-14.116,13.045-25.174,27.206-25.174c0.803,0,1.573,0.057,2.228,0.11c1.601,0.129,3.231,0.414,4.853,0.847
	c0.699,0.186,1.166,0.845,1.107,1.565c-0.251,3.22-1.061,6.333-2.404,9.255C55.609,43.631,45.875,49.881,35.256,49.881
	 M30.193,46.326c11.314,2.455,22.48-3.489,27.142-13.62c1.021-2.214,1.69-4.552,2.007-6.966c-1.031-0.222-2.063-0.375-3.078-0.457
	c-0.6-0.049-1.297-0.1-1.987-0.1C42.098,25.184,31.756,34.372,30.193,46.326"/>
<rect x="41.236" y="54.612" display="none" fill="#010101" width="7.926" height="3"/>
<rect x="59.956" y="54.612" display="none" fill="#010101" width="7.925" height="3"/>
<path display="none" fill="#010101" d="M54.18,73.973h-0.012c-2.034,0-4.034-0.559-5.782-1.611l1.551-2.569
	c1.279,0.772,2.744,1.181,4.233,1.181h0.008c2.368,0,4.613-1.027,6.167-2.822l2.268,1.964C60.488,72.564,57.416,73.973,54.18,73.973
	"/>
<path display="none" fill="#010101" d="M54.277,108.552c-15.67,0-30.58-6.786-40.906-18.622l-0.987-1.132l10.93-9.524l0.985,1.129
	c7.567,8.676,18.494,13.649,29.978,13.649c3.469,0,6.933-0.454,10.292-1.351l1.447-0.389l3.75,14.01l-1.449,0.386
	C63.73,107.934,59.007,108.552,54.277,108.552 M16.635,89.073c9.705,10.491,23.338,16.479,37.642,16.479
	c3.97,0,7.935-0.462,11.81-1.376l-2.2-8.216c-3.15,0.726-6.378,1.092-9.609,1.092c-11.851,0-23.149-4.926-31.233-13.563
	L16.635,89.073z"/>
<path display="none" fill="#010101" d="M2.595,70.924l-0.404-1.38C0.737,64.586,0,59.448,0,54.274C0,24.347,24.348,0,54.277,0h1.5
	v14.5h-1.5C32.343,14.5,14.5,32.343,14.5,54.274c0,3.945,0.587,7.862,1.747,11.644l0.463,1.516L2.595,70.924z M52.777,3.021
	C25.194,3.818,3,26.504,3,54.274c0,4.408,0.566,8.789,1.685,13.041l8.257-2.041c-0.958-3.59-1.442-7.282-1.442-11
	c0-23.083,18.381-41.956,41.277-42.75V3.021z"/>
<path display="none" fill="#010101" d="M105.581,72.059L91.436,68.57l0.523-1.547c1.391-4.105,2.094-8.396,2.094-12.749
	c0-11.284-4.824-22.08-13.238-29.621l-1.117-1.002l9.679-10.799l1.116,1.002c11.479,10.295,18.063,25.027,18.063,40.419
	c0,5.596-0.859,11.126-2.548,16.445L105.581,72.059z M95.294,66.432l8.261,2.036c1.327-4.608,2-9.377,2-14.193
	c0-14.041-5.802-27.501-15.964-37.167l-5.674,6.333c8.365,8.047,13.138,19.201,13.138,30.834
	C97.055,58.41,96.462,62.491,95.294,66.432"/>
<rect x="69.604" y="99.704" display="none" fill="#B3B3B3" width="16.266" height="6.788"/>
<rect x="68.239" y="97.764" display="none" fill="#B3B3B3" width="18.993" height="2.284"/>
<polygon display="none" fill="#B3B3B3" points="60.047,46.072 60.047,40.727 73.37,40.727 73.37,8.411 31.618,8.411 31.618,19.476 
	53.688,19.476 53.688,25.901 50.58,25.901 50.58,106.492 62.631,106.492 62.631,46.072 "/>
<rect x="29.992" y="1.985" display="none" fill="#B3B3B3" width="45.006" height="6.425"/>
<g display="none">
	<defs>
		<rect id="SVGID_2_" x="3.456" y="1.985" width="103.088" height="105.825"/>
	</defs>
	<clipPath id="SVGID_3_" display="inline">
		<use xlink:href="#SVGID_2_"  display="none" overflow="visible"/>
	</clipPath>
	<path clip-path="url(#SVGID_3_)" d="M92.842,107.81H62.631c-0.727,0-1.317-0.59-1.317-1.317v-60.42
		c0-0.727,0.591-1.317,1.317-1.317h30.211c0.728,0,1.317,0.59,1.317,1.317v60.42C94.159,107.22,93.569,107.81,92.842,107.81
		 M63.947,105.177h27.577V47.388H63.947V105.177z"/>
	<path clip-path="url(#SVGID_3_)" d="M95.426,47.388H60.047c-0.727,0-1.316-0.589-1.316-1.316v-5.345
		c0-0.727,0.59-1.317,1.316-1.317h35.379c0.728,0,1.316,0.59,1.316,1.317v5.345C96.742,46.799,96.153,47.388,95.426,47.388
		 M61.363,44.755H94.11v-2.712H61.363V44.755z"/>
	<path clip-path="url(#SVGID_3_)" d="M50.58,107.81H14.259c-0.727,0-1.317-0.59-1.317-1.317V25.901c0-0.728,0.59-1.317,1.317-1.317
		H50.58c0.727,0,1.317,0.589,1.317,1.317v80.591C51.897,107.22,51.307,107.81,50.58,107.81 M15.575,105.177h33.688V27.218H15.575
		V105.177z"/>
	<path clip-path="url(#SVGID_3_)" d="M53.688,27.218H11.153c-0.728,0-1.317-0.59-1.317-1.316v-6.426
		c0-0.727,0.589-1.317,1.317-1.317h42.535c0.727,0,1.317,0.59,1.317,1.317v6.426C55.006,26.628,54.415,27.218,53.688,27.218
		 M12.47,24.584h39.902v-3.791H12.47V24.584z"/>
	<rect x="67.269" y="51.438" clip-path="url(#SVGID_3_)" fill="#B3B3B3" width="5.479" height="4.976"/>
	<rect x="74.998" y="51.438" clip-path="url(#SVGID_3_)" fill="#B3B3B3" width="5.478" height="4.976"/>
	<rect x="82.727" y="51.438" clip-path="url(#SVGID_3_)" fill="#B3B3B3" width="5.477" height="4.976"/>
	<rect x="67.269" y="60.768" clip-path="url(#SVGID_3_)" fill="#B3B3B3" width="5.479" height="4.977"/>
	<rect x="74.998" y="60.768" clip-path="url(#SVGID_3_)" fill="#B3B3B3" width="5.478" height="4.977"/>
	<rect x="82.727" y="60.768" clip-path="url(#SVGID_3_)" fill="#B3B3B3" width="5.477" height="4.977"/>
	<rect x="67.269" y="70.096" clip-path="url(#SVGID_3_)" fill="#B3B3B3" width="5.479" height="4.978"/>
	<rect x="74.998" y="70.096" clip-path="url(#SVGID_3_)" fill="#B3B3B3" width="5.478" height="4.978"/>
	<rect x="82.727" y="70.096" clip-path="url(#SVGID_3_)" fill="#B3B3B3" width="5.477" height="4.978"/>
	<rect x="67.269" y="79.426" clip-path="url(#SVGID_3_)" fill="#B3B3B3" width="5.479" height="4.977"/>
	<rect x="74.998" y="79.426" clip-path="url(#SVGID_3_)" fill="#B3B3B3" width="5.478" height="4.977"/>
	<rect x="82.727" y="79.426" clip-path="url(#SVGID_3_)" fill="#B3B3B3" width="5.477" height="4.977"/>
	<rect x="67.269" y="87.912" clip-path="url(#SVGID_3_)" fill="#B3B3B3" width="5.479" height="4.977"/>
	<rect x="74.998" y="87.912" clip-path="url(#SVGID_3_)" fill="#B3B3B3" width="5.478" height="4.977"/>
	<rect x="82.727" y="87.912" clip-path="url(#SVGID_3_)" fill="#B3B3B3" width="5.477" height="4.977"/>
	<path clip-path="url(#SVGID_3_)" d="M38.184,40.646H14.259c-0.727,0-1.317-0.59-1.317-1.316v-6.355c0-0.727,0.59-1.316,1.317-1.316
		h23.925c0.728,0,1.316,0.59,1.316,1.316v6.355C39.5,40.056,38.912,40.646,38.184,40.646 M15.575,38.013h21.293v-3.722H15.575
		V38.013z"/>
	<path clip-path="url(#SVGID_3_)" d="M38.184,53.712H14.259c-0.727,0-1.317-0.59-1.317-1.317v-6.356c0-0.727,0.59-1.317,1.317-1.317
		h23.925c0.728,0,1.316,0.59,1.316,1.317v6.356C39.5,53.122,38.912,53.712,38.184,53.712 M15.575,51.078h21.293v-3.722H15.575
		V51.078z"/>
	<path clip-path="url(#SVGID_3_)" d="M38.184,66.775H14.259c-0.727,0-1.317-0.59-1.317-1.316v-6.355c0-0.728,0.59-1.316,1.317-1.316
		h23.925c0.728,0,1.316,0.589,1.316,1.316v6.355C39.5,66.186,38.912,66.775,38.184,66.775 M15.575,64.142h21.293v-3.721H15.575
		V64.142z"/>
	<path clip-path="url(#SVGID_3_)" d="M38.184,79.839H14.259c-0.727,0-1.317-0.59-1.317-1.317v-6.355c0-0.727,0.59-1.316,1.317-1.316
		h23.925c0.728,0,1.316,0.59,1.316,1.316v6.355C39.5,79.249,38.912,79.839,38.184,79.839 M15.575,77.205h21.293v-3.722H15.575
		V77.205z"/>
	<path clip-path="url(#SVGID_3_)" d="M38.184,92.903H14.259c-0.727,0-1.317-0.591-1.317-1.317v-6.354
		c0-0.727,0.59-1.316,1.317-1.316h23.925c0.728,0,1.316,0.59,1.316,1.316v6.354C39.5,92.313,38.912,92.903,38.184,92.903
		 M15.575,90.27h21.293v-3.721H15.575V90.27z"/>
	<path clip-path="url(#SVGID_3_)" d="M50.58,40.646h-6.367c-0.728,0-1.316-0.59-1.316-1.316v-6.355c0-0.727,0.589-1.316,1.316-1.316
		h6.367c0.727,0,1.317,0.59,1.317,1.316v6.355C51.897,40.056,51.307,40.646,50.58,40.646 M45.53,38.013h3.734v-3.722H45.53V38.013z"
		/>
	<path clip-path="url(#SVGID_3_)" d="M50.58,53.712h-6.367c-0.728,0-1.316-0.59-1.316-1.317v-6.356c0-0.727,0.589-1.317,1.316-1.317
		h6.367c0.727,0,1.317,0.59,1.317,1.317v6.356C51.897,53.122,51.307,53.712,50.58,53.712 M45.53,51.078h3.734v-3.722H45.53V51.078z"
		/>
	<path clip-path="url(#SVGID_3_)" d="M50.58,66.775h-6.367c-0.728,0-1.316-0.59-1.316-1.316v-6.355c0-0.728,0.589-1.316,1.316-1.316
		h6.367c0.727,0,1.317,0.589,1.317,1.316v6.355C51.897,66.186,51.307,66.775,50.58,66.775 M45.53,64.142h3.734v-3.721H45.53V64.142z
		"/>
	<path clip-path="url(#SVGID_3_)" d="M50.58,79.839h-6.367c-0.728,0-1.316-0.59-1.316-1.317v-6.355c0-0.727,0.589-1.316,1.316-1.316
		h6.367c0.727,0,1.317,0.59,1.317,1.316v6.355C51.897,79.249,51.307,79.839,50.58,79.839 M45.53,77.205h3.734v-3.722H45.53V77.205z"
		/>
	<path clip-path="url(#SVGID_3_)" d="M50.58,92.903h-6.367c-0.728,0-1.316-0.591-1.316-1.317v-6.354
		c0-0.727,0.589-1.316,1.316-1.316h6.367c0.727,0,1.317,0.59,1.317,1.316v6.354C51.897,92.313,51.307,92.903,50.58,92.903
		 M45.53,90.27h3.734v-3.721H45.53V90.27z"/>
	<rect x="3.456" y="105.177" clip-path="url(#SVGID_3_)" width="103.088" height="2.633"/>
	<path clip-path="url(#SVGID_3_)" d="M42.013,107.81H23.022c-0.727,0-1.316-0.59-1.316-1.317v-8.729
		c0-0.728,0.589-1.317,1.316-1.317h18.991c0.727,0,1.317,0.59,1.317,1.317v8.729C43.33,107.22,42.74,107.81,42.013,107.81
		 M24.338,105.177h16.358V99.08H24.338V105.177z"/>
</g>
<g>
	<defs>
		<rect id="SVGID_1_" x="6" y="0.822" width="97.779" height="106.178"/>
	</defs>
	<clipPath id="SVGID_4_">
		<use xlink:href="#SVGID_1_"  overflow="visible"/>
	</clipPath>
	<path clip-path="url(#SVGID_4_)" d="M83.391,58.538c-6.905,0-12.523-5.616-12.523-12.522V36.45c0-0.829,0.671-1.5,1.5-1.5h22.045
		c0.829,0,1.5,0.671,1.5,1.5v9.565C95.912,52.922,90.295,58.538,83.391,58.538 M73.867,37.95v8.065c0,5.25,4.272,9.522,9.523,9.522
		c5.25,0,9.521-4.272,9.521-9.522V37.95H73.867z"/>
	<rect x="72.368" y="41.273" clip-path="url(#SVGID_4_)" width="14.94" height="3"/>
	<path clip-path="url(#SVGID_4_)" d="M91.777,96.04H68.964v-3h22.813c4.964,0,9.002-4.038,9.002-9.002V3.822H9v80.216
		c0,4.964,4.038,9.002,9.002,9.002H40.67v3H18.002C11.384,96.04,6,90.656,6,84.038V2.322c0-0.829,0.671-1.5,1.5-1.5h94.779
		c0.829,0,1.5,0.671,1.5,1.5v81.716C103.779,90.656,98.396,96.04,91.777,96.04"/>
	<polygon clip-path="url(#SVGID_4_)" fill="#B3B3B3" points="47.129,28.949 39.443,15.636 47.129,2.322 62.504,2.322 70.19,15.636 
		62.504,28.949 	"/>
	<path clip-path="url(#SVGID_4_)" fill="#B3B3B3" d="M62.504,30.449H47.129c-0.536,0-1.031-0.286-1.299-0.75l-7.686-13.313
		c-0.268-0.465-0.268-1.036,0-1.5L45.83,1.572c0.268-0.464,0.763-0.75,1.299-0.75h15.375c0.536,0,1.031,0.286,1.299,0.75
		l7.687,13.314c0.267,0.464,0.267,1.035,0,1.5l-7.687,13.313C63.535,30.163,63.04,30.449,62.504,30.449 M47.995,27.449h13.644
		l6.818-11.813L61.639,3.822H47.995l-6.82,11.814L47.995,27.449z"/>
	<polygon clip-path="url(#SVGID_4_)" fill="#B3B3B3" points="62.621,28.949 70.119,93.644 54.816,105.5 39.514,93.644 
		47.008,28.949 	"/>
	<path clip-path="url(#SVGID_4_)" fill="#B3B3B3" d="M54.816,107c-0.324,0-0.648-0.104-0.92-0.314L38.595,94.829
		c-0.415-0.321-0.632-0.836-0.572-1.358l7.495-64.693c0.087-0.757,0.728-1.328,1.49-1.328h15.613c0.762,0,1.402,0.571,1.49,1.327
		l7.498,64.695c0.06,0.522-0.156,1.037-0.571,1.358l-15.304,11.856C55.465,106.896,55.141,107,54.816,107 M41.101,92.977
		l13.715,10.626l13.716-10.626l-7.247-62.527H48.344L41.101,92.977z"/>
	<path clip-path="url(#SVGID_4_)" d="M76.797,27.765c-0.07,0-0.141-0.005-0.211-0.015c-0.451-0.064-0.849-0.33-1.08-0.722
		L61.356,3.085c-0.273-0.464-0.277-1.038-0.011-1.507c0.267-0.467,0.764-0.756,1.303-0.756h39.631c0.615,0,1.168,0.376,1.395,0.948
		c0.227,0.572,0.081,1.224-0.367,1.645L77.824,27.358C77.544,27.621,77.176,27.765,76.797,27.765 M65.277,3.822l11.858,20.067
		L98.493,3.822H65.277z M32.98,27.765c-0.379,0-0.747-0.144-1.028-0.407L6.473,3.415C6.025,2.994,5.879,2.342,6.105,1.77
		C6.332,1.198,6.885,0.822,7.5,0.822h39.629c0.539,0,1.035,0.289,1.303,0.756c0.268,0.469,0.264,1.043-0.011,1.507L34.271,27.028
		c-0.232,0.392-0.629,0.658-1.08,0.722C33.121,27.76,33.051,27.765,32.98,27.765 M11.287,3.822l21.355,20.067L44.5,3.822H11.287z"/>
	<rect x="47.128" y="0.822" clip-path="url(#SVGID_4_)" width="15.521" height="3"/>
	<rect x="47.008" y="27.449" clip-path="url(#SVGID_4_)" width="15.613" height="3"/>
</g>
</svg>
