<?xml version="1.0" encoding="utf-8"?>
<!-- Generator: Adobe Illustrator 21.1.0, SVG Export Plug-In . SVG Version: 6.00 Build 0)  -->
<svg version="1.1" id="Layer_1" xmlns="http://www.w3.org/2000/svg" xmlns:xlink="http://www.w3.org/1999/xlink" x="0px" y="0px"
	 viewBox="0 0 48 48" style="enable-background:new 0 0 48 48;" xml:space="preserve">
<style type="text/css">
	.st0{fill:#383838;}
</style>
<title>consoles</title>
<path class="st0" d="M45.7,11.3h-1.3V10c0-1.1-0.9-2-2-2h-3.8c-0.1-2.5-2.2-4.6-4.8-4.6h-20c-2.6,0-4.7,2-4.9,4.6H5.6
	c-1.1,0-2,0.9-2,2v1.3H2.3c-1.1,0-2,0.9-2,2v26.3c0,1.1,0.9,2,2,2c15.2,0,15.9-0.4,19.4,1.5c1.3,0.7,2.6,0.6,2.3,0.6
	c0.8,0,1.6-0.2,2.3-0.6c1.6-0.9,3.3-1.4,5.3-1.5c0.6,2.1,2.5,3.7,4.8,3.7h3c2.8,0,5-2.2,5-5c0-1.4-0.1-26.2-0.1-27.6h1.3
	c0.4,0,0.7,0.3,0.7,0.7c0,5.5,0,21.1,0,26.3c0,0.4-0.3,0.7-0.7,0.7c-0.8,0-0.8,1.3,0,1.3c1.1,0,2-0.9,2-2c0-5.2,0-20.8,0-26.3
	C47.7,12.2,46.8,11.3,45.7,11.3z M13.8,4.7h20c1.9,0,3.4,1.5,3.5,3.3h-8.2c-1.9,0-3.7,0.7-5.1,1.9C22.6,8.7,20.8,8,18.9,8h-8.8
	C10.3,6.1,11.9,4.7,13.8,4.7z M4.9,10c0-0.4,0.3-0.7,0.7-0.7h13.3c1.7,0,3.2,0.6,4.5,1.7c0,3,0,21.4,0,24.3c0,0.8,1.3,0.8,1.3,0
	c0-3,0-21.4,0-24.3c1.2-1.1,2.8-1.7,4.5-1.7h8.2v16.2h-0.9c-2.8,0-5,2.2-5,5v6.5c-1.7,0-4.5-0.2-7.5,1.8c-1.7-1.2-3.8-1.8-5.9-1.8
	c0,0-12.5,0-12.5,0c-0.4,0-0.7-0.3-0.7-0.7V10z M43.2,30.1c0,0.3,0,0.2,0,4.6h-2.9c0.1-0.2,0-2.5,0-2.7c0-1.1-0.8-2-1.7-2.2v-3h0.9
	c2.3,0,3.6,2,3.6,3.1C43.1,29.9,43.1,30,43.2,30.1z M38.7,31.3c0.4,0.4,0.3,0.6,0.3,3.2c0,0.1,0,0.1,0,0.2h-2.1c0.1-0.2,0-2.5,0-2.7
	C36.9,31.1,38,30.6,38.7,31.3z M37.3,29.8c-1,0.3-1.7,1.2-1.7,2.2c0,0.2,0,2.5,0,2.7h-2.9v-4.2c0-2.1,1.7-3.7,3.7-3.7h0.9V29.8z
	 M26.6,41.4c-0.1,0-0.1,0-0.2,0.1l-0.7,0.4c-0.5,0.3-1.1,0.4-1.6,0.4c0,0-0.1,0-0.1,0c0,0,0,0-0.1,0c-0.6,0-1.2-0.2-1.7-0.5
	c-0.1-0.1-0.6-0.4-0.8-0.4c-3.3-1.5-4.5-1.2-19.1-1.2c-0.4,0-0.7-0.3-0.7-0.7V13.2c0-0.4,0.3-0.7,0.7-0.7h1.3
	c0,25.7-0.2,24.3,0.6,25.1C4.6,38,5,38.2,5.6,38.2l12.5,0c3.4,0,5.4,1.8,5.7,1.9c0.1,0,0.1,0,0.2,0l0,0c0,0,0,0,0,0
	c0.1,0,0.1,0,0.2,0c0.1,0,0.1-0.1,0.2-0.1c2.7-2.1,5.4-1.9,7.1-1.9c0,2.8,0,1.7,0,2C29.8,40.3,28.1,40.7,26.6,41.4z M39.5,43.9h-3
	c-2.1,0-3.7-1.7-3.7-3.7V36h10.4v4.2C43.2,42.2,41.5,43.9,39.5,43.9z M38.6,25.5V9.3h3.8c0.4,0,0.7,0.3,0.7,0.7v17.1
	C41.5,25.4,39.6,25.5,38.6,25.5z M8.2,24.5h12.1c0.8,0,0.8,1.3,0,1.3H8.2C7.4,25.7,7.4,24.5,8.2,24.5z M8.2,28.4h12.1
	c0.8,0,0.8,1.3,0,1.3H8.2C7.4,29.7,7.4,28.4,8.2,28.4z M8.2,12.6h12.1c0.8,0,0.8,1.3,0,1.3H8.2C7.4,13.9,7.4,12.6,8.2,12.6z
	 M8.2,20.5h10.5c0.8,0,0.8,1.3,0,1.3H8.2C7.4,21.8,7.4,20.5,8.2,20.5z M8.2,32.3h7.9c0.8,0,0.8,1.3,0,1.3H8.2
	C7.4,33.6,7.4,32.3,8.2,32.3z M20.3,33.6h-2.2c-0.8,0-0.8-1.3,0-1.3h2.2C21.1,32.3,21.1,33.6,20.3,33.6z M20.3,17.8h-4.2
	c-0.8,0-0.8-1.3,0-1.3h4.2C21.1,16.6,21.1,17.8,20.3,17.8z M8.2,16.6h5.9c0.8,0,0.8,1.3,0,1.3H8.2C7.4,17.8,7.4,16.6,8.2,16.6z
	 M27.7,20.5h6.6c0.8,0,0.8,1.3,0,1.3h-6.6C26.9,21.8,26.9,20.5,27.7,20.5z M27.7,16.6h7.9c0.8,0,0.8,1.3,0,1.3h-7.9
	C26.9,17.8,26.9,16.6,27.7,16.6z M27.7,24.5h3.9c0.8,0,0.8,1.3,0,1.3h-3.9C26.9,25.7,26.9,24.5,27.7,24.5z M27.7,12.6h7.9
	c0.8,0,0.8,1.3,0,1.3h-7.9C26.9,13.9,26.9,12.6,27.7,12.6z M41.3,21.8h-0.8c-0.8,0-0.8-1.3,0-1.3h0.8C42.1,20.5,42.1,21.8,41.3,21.8
	z M41.3,17.8h-0.8c-0.8,0-0.8-1.3,0-1.3h0.8C42.1,16.6,42.1,17.8,41.3,17.8z M41.3,13.9h-0.8c-0.8,0-0.8-1.3,0-1.3h0.8
	C42.1,12.6,42.1,13.9,41.3,13.9z M27.7,28.4h2.2c0.8,0,0.8,1.3,0,1.3h-2.2C26.9,29.7,26.9,28.4,27.7,28.4z M27.7,32.3h1.4
	c0.8,0,0.8,1.3,0,1.3h-1.4C26.9,33.6,26.9,32.3,27.7,32.3z"/>
</svg>
