<?xml version="1.0" encoding="utf-8"?>
<!-- Generator: Adobe Illustrator 21.1.0, SVG Export Plug-In . SVG Version: 6.00 Build 0)  -->
<svg version="1.1" id="Layer_1" xmlns="http://www.w3.org/2000/svg" xmlns:xlink="http://www.w3.org/1999/xlink" x="0px" y="0px"
	 viewBox="0 0 48 48" style="enable-background:new 0 0 48 48;" xml:space="preserve">
<style type="text/css">
	.st0{fill:none;stroke:#7C7C7C;stroke-width:2;stroke-linecap:round;stroke-linejoin:round;stroke-miterlimit:10;}
	.st1{fill:#7C7C7C;}
</style>
<title>consoles</title>
<path class="st0" d="M24,2.9C11.4,2.9,1.2,11,1.2,21c0,6.4,4.1,12,10.4,15.2l-1.7,8.9l9.9-6.3c1.4,0.2,2.8,0.3,4.3,0.3
	c12.6,0,22.8-8.1,22.8-18.2C46.8,11,36.5,2.9,24,2.9z"/>
<g>
	<g>
		<path class="st1" d="M7.9,16.7c-0.3,0-0.5,0.1-0.7,0.3c-0.1,0.1-0.2,0.2-0.2,0.3C7,17.3,7,17.4,7,17.6c0,0.1,0,0.2,0.1,0.3
			c0.1,0.2,0.2,0.3,0.3,0.4c0.2,0.1,0.3,0.2,0.5,0.2h2.3v7.9c0,0.3,0.1,0.5,0.3,0.7c0.2,0.2,0.4,0.3,0.7,0.3h0.2
			c0.3,0,0.5-0.1,0.7-0.3c0.2-0.2,0.3-0.4,0.3-0.7v-7.9h2.3c0.3,0,0.5-0.1,0.7-0.3c0.1-0.1,0.2-0.2,0.2-0.3c0-0.1,0.1-0.2,0.1-0.3
			c0-0.1,0-0.2-0.1-0.3c-0.1-0.2-0.2-0.3-0.3-0.4c-0.2-0.1-0.3-0.2-0.5-0.2H7.9z"/>
	</g>
	<g>
		<path class="st1" d="M16.7,25.1h4.4l0.8,1.7c0.1,0.2,0.2,0.3,0.4,0.4c0.3,0.2,0.6,0.2,0.9,0.1l0.2-0.1c0.2-0.1,0.3-0.2,0.4-0.4
			l0.3-0.4l-4.1-9c0-0.1-0.1-0.2-0.1-0.3c0-0.1-0.1-0.1-0.1-0.2c-0.1-0.1-0.2-0.2-0.2-0.2c-0.1-0.1-0.3-0.1-0.5-0.1
			c-0.1,0-0.1,0-0.2,0c-0.2,0-0.4,0.1-0.5,0.1c-0.1,0.1-0.2,0.2-0.3,0.3c0,0.1-0.1,0.1-0.1,0.1c-0.1,0.1-0.1,0.2-0.1,0.3l0,0.1
			l-3.9,8.4c-0.1,0.1-0.1,0.3-0.1,0.4c0,0.2,0.1,0.4,0.1,0.5c0.1,0.2,0.2,0.3,0.4,0.4l0.2,0.1c0.3,0.1,0.6,0.1,0.9-0.1
			c0.2-0.1,0.3-0.2,0.4-0.4L16.7,25.1z M36.1,22.8l3,4.1c0.1,0.1,0.2,0.2,0.3,0.3c0.3,0.2,0.7,0.1,1-0.1l0.2-0.1
			c0.1-0.1,0.2-0.2,0.3-0.3c0.1-0.1,0.1-0.3,0.1-0.4c0-0.2-0.1-0.4-0.2-0.6l-3.2-4.4l2.7-2.8c0.2-0.2,0.3-0.4,0.3-0.7
			c0-0.1,0-0.3-0.1-0.4c-0.1-0.1-0.1-0.2-0.2-0.3l-0.2-0.2c-0.3-0.3-0.7-0.3-1-0.2c-0.1,0-0.2,0.1-0.3,0.2l-3.9,4.1v-3.4
			c0-0.3-0.1-0.5-0.3-0.7c-0.2-0.2-0.4-0.3-0.7-0.3h-0.2c-0.3,0-0.5,0.1-0.7,0.3c-0.2,0.2-0.3,0.4-0.3,0.7v9l0.1,0.2
			c0,0.1,0.1,0.2,0.2,0.2c0.2,0.2,0.4,0.3,0.7,0.3h0.2c0.3,0,0.5-0.1,0.7-0.3c0.2-0.2,0.3-0.4,0.3-0.7v-2.2L36.1,22.8z M24.5,26.7
			l0.1,0.2c0.1,0.1,0.2,0.3,0.3,0.3c0.1,0.1,0.3,0.1,0.4,0.1c0,0,0.1,0,0.1,0h5.6c0.3,0,0.5-0.1,0.7-0.3c0.1-0.1,0.1-0.1,0.2-0.2
			l0.3-0.5l-0.4-0.4c-0.1-0.1-0.1-0.1-0.2-0.2c-0.2-0.1-0.3-0.1-0.5-0.1h-4.4v-8c0-0.3-0.1-0.5-0.3-0.7c-0.2-0.2-0.4-0.3-0.7-0.3
			h-0.2c-0.3,0-0.5,0.1-0.7,0.3c-0.2,0.2-0.3,0.4-0.3,0.7V26.7z M20.3,23.4h-2.8l1.4-3.1L20.3,23.4z"/>
	</g>
</g>
</svg>
