<?xml version="1.0" encoding="utf-8"?>
<!-- Generator: Adobe Illustrator 21.1.0, SVG Export Plug-In . SVG Version: 6.00 Build 0)  -->
<svg version="1.1" id="Layer_1" xmlns="http://www.w3.org/2000/svg" xmlns:xlink="http://www.w3.org/1999/xlink" x="0px" y="0px"
	 viewBox="0 0 48 48" style="enable-background:new 0 0 48 48;" xml:space="preserve">
<style type="text/css">
	.st0{fill:#383838;}
</style>
<title>consoles</title>
<path class="st0" d="M34.6,19.6c-0.3,0-0.6-0.3-0.6-0.6v-8.5H18.5v3.8c0,0.3-0.3,0.6-0.6,0.6s-0.6-0.3-0.6-0.6V9.9
	c0-0.3,0.3-0.6,0.6-0.6h16.7c0.3,0,0.6,0.3,0.6,0.6V19C35.2,19.3,34.9,19.6,34.6,19.6z"/>
<path class="st0" d="M32.4,9.9c-0.3,0-0.6-0.3-0.6-0.6V6h-11v3.2c0,0.3-0.3,0.6-0.6,0.6s-0.6-0.3-0.6-0.6V5.4c0-0.3,0.3-0.6,0.6-0.6
	h12.3c0.3,0,0.6,0.3,0.6,0.6v3.8C33,9.6,32.7,9.9,32.4,9.9z"/>
<path class="st0" d="M45.7,25.2c-0.1,0-0.2,0-0.3-0.1l-9.6-4.6l-8.6,4.5c-0.3,0.2-0.7,0-0.8-0.3c-0.2-0.3,0-0.7,0.3-0.8l8.9-4.7
	c0.2-0.1,0.4-0.1,0.5,0L46,24c0.3,0.1,0.4,0.5,0.3,0.8C46.2,25,46,25.2,45.7,25.2z"/>
<path class="st0" d="M25.4,15h-4.1c-0.3,0-0.6-0.3-0.6-0.6c0-0.3,0.3-0.6,0.6-0.6h4.1c0.3,0,0.6,0.3,0.6,0.6
	C26.1,14.8,25.8,15,25.4,15z"/>
<path class="st0" d="M31.7,15h-4.1c-0.3,0-0.6-0.3-0.6-0.6c0-0.3,0.3-0.6,0.6-0.6h4.1c0.3,0,0.6,0.3,0.6,0.6
	C32.3,14.8,32,15,31.7,15z"/>
<path class="st0" d="M25.4,18h-4.1c-0.3,0-0.6-0.3-0.6-0.6c0-0.3,0.3-0.6,0.6-0.6h4.1c0.3,0,0.6,0.3,0.6,0.6
	C26.1,17.8,25.8,18,25.4,18z"/>
<path class="st0" d="M31.7,18h-4.1c-0.3,0-0.6-0.3-0.6-0.6c0-0.3,0.3-0.6,0.6-0.6h4.1c0.3,0,0.6,0.3,0.6,0.6
	C32.3,17.8,32,18,31.7,18z"/>
<path class="st0" d="M25.4,21.1h-4.1c-0.3,0-0.6-0.3-0.6-0.6s0.3-0.6,0.6-0.6h4.1c0.3,0,0.6,0.3,0.6,0.6S25.8,21.1,25.4,21.1z"/>
<path class="st0" d="M31.7,21.1h-4.1c-0.3,0-0.6-0.3-0.6-0.6s0.3-0.6,0.6-0.6h4.1c0.3,0,0.6,0.3,0.6,0.6S32,21.1,31.7,21.1z"/>
<path class="st0" d="M2.8,43.1c-0.3,0-0.6-0.3-0.6-0.6V16.9c0-0.3,0.3-0.6,0.6-0.6h16.1c0.3,0,0.6,0.3,0.6,0.6v25.2
	c0,0.3-0.3,0.6-0.6,0.6s-0.6-0.3-0.6-0.6V17.5H3.4v25C3.4,42.8,3.2,43.1,2.8,43.1z"/>
<path class="st0" d="M40.3,28.9h-8.9c-0.3,0-0.6-0.3-0.6-0.6s0.3-0.6,0.6-0.6h8.9c0.3,0,0.6,0.3,0.6,0.6S40.7,28.9,40.3,28.9z"/>
<path class="st0" d="M40.3,31.6h-8.9c-0.3,0-0.6-0.3-0.6-0.6s0.3-0.6,0.6-0.6h8.9c0.3,0,0.6,0.3,0.6,0.6S40.7,31.6,40.3,31.6z"/>
<path class="st0" d="M40.3,34.4h-8.9c-0.3,0-0.6-0.3-0.6-0.6s0.3-0.6,0.6-0.6h8.9c0.3,0,0.6,0.3,0.6,0.6S40.7,34.4,40.3,34.4z"/>
<path class="st0" d="M40.3,42.3c-0.3,0-0.6-0.3-0.6-0.6v-4.4h-7.2v4.4c0,0.3-0.3,0.6-0.6,0.6c-0.3,0-0.6-0.3-0.6-0.6v-5
	c0-0.3,0.3-0.6,0.6-0.6h8.4c0.3,0,0.6,0.3,0.6,0.6v5C40.9,42,40.7,42.3,40.3,42.3z"/>
<path class="st0" d="M36.2,42.3c-0.3,0-0.6-0.3-0.6-0.6v-5c0-0.3,0.3-0.6,0.6-0.6s0.6,0.3,0.6,0.6v5C36.8,42,36.5,42.3,36.2,42.3z"
	/>
<path class="st0" d="M4.5,17c-0.3,0-0.6-0.3-0.6-0.6v-3.5c0-0.3,0.3-0.6,0.6-0.6h11.6c0.3,0,0.6,0.3,0.6,0.6s-0.3,0.6-0.6,0.6h-11
	v2.9C5.1,16.7,4.9,17,4.5,17z"/>
<path class="st0" d="M13.6,25.8c-0.3,0-0.6-0.3-0.6-0.6v-2.4c0-0.3,0.3-0.6,0.6-0.6h1.8c0.3,0,0.6,0.3,0.6,0.6s-0.3,0.6-0.6,0.6
	h-1.2v1.8C14.3,25.6,14,25.8,13.6,25.8z"/>
<path class="st0" d="M13.6,30.9c-0.3,0-0.6-0.3-0.6-0.6v-2.4c0-0.3,0.3-0.6,0.6-0.6h1.8c0.3,0,0.6,0.3,0.6,0.6
	c0,0.3-0.3,0.6-0.6,0.6h-1.2v1.8C14.3,30.6,14,30.9,13.6,30.9z"/>
<path class="st0" d="M13.6,36.1c-0.3,0-0.6-0.3-0.6-0.6v-2.4c0-0.3,0.3-0.6,0.6-0.6h1.8c0.3,0,0.6,0.3,0.6,0.6s-0.3,0.6-0.6,0.6
	h-1.2v1.8C14.3,35.9,14,36.1,13.6,36.1z"/>
<path class="st0" d="M8.8,25.8c-0.3,0-0.6-0.3-0.6-0.6v-2.4c0-0.3,0.3-0.6,0.6-0.6h1.8c0.3,0,0.6,0.3,0.6,0.6s-0.3,0.6-0.6,0.6H9.4
	v1.8C9.4,25.6,9.2,25.8,8.8,25.8z"/>
<path class="st0" d="M8.8,30.9c-0.3,0-0.6-0.3-0.6-0.6v-2.4c0-0.3,0.3-0.6,0.6-0.6h1.8c0.3,0,0.6,0.3,0.6,0.6c0,0.3-0.3,0.6-0.6,0.6
	H9.4v1.8C9.4,30.6,9.2,30.9,8.8,30.9z"/>
<path class="st0" d="M8.8,36.1c-0.3,0-0.6-0.3-0.6-0.6v-2.4c0-0.3,0.3-0.6,0.6-0.6h1.8c0.3,0,0.6,0.3,0.6,0.6s-0.3,0.6-0.6,0.6H9.4
	v1.8C9.4,35.9,9.2,36.1,8.8,36.1z"/>
<path class="st0" d="M26.9,42.7c-0.3,0-0.6-0.3-0.6-0.6V24.8c0-0.3,0.3-0.6,0.6-0.6h18.8c0.3,0,0.6,0.3,0.6,0.6v16.9
	c0,0.3-0.3,0.6-0.6,0.6s-0.6-0.3-0.6-0.6V25.4H27.5v16.7C27.5,42.5,27.3,42.7,26.9,42.7z"/>
<path class="st0" d="M47.3,43.2H0.6c-0.3,0-0.6-0.3-0.6-0.6S0.3,42,0.6,42h46.7c0.3,0,0.6,0.3,0.6,0.6S47.7,43.2,47.3,43.2z"/>
</svg>
