<?xml version="1.0" encoding="utf-8"?>
<!-- Generator: Adobe Illustrator 21.1.0, SVG Export Plug-In . SVG Version: 6.00 Build 0)  -->
<svg version="1.1" id="Layer_1" xmlns="http://www.w3.org/2000/svg" xmlns:xlink="http://www.w3.org/1999/xlink" x="0px" y="0px"
	 viewBox="0 0 48 48" style="enable-background:new 0 0 48 48;" xml:space="preserve">
<style type="text/css">
	.st0{fill:#383838;}
</style>
<title>consoles</title>
<path class="st0" d="M29.5,45.5H6.2V7.2H9c0,0.1,0,34.6,0,34.7c0,0.4,0.3,0.6,0.6,0.6h18.1c0.8,0,0.8-1.3,0-1.3H10.3
	c0-0.1,0-34,0-34.1H15v1.4c0,0.4,0.3,0.6,0.6,0.6h5.1c0.3,0,0.6-0.2,0.6-0.5c0.1-0.6,0.8-1.5,1.8-1.5s1.6,0.9,1.8,1.5
	c0.1,0.3,0.3,0.5,0.6,0.5h4.8c0.4,0,0.6-0.3,0.6-0.6V7.2h4.8c0,0.1,0,24.5,0,24.6c0,0.8,1.3,0.8,1.3,0c0-0.1,0-24.5,0-24.6h2.7v25.6
	c0,0.4,0.3,0.6,0.6,0.6c0.4,0,0.6-0.3,0.6-0.6V6.5c0-0.4-0.3-0.6-0.6-0.6h-9.4v-1c0-1.3-1.1-2.4-2.5-2.4h-1.8
	c-0.1-1.3-1.1-2.4-2.3-2.4h-2.8c-1.5,0-2.4,1.8-2.2,2.4h-1.8c-1.4,0-2.5,1.1-2.5,2.4v1H5.5c-0.4,0-0.6,0.3-0.6,0.6v39.6
	c0,0.4,0.3,0.6,0.6,0.6h23.9c0.4,0,0.6-0.3,0.6-0.6C30.1,45.7,29.8,45.5,29.5,45.5z M20.5,2.4c0.1-0.6,0.5-1,1-1h2.8
	c0.5,0,0.9,0.5,1,1.1h-4.8C20.5,2.4,20.5,2.4,20.5,2.4z M16.3,4.9c0-0.6,0.5-1.2,1.2-1.2h10.8c0.7,0,1.3,0.5,1.3,1.2v3H26
	c-0.4-1.1-1.6-2.1-2.9-2.1c-1.3,0-2.4,1-2.9,2.1h-4V4.9z M31.3,30.1h-5.5c-0.8,0-0.8-1.3,0-1.3h5.5C32.1,28.8,32.1,30.1,31.3,30.1z
	 M14.8,28.8h6.2c0.8,0,0.8,1.3,0,1.3h-6.2c-0.4,0-0.6-0.3-0.6-0.6C14.2,29.1,14.5,28.8,14.8,28.8z M31.3,33.6H14.8
	c-0.4,0-0.6-0.3-0.6-0.6c0-0.4,0.3-0.6,0.6-0.6h16.5C32.1,32.3,32.1,33.6,31.3,33.6z M27.1,36.1c0.8,0,0.8,1.3,0,1.3H14.8
	c-0.4,0-0.6-0.3-0.6-0.6c0-0.4,0.3-0.6,0.6-0.6H27.1z M40.7,38.5c-4.7,5.2-4.4,5-4.8,5c-0.4,0-0.3,0-2.8-2.6
	c-0.6-0.6,0.3-1.5,0.9-0.9l1.9,1.9l3.9-4.3c0.2-0.3,0.6-0.3,0.9-0.1C40.9,37.8,40.9,38.2,40.7,38.5z M36.6,33.4
	c-4,0-7.3,3.3-7.3,7.3c0,4,3.3,7.3,7.3,7.3s7.3-3.3,7.3-7.3C43.8,36.6,40.6,33.4,36.6,33.4z M36.6,46.6c-3.3,0-6-2.7-6-6
	c0-3.3,2.7-6,6-6c3.3,0,6,2.7,6,6C42.6,43.9,39.9,46.6,36.6,46.6z M22.7,18.2c1.3,0,2.3-1.2,2.3-2.7c0-0.8,0-2.7-2.3-2.7
	c-2.3,0-2.3,1.9-2.3,2.7C20.5,17,21.5,18.2,22.7,18.2z M22.7,14c0.8,0,1,0.2,1,1.5c0,0.8-0.5,1.5-1,1.5c-0.5,0-1-0.7-1-1.5
	C21.7,14.2,22,14,22.7,14z M18.9,21.8c2,2.2,5.7,2.2,7.7,0c0.5-0.5-0.3-2.7-2.3-3.4c-0.6-0.2-0.7,0.5-1.5,0.5
	c-0.8,0-0.9-0.7-1.5-0.5C19.1,19.2,18.4,21.3,18.9,21.8z M21.3,19.7c0.8,0.6,2,0.6,2.8,0c0.6,0.3,1.1,0.9,1.3,1.5
	c-1.5,1.4-3.9,1.4-5.4,0C20.2,20.6,20.7,20,21.3,19.7z M19.4,12.3h-2.7v12.1h12.1V13.2c0-0.8,1.3-0.8,1.3,0V25
	c0,0.4-0.3,0.6-0.6,0.6H16.1c-0.3,0-0.6-0.3-0.6-0.6V11.7c0-0.4,0.3-0.6,0.6-0.6h3.3C20.3,11,20.3,12.3,19.4,12.3z"/>
</svg>
