<?xml version="1.0" encoding="utf-8"?>
<!-- Generator: Adobe Illustrator 21.1.0, SVG Export Plug-In . SVG Version: 6.00 Build 0)  -->
<svg version="1.1" id="Layer_1" xmlns="http://www.w3.org/2000/svg" xmlns:xlink="http://www.w3.org/1999/xlink" x="0px" y="0px"
	 viewBox="0 0 48 48" style="enable-background:new 0 0 48 48;" xml:space="preserve">
<style type="text/css">
	.st0{fill:none;stroke:#7C7C7C;stroke-width:2;stroke-miterlimit:10;}
</style>
<title>consoles</title>
<path class="st0" d="M45.6,36.7c-0.1-0.1-0.1-0.1-0.2-0.2l-7.2-5.7c-1.6-1.5-4.1-1.5-5.7,0.1c-0.1,0.1-0.2,0.2-0.3,0.3l-2,2.9
	c-1-0.2-4-1.8-9.3-7.1c-5.4-5.4-6.9-8.3-7.1-9.3l2.9-2c0.1-0.1,0.2-0.2,0.3-0.3c1.6-1.6,1.6-4.1,0.1-5.7l-5.7-7.3
	c-0.1-0.1-0.1-0.1-0.2-0.2c-0.7-0.7-1.8-1.2-2.8-1.3C7.2,1,6.1,1.3,5.3,2.1l-2.8,2c0,0-0.1,0.1-0.1,0.1c-2.8,2.8-0.6,9.6,0.5,12.4
	c2.4,6,6.4,12,11.4,17c6.7,6.7,13.6,10,17,11.4c1.8,0.7,5.2,1.9,8.2,1.9c1.7,0,3.2-0.4,4.2-1.4c0,0,0.1-0.1,0.1-0.1l2-2.8
	C47.4,41.1,47.3,38.4,45.6,36.7z"/>
</svg>
