<svg id="Layer_1" data-name="Layer 1" xmlns="http://www.w3.org/2000/svg" viewBox="0 0 19 16.6"><defs><style>.cls-1{fill:#494949;}</style></defs><title>Artboard 29</title><path class="cls-1" d="M16.58,16.6H2.39a.3.3,0,0,1-.3-.3V6.9a.3.3,0,0,1,.59,0v.15h0V16H16.28V6.9a.3.3,0,1,1,.59,0v9.4A.3.3,0,0,1,16.58,16.6Z"/><path class="cls-1" d="M18.7,8.83a.3.3,0,0,1-.2-.08L9.5.69l-9,8.06a.3.3,0,0,1-.4-.44L9.3.08a.3.3,0,0,1,.4,0l9.2,8.24a.3.3,0,0,1-.2.52Z"/><path class="cls-1" d="M14.46,16.48H4.51a.3.3,0,0,1-.3-.3V7.94a.3.3,0,0,1,.3-.3h9.95a.3.3,0,0,1,.3.3v8.24A.3.3,0,0,1,14.46,16.48Zm-9.65-.59h9.36V8.24H4.81Z"/><path class="cls-1" d="M14.46,9.85h-10a.3.3,0,0,1,0-.59h10a.3.3,0,1,1,0,.59Z"/><path class="cls-1" d="M14.46,11.51h-10a.3.3,0,1,1,0-.59h10a.3.3,0,1,1,0,.59Z"/><path class="cls-1" d="M14.46,13.18h-10a.3.3,0,1,1,0-.59h10a.3.3,0,1,1,0,.59Z"/><path class="cls-1" d="M14.46,14.84h-10a.3.3,0,1,1,0-.59h10a.3.3,0,1,1,0,.59Z"/></svg>