<svg id="Layer_1" data-name="Layer 1" xmlns="http://www.w3.org/2000/svg" viewBox="0 0 23 16.1"><defs><style>.cls-1{fill:#494949;}</style></defs><title>Artboard 35</title><path class="cls-1" d="M15.82,8.12A2.84,2.84,0,0,1,13.63,7a4.37,4.37,0,0,1-1-2.54,1,1,0,0,1,.63-1.06,3.92,3.92,0,0,0,1-.8.29.29,0,0,1,.3-.08,5.31,5.31,0,0,0,1.8.21c.56,0,1,0,1.32.53a4.61,4.61,0,0,1,.47,2.29h0A2.67,2.67,0,0,1,16.47,8,2.12,2.12,0,0,1,15.82,8.12Zm-1.25-5a4.43,4.43,0,0,1-1,.77c-.31.19-.35.21-.35.56a3.84,3.84,0,0,0,.86,2.19,2.12,2.12,0,0,0,2.21.87,2.12,2.12,0,0,0,1.29-2h0a4.09,4.09,0,0,0-.41-2c-.11-.21-.24-.23-.8-.22A6,6,0,0,1,14.57,3.08Z"/><path class="cls-1" d="M17.85,5.14a.29.29,0,0,1-.29-.26,3.79,3.79,0,0,0-.39-1.39c-.11-.21-.24-.23-.8-.22a6,6,0,0,1-1.81-.19,4.47,4.47,0,0,1-1,.77c-.29.18-.34.2-.35.47a.29.29,0,0,1-.4.25,1.87,1.87,0,0,1-.65-2.94A1.84,1.84,0,0,1,13.7,1a2.28,2.28,0,0,1,2-1,1.63,1.63,0,0,1,1.44.91,2,2,0,0,1,1.51.79h0a2.43,2.43,0,0,1,.42,2,1.85,1.85,0,0,1-1,1.31l-.17.07ZM16.6,2.69a1.05,1.05,0,0,1,1.09.53,4.13,4.13,0,0,1,.39,1.18,1.43,1.43,0,0,0,.44-.78,1.87,1.87,0,0,0-.31-1.56h0A1.43,1.43,0,0,0,17,1.49a.29.29,0,0,1-.3-.2,1,1,0,0,0-1-.71,1.66,1.66,0,0,0-1.57.85.29.29,0,0,1-.31.16,1.26,1.26,0,0,0-1.2.41,1.29,1.29,0,0,0,.15,1.85,1.18,1.18,0,0,1,.53-.49,4,4,0,0,0,1-.8.29.29,0,0,1,.3-.08,5.31,5.31,0,0,0,1.8.21Z"/><path class="cls-1" d="M22.6,16.09H.36a.29.29,0,1,1,0-.58H22.6a.29.29,0,1,1,0,.58Z"/><path class="cls-1" d="M8.72,16.09H.36a.29.29,0,0,1-.29-.25,25.87,25.87,0,0,1,0-3.35c0-.69,0-1.4,0-2.12C.07,6.61,2.32,5.68,4,5c.28-.12.54-.22.77-.34A.29.29,0,0,1,5,5.17c-.24.12-.52.23-.8.35C2.61,6.18.65,7,.65,10.38c0,.73,0,1.44,0,2.13,0,1.12-.06,2.19,0,3h8.1a.29.29,0,1,1,0,.58Z"/><path class="cls-1" d="M9.15,13.34a.29.29,0,0,1-.29-.27S8.66,9.39,7.14,7.78a.29.29,0,0,1,.42-.39C9.22,9.15,9.43,12.88,9.44,13a.29.29,0,0,1-.27.3Z"/><path class="cls-1" d="M10.85,13.34H7.58a2,2,0,0,1-1.83-2.07V8.81a.29.29,0,0,1,.58,0v2.45a1.5,1.5,0,0,0,1.26,1.5h3.26a.29.29,0,0,1,0,.58Z"/><path class="cls-1" d="M10.85,16.09H6.57A3.58,3.58,0,0,1,3,12.52v-3a.29.29,0,1,1,.58,0v3a3,3,0,0,0,3,3h4.28a.29.29,0,0,1,0,.58Z"/><path class="cls-1" d="M11.15,16.09H10a.29.29,0,0,1-.29-.29V13.05a.29.29,0,0,1,.29-.29h1.18a.29.29,0,0,1,.29.29v2.75A.29.29,0,0,1,11.15,16.09Zm-.89-.58h.61V13.34h-.61Z"/><path class="cls-1" d="M17.54,16.1H13.83a.29.29,0,0,1-.29-.29V14.1a.29.29,0,0,1,.29-.29H17a2.69,2.69,0,0,0,.91-.08,1,1,0,0,0,.6-.93V9.58a.29.29,0,0,1,.58,0V12.8a1.59,1.59,0,0,1-.93,1.45,2.91,2.91,0,0,1-1.16.14H14.11v1.14h3.43a2.73,2.73,0,0,0,1.3-.34,2.68,2.68,0,0,0,1.42-2.38V9.11a.29.29,0,0,1,.58,0v3.7a3.25,3.25,0,0,1-1.72,2.89A3.31,3.31,0,0,1,17.54,16.1Z"/><path class="cls-1" d="M22.6,16h0a.29.29,0,0,1-.26-.32c.8-7.48-3-9-4.27-9.46l-.26-.11A.29.29,0,0,1,18,5.59l.22.09a6.76,6.76,0,0,1,3.11,2.26c1.37,1.82,1.88,4.44,1.52,7.79A.29.29,0,0,1,22.6,16Z"/><path class="cls-1" d="M14,14.09a.29.29,0,0,1-.28-.21,8.74,8.74,0,0,1,.92-6.29.29.29,0,1,1,.5.28,8.32,8.32,0,0,0-.87,5.85.29.29,0,0,1-.2.36Z"/><path class="cls-1" d="M11.15,16.09l-.11,0a.29.29,0,0,1-.15-.38,2.58,2.58,0,0,1,3-1.72.29.29,0,0,1-.16.55,2,2,0,0,0-2.33,1.39A.29.29,0,0,1,11.15,16.09Z"/><path class="cls-1" d="M7.49,7.87a2.42,2.42,0,0,1-.84-.15A3.48,3.48,0,0,1,4.58,5a4.29,4.29,0,0,1,0-1.12.29.29,0,1,1,.57.06,3.81,3.81,0,0,0,0,1,3,3,0,0,0,1.7,2.31,1.94,1.94,0,0,0,2-.41A4.07,4.07,0,0,0,10,1.94,2.77,2.77,0,0,0,6.59,1L6.54,1a.67.67,0,0,0-.17.11A.29.29,0,0,1,5.88,1h0A.29.29,0,0,1,6,.72,1.19,1.19,0,0,1,6.27.54l.05,0a3.33,3.33,0,0,1,4.15,1.12C11.37,3,11,5.68,9.18,7.21A2.63,2.63,0,0,1,7.49,7.87Z"/><path class="cls-1" d="M4.86,4.16a.29.29,0,0,1-.19-.07,2.14,2.14,0,0,1-.29-2.7,1.65,1.65,0,0,1,2-.8.29.29,0,0,1,.16.4c-.2.42.31,1,.5,1.19a.29.29,0,0,1,.1.21,1.89,1.89,0,0,1-1,1.52.29.29,0,0,1-.42-.21c-.07-.44-.24-.73-.47-.78A.3.3,0,0,0,5,3a.6.6,0,0,0,.1.67.29.29,0,0,1-.24.45Zm.38-1.83.19,0a1.14,1.14,0,0,1,.79.8,1.15,1.15,0,0,0,.34-.65,2,2,0,0,1-.63-1.43,1.17,1.17,0,0,0-1.07.62,1.82,1.82,0,0,0-.26.92A.87.87,0,0,1,5.24,2.33Z"/><path class="cls-1" d="M13.94,14.56a.29.29,0,0,1-.27-.18c-.52-1.27-2.15-.81-2.22-.79A.29.29,0,0,1,11.3,13a2.34,2.34,0,0,1,2.91,1.12.29.29,0,0,1-.16.38Z"/></svg>