<svg id="Layer_1" data-name="Layer 1" xmlns="http://www.w3.org/2000/svg" viewBox="0 0 19 21.04"><defs><style>.cls-1{fill:#494949;}</style></defs><title>Artboard 34</title><path class="cls-1" d="M8.86,7.46H.27A.27.27,0,0,1,.08,7L4.34,2.61a.27.27,0,0,1,.19-.08h0a.27.27,0,0,1,.19.08L9.05,7a.27.27,0,0,1-.19.46ZM.91,6.91h7.3L4.54,3.19Z"/><path class="cls-1" d="M8.86,21h-1a.27.27,0,0,1-.27-.27V8.8h-6v12a.27.27,0,0,1-.27.27h-1A.27.27,0,0,1,0,20.77V8.53a.27.27,0,0,1,.27-.27H8.86a.27.27,0,0,1,.27.27V20.77A.27.27,0,0,1,8.86,21Zm-.73-.54h.46V8.8H8.13Zm-7.58,0H1V8.8H.54Z"/><path class="cls-1" d="M7.86,14.22H1.28A.27.27,0,0,1,1,13.95V12.67a.27.27,0,0,1,.27-.27H7.86a.27.27,0,0,1,.27.27v1.28A.27.27,0,0,1,7.86,14.22Zm-6.31-.54h6v-.74h-6Z"/><path class="cls-1" d="M3.77,21a.27.27,0,0,1-.27-.27V14.13a.27.27,0,1,1,.54,0v6.64A.27.27,0,0,1,3.77,21Z"/><path class="cls-1" d="M3.65,15.77H1.43a.27.27,0,1,1,0-.54H3.65a.27.27,0,1,1,0,.54Z"/><path class="cls-1" d="M3.65,17.6H1.43a.27.27,0,0,1,0-.54H3.65a.27.27,0,0,1,0,.54Z"/><path class="cls-1" d="M3.65,19.4H1.43a.27.27,0,0,1,0-.54H3.65a.27.27,0,0,1,0,.54Z"/><path class="cls-1" d="M18.73,21H14.4a.27.27,0,0,1-.24-.14l-3.76-6.68H8.86a.27.27,0,0,1,0-.54h1.71a.27.27,0,0,1,.24.14l3.76,6.68h3.9v-2H15.68a.27.27,0,0,1-.23-.13l-4.06-6.89H8.86a.27.27,0,0,1,0-.54h2.68a.27.27,0,0,1,.23.13L15.84,18h2.89a.27.27,0,0,1,.27.27v2.5A.27.27,0,0,1,18.73,21Z"/><path class="cls-1" d="M4.54,3.07a.27.27,0,0,1-.27-.27V.27A.27.27,0,0,1,4.54,0H6.27a.27.27,0,0,1,.27.27V1.53a.27.27,0,0,1-.27.27H4.81v1A.27.27,0,0,1,4.54,3.07Zm.27-1.81H6V.54H4.81Z"/><path class="cls-1" d="M6.06,12.94H3a.27.27,0,0,1-.27-.27v-1.6A1.75,1.75,0,0,1,4.46,9.32h.12a1.75,1.75,0,0,1,1.75,1.75v1.6A.27.27,0,0,1,6.06,12.94ZM3.25,12.4H5.79V11.07A1.21,1.21,0,0,0,4.58,9.86H4.46a1.21,1.21,0,0,0-1.21,1.21Z"/><path class="cls-1" d="M.27,8.8A.27.27,0,0,1,0,8.53V7.19a.27.27,0,0,1,.54,0V8.53A.27.27,0,0,1,.27,8.8Z"/><path class="cls-1" d="M8.86,9.15a.27.27,0,0,1-.27-.27V7.19a.27.27,0,0,1,.54,0v1.7A.27.27,0,0,1,8.86,9.15Z"/></svg>