<svg id="Layer_1" data-name="Layer 1" xmlns="http://www.w3.org/2000/svg" viewBox="0 0 18 12.83"><defs><style>.cls-1{fill:#494949;}</style></defs><title>Artboard 20</title><path class="cls-1" d="M17.72,5.08H.28A.28.28,0,0,1,0,4.8V2.86a.28.28,0,0,1,.28-.28H17.72a.28.28,0,0,1,.28.28V4.8A.28.28,0,0,1,17.72,5.08ZM.56,4.52H17.44V3.15H.56Z"/><rect class="cls-1" x="2.22" y="9.04" width="8.4" height="0.56"/><rect class="cls-1" x="2.22" y="7.75" width="1.94" height="0.56"/><rect class="cls-1" x="-0.12" y="3.55" width="2.74" height="0.56" transform="translate(-2.34 2.01) rotate(-45)"/><rect class="cls-1" x="1.82" y="3.55" width="2.74" height="0.56" transform="translate(-1.78 3.38) rotate(-45)"/><rect class="cls-1" x="3.76" y="3.55" width="2.74" height="0.56" transform="translate(-1.21 4.75) rotate(-45)"/><rect class="cls-1" x="5.69" y="3.55" width="2.74" height="0.56" transform="translate(-0.64 6.12) rotate(-45)"/><rect class="cls-1" x="7.63" y="3.55" width="2.74" height="0.56" transform="translate(-0.07 7.49) rotate(-45)"/><rect class="cls-1" x="9.57" y="3.55" width="2.74" height="0.56" transform="translate(0.49 8.86) rotate(-45)"/><rect class="cls-1" x="11.5" y="3.55" width="2.74" height="0.56" transform="translate(1.06 10.23) rotate(-45)"/><rect class="cls-1" x="13.44" y="3.55" width="2.74" height="0.56" transform="translate(1.63 11.6) rotate(-45)"/><rect class="cls-1" x="15.38" y="3.55" width="2.74" height="0.56" transform="translate(2.2 12.97) rotate(-45)"/><rect class="cls-1" x="5.45" y="7.75" width="3.23" height="0.56"/><path class="cls-1" d="M17.07,12.83H.93A.93.93,0,0,1,0,11.91V.93A.93.93,0,0,1,.93,0H17.07A.93.93,0,0,1,18,.93v11A.93.93,0,0,1,17.07,12.83ZM.93.56A.36.36,0,0,0,.56.93v11a.36.36,0,0,0,.36.36H17.07a.36.36,0,0,0,.36-.36V.93a.36.36,0,0,0-.36-.36Z"/></svg>