<svg id="Layer_1" data-name="Layer 1" xmlns="http://www.w3.org/2000/svg" viewBox="0 0 18 20.11"><defs><style>.cls-1{fill:#494949;}</style></defs><title>Artboard 22</title><path class="cls-1" d="M12,17.09H7a.29.29,0,1,1,0-.58h4.9c.44-.29,2.14-1.68,3.23-2.6a20.84,20.84,0,0,0,2.18-2.72,1.51,1.51,0,0,0-.72-.14,1.66,1.66,0,0,0-1.34.88.29.29,0,0,1-.09.09l-2.07,1.33a.29.29,0,0,1-.43-.14.72.72,0,0,0-.67-.47H10a2.07,2.07,0,0,1-.92-.35,2.07,2.07,0,0,0-.79-.32h-2A3.06,3.06,0,0,0,4.51,13a.29.29,0,1,1-.4-.43,3.61,3.61,0,0,1,2.21-1.08h2a2.37,2.37,0,0,1,1.08.39,1.91,1.91,0,0,0,.64.27h2a1.3,1.3,0,0,1,1,.54l1.76-1.13a2.24,2.24,0,0,1,1.8-1.1,1.69,1.69,0,0,1,1.33.46.29.29,0,0,1,0,.29,18.53,18.53,0,0,1-2.4,3.1l0,0c-.3.25-2.92,2.44-3.39,2.71A.29.29,0,0,1,12,17.09Z"/><path class="cls-1" d="M6.58,17.44a.29.29,0,0,1-.18-.52l.45-.35A.29.29,0,0,1,7,16.51h4.9c.44-.29,2.14-1.68,3.23-2.6a20.84,20.84,0,0,0,2.18-2.72,1.51,1.51,0,0,0-.72-.14,1.66,1.66,0,0,0-1.34.88.29.29,0,0,1-.09.09l-2.09,1.34a.29.29,0,0,1-.31-.49l2-1.31a2.24,2.24,0,0,1,1.8-1.1,1.68,1.68,0,0,1,1.33.46.29.29,0,0,1,0,.29,18.53,18.53,0,0,1-2.4,3.1l0,0c-.3.25-2.92,2.44-3.39,2.71a.29.29,0,0,1-.14,0H7.13l-.37.29A.29.29,0,0,1,6.58,17.44Z"/><path class="cls-1" d="M12,14.75H8.67a.29.29,0,0,1,0-.58H12a.71.71,0,0,0,0-1.43H10a2.07,2.07,0,0,1-.92-.35,2.07,2.07,0,0,0-.79-.32h-2a3.05,3.05,0,0,0-1.8.92L3.39,14.2A.29.29,0,0,1,3,13.8L4.1,12.58h0a3.61,3.61,0,0,1,2.21-1.08h2a2.37,2.37,0,0,1,1.08.39,1.91,1.91,0,0,0,.64.27h2a1.3,1.3,0,0,1,0,2.59Z"/><path class="cls-1" d="M5,20.11A.29.29,0,0,1,4.77,20L.09,15.33a.29.29,0,0,1,0-.41l2-2a.29.29,0,0,1,.41,0L7.2,17.6a.29.29,0,0,1,0,.41l-2,2A.29.29,0,0,1,5,20.11Zm-4.28-5L5,19.41l1.6-1.6L2.3,13.53Z"/><path class="cls-1" d="M2.64,15.75a.29.29,0,0,1-.21-.09L1.76,15a.29.29,0,1,1,.41-.41l.67.67a.29.29,0,0,1-.21.5Z"/><path class="cls-1" d="M9,10.47H9a.29.29,0,0,1-.24-.13,4.14,4.14,0,0,0-.7-.63C7.22,9,6.07,8.13,6,6.9A1.75,1.75,0,0,1,7.29,5.07,1.61,1.61,0,0,1,9,5.7a1.64,1.64,0,0,1,1.75-.62A1.75,1.75,0,0,1,12,6.89C12,8.12,10.8,9,9.95,9.71a4.31,4.31,0,0,0-.71.63A.29.29,0,0,1,9,10.47ZM7.7,5.6a1.1,1.1,0,0,0-.27,0,1.17,1.17,0,0,0-.87,1.22c.07,1,1.1,1.8,1.86,2.39.23.18.43.34.59.49.16-.15.36-.3.58-.49.76-.6,1.8-1.43,1.86-2.39a1.12,1.12,0,0,0-2.18-.48.29.29,0,0,1-.52,0A1.16,1.16,0,0,0,7.7,5.6Z"/><path class="cls-1" d="M17.71,9.29a.29.29,0,0,1-.21-.09L9,.7.5,9.2a.29.29,0,1,1-.41-.41L8.79.08a.3.3,0,0,1,.41,0l8.71,8.71a.29.29,0,0,1-.21.5Z"/><path class="cls-1" d="M3.47,5.88a.29.29,0,0,1-.29-.29V2.71a.29.29,0,0,1,.58,0V5.59A.29.29,0,0,1,3.47,5.88Z"/><path class="cls-1" d="M2.53,13.41a.29.29,0,0,1-.29-.29V6.76a.29.29,0,0,1,.58,0v6.36A.29.29,0,0,1,2.53,13.41Z"/><path class="cls-1" d="M15.25,11.64a.29.29,0,0,1-.29-.29V6.58a.29.29,0,1,1,.58,0v4.77A.29.29,0,0,1,15.25,11.64Z"/></svg>