<svg id="Layer_1" data-name="Layer 1" xmlns="http://www.w3.org/2000/svg" viewBox="0 0 24 10.68"><defs><style>.cls-1{fill:#494949;}</style></defs><title>Artboard 28</title><path class="cls-1" d="M17.43,6.66H6.65a.29.29,0,1,1,0-.57H17.43a.29.29,0,1,1,0,.57Z"/><path class="cls-1" d="M17.43,4.56H6.65a.29.29,0,1,1,0-.57H17.43a.29.29,0,1,1,0,.57Z"/><path class="cls-1" d="M19.78,10.52H17.43a.29.29,0,0,1-.29-.29V.29A.29.29,0,0,1,17.43,0h2.35a.29.29,0,0,1,.29.29v9.95A.29.29,0,0,1,19.78,10.52Zm-2.06-.57h1.77V.57H17.72Z"/><path class="cls-1" d="M22.12,9H20.21a.29.29,0,1,1,0-.57h1.63v-6H20.21a.29.29,0,1,1,0-.57h1.92a.29.29,0,0,1,.29.29V8.71A.29.29,0,0,1,22.12,9Z"/><path class="cls-1" d="M23.71,6.66H22.29a.29.29,0,1,1,0-.57h1.13V4.63H22.29a.29.29,0,1,1,0-.57h1.42a.29.29,0,0,1,.29.29v2A.29.29,0,0,1,23.71,6.66Z"/><path class="cls-1" d="M6.44,10.68H4.1a.29.29,0,0,1-.29-.29V.44A.29.29,0,0,1,4.1.15H6.44a.29.29,0,0,1,.29.29v9.95A.29.29,0,0,1,6.44,10.68ZM4.39,10.1H6.16V.73H4.39Z"/><path class="cls-1" d="M3.67,8.84H1.75a.29.29,0,0,1-.29-.29V2a.29.29,0,0,1,.29-.29H3.67a.29.29,0,0,1,0,.57H2v6H3.67a.29.29,0,1,1,0,.57Z"/><path class="cls-1" d="M1.55,6.62H.29A.29.29,0,0,1,0,6.33v-2A.29.29,0,0,1,.29,4H1.55a.29.29,0,1,1,0,.57h-1V6h1a.29.29,0,1,1,0,.57Z"/></svg>