<svg id="Layer_1" data-name="Layer 1" xmlns="http://www.w3.org/2000/svg" viewBox="0 0 20 13.39"><defs><style>.cls-1{fill:#494949;}</style></defs><title>Artboard 19</title><path class="cls-1" d="M14.38,8.51H5.65a.31.31,0,0,1,0-.61h8.73a.31.31,0,1,1,0,.61Z"/><path class="cls-1" d="M3.43,9.73A1.53,1.53,0,1,1,5,8.21,1.53,1.53,0,0,1,3.43,9.73Zm0-2.44a.91.91,0,1,0,.91.91A.92.92,0,0,0,3.43,7.29Z"/><path class="cls-1" d="M16.73,9.73a1.53,1.53,0,1,1,1.53-1.53A1.53,1.53,0,0,1,16.73,9.73Zm0-2.44a.91.91,0,1,0,.91.91A.92.92,0,0,0,16.73,7.29Z"/><path class="cls-1" d="M4.44,13.39H2a.78.78,0,0,1-.78-.78V10.8a.31.31,0,0,1,.31-.31H4.91a.31.31,0,0,1,.31.31v1.81A.78.78,0,0,1,4.44,13.39ZM1.83,11.11v1.51a.17.17,0,0,0,.17.17H4.44a.17.17,0,0,0,.17-.17V11.11Z"/><path class="cls-1" d="M18.09,13.39H15.65a.78.78,0,0,1-.78-.78V10.8a.31.31,0,0,1,.31-.31h3.39a.31.31,0,0,1,.31.31v1.81A.78.78,0,0,1,18.09,13.39Zm-2.61-2.28v1.51a.17.17,0,0,0,.17.17h2.45a.17.17,0,0,0,.17-.17V11.11Z"/><path class="cls-1" d="M11.29,3.26H8.67a.91.91,0,0,1,0-1.83h2.62a.91.91,0,0,1,0,1.83ZM8.67,2a.3.3,0,0,0,0,.6h2.62a.3.3,0,0,0,0-.6Z"/><rect class="cls-1" x="9.67" y="0.53" width="0.61" height="1.42"/><path class="cls-1" d="M17.52,11.11H2.5A2.48,2.48,0,0,1,0,8.63V7.78A2.48,2.48,0,0,1,2.5,5.3h15A2.48,2.48,0,0,1,20,7.78v.85A2.48,2.48,0,0,1,17.52,11.11ZM2.5,5.92A1.87,1.87,0,0,0,.63,7.78v.85A1.87,1.87,0,0,0,2.5,10.5h15a1.87,1.87,0,0,0,1.87-1.87V7.78a1.87,1.87,0,0,0-1.87-1.87Z"/><path class="cls-1" d="M18.42,5.93H1.54a.31.31,0,0,1-.27-.45L3.51,1.34A2.57,2.57,0,0,1,5.77,0h8.41a2.57,2.57,0,0,1,2.26,1.34l2.24,4.13a.31.31,0,0,1-.27.45ZM2.05,5.31H17.9l-2-3.68a2,2,0,0,0-1.72-1H5.77a2,2,0,0,0-1.72,1Z"/><path class="cls-1" d="M2.26,4.34h-2a.31.31,0,0,1,0-.61h2a.31.31,0,0,1,0,.61Z"/><path class="cls-1" d="M19.69,4.34h-2a.31.31,0,0,1,0-.61h2a.31.31,0,1,1,0,.61Z"/></svg>