<svg id="Layer_1" data-name="Layer 1" xmlns="http://www.w3.org/2000/svg" viewBox="0 0 21 14.43"><defs><style>.cls-1{fill:#494949;}</style></defs><title>Artboard 18</title><path class="cls-1" d="M20.71,9.58H.29A.29.29,0,0,1,0,9.29V1.92A1.92,1.92,0,0,1,1.92,0H19.08A1.92,1.92,0,0,1,21,1.92V9.29A.29.29,0,0,1,20.71,9.58ZM.58,9H20.42V1.92A1.34,1.34,0,0,0,19.08.58H1.92A1.34,1.34,0,0,0,.58,1.92Z"/><path class="cls-1" d="M4.39,14.43a.39.39,0,0,1-.26-.1l-.8-.75A.39.39,0,0,1,3.85,13l.15.14V10.92a.39.39,0,1,1,.77,0V14a.39.39,0,0,1-.39.39Z"/><path class="cls-1" d="M4.39,14.43a.39.39,0,0,1-.27-.66L4.87,13a.39.39,0,0,1,.54.54l-.75.75A.38.38,0,0,1,4.39,14.43Z"/><path class="cls-1" d="M10.52,14.43a.39.39,0,0,1-.26-.1l-.8-.75A.39.39,0,0,1,10,13l.15.14V10.92a.39.39,0,1,1,.77,0V14a.39.39,0,0,1-.39.39Z"/><path class="cls-1" d="M10.52,14.43a.39.39,0,0,1-.27-.66L11,13a.39.39,0,1,1,.54.54l-.75.75A.38.38,0,0,1,10.52,14.43Z"/><path class="cls-1" d="M16.66,14.43a.39.39,0,0,1-.26-.1l-.8-.75a.39.39,0,0,1,.53-.56l.15.14V10.92a.39.39,0,1,1,.77,0V14a.39.39,0,0,1-.39.39Z"/><path class="cls-1" d="M16.66,14.43a.39.39,0,0,1-.27-.66l.75-.75a.39.39,0,1,1,.54.54l-.75.75A.38.38,0,0,1,16.66,14.43Z"/><path class="cls-1" d="M18.57,8.11H2.43a.93.93,0,0,1,0-1.87H18.57a.93.93,0,1,1,0,1.87ZM2.43,6.82a.36.36,0,0,0,0,.71H18.57a.36.36,0,1,0,0-.71Z"/><path class="cls-1" d="M18.43,2.77H15.64a.29.29,0,1,1,0-.58h2.79a.29.29,0,1,1,0,.58Z"/></svg>