<?xml version="1.0" encoding="utf-8"?>
<!-- Generator: Adobe Illustrator 16.0.0, SVG Export Plug-In . SVG Version: 6.00 Build 0)  -->
<!DOCTYPE svg PUBLIC "-//W3C//DTD SVG 1.1//EN" "http://www.w3.org/Graphics/SVG/1.1/DTD/svg11.dtd">
<svg version="1.1" xmlns="http://www.w3.org/2000/svg" xmlns:xlink="http://www.w3.org/1999/xlink" x="0px" y="0px" width="74px"
	 height="71.333px" viewBox="-5 0 74 71.333" enable-background="new -5 0 74 71.333" xml:space="preserve">
<g id="Layer_1">
	<title>Artboard 19</title>
</g>
<g id="레이어_2" display="none">
	<path display="inline" d="M46.016,47.309H18.079c-0.539-0.099-0.896-0.615-0.798-1.154c0.073-0.406,0.392-0.725,0.798-0.799h27.937
		c0.539-0.098,1.056,0.26,1.153,0.799s-0.26,1.056-0.799,1.154C46.253,47.329,46.133,47.329,46.016,47.309L46.016,47.309z"/>
	<path display="inline" d="M10.976,51.212c-2.703-0.071-4.837-2.319-4.767-5.022c0.071-2.703,2.319-4.837,5.022-4.766
		c2.665,0.069,4.784,2.258,4.769,4.924c-0.018,2.704-2.223,4.883-4.927,4.865C11.041,51.213,11.008,51.213,10.976,51.212z
		 M10.976,43.404c-1.608,0-2.912,1.304-2.912,2.912c0,1.607,1.304,2.912,2.912,2.912s2.912-1.305,2.912-2.912
		C13.87,44.715,12.576,43.422,10.976,43.404z"/>
	<path display="inline" d="M53.535,51.212c-2.704,0-4.896-2.192-4.896-4.896c0-2.705,2.191-4.896,4.896-4.896
		s4.896,2.191,4.896,4.896C58.432,49.02,56.239,51.212,53.535,51.212L53.535,51.212z M53.535,43.404
		c-1.607,0-2.912,1.304-2.912,2.912c0,1.607,1.305,2.912,2.912,2.912c1.608,0,2.912-1.305,2.912-2.912
		C56.431,44.715,55.137,43.422,53.535,43.404z"/>
	<path display="inline" d="M59.035,11.962c-2.704,0-4.896-2.192-4.896-4.896c0-2.705,2.191-4.896,4.896-4.896
		s4.896,2.191,4.896,4.896C63.932,9.77,61.739,11.962,59.035,11.962L59.035,11.962z M59.035,4.154c-1.607,0-2.912,1.304-2.912,2.912
		c0,1.607,1.305,2.912,2.912,2.912c1.608,0,2.912-1.305,2.912-2.912C61.931,5.465,60.637,4.172,59.035,4.154z"/>
	<path display="inline" d="M14.207,62.924H6.399c-1.378,0-2.496-1.117-2.496-2.496v-5.792c0-0.548,0.444-0.991,0.992-0.991l0,0
		h10.816c0.548,0,0.991,0.443,0.991,0.991l0,0v5.792C16.703,61.807,15.586,62.924,14.207,62.924z M5.855,55.628v4.832
		c0,0.3,0.243,0.544,0.544,0.544l0,0h7.808c0.301,0,0.545-0.244,0.545-0.544l0,0v-4.832H5.855z"/>
	<path display="inline" d="M57.888,62.924h-7.809c-1.378,0-2.495-1.117-2.495-2.496v-5.792c0-0.548,0.443-0.991,0.991-0.991l0,0
		h10.849c0.548,0,0.991,0.443,0.991,0.991v5.792c0.001,1.379-1.117,2.496-2.495,2.496C57.909,62.924,57.898,62.924,57.888,62.924z
		 M49.535,55.628v4.832c0,0.3,0.244,0.544,0.544,0.544l0,0h7.841c0.3,0,0.544-0.244,0.544-0.544l0,0v-4.832H49.535z"/>
	<path display="inline" d="M36.128,30.508h-8.385c-1.617,0-2.928-1.311-2.928-2.928s1.311-2.928,2.928-2.928h8.385
		c1.616,0,2.928,1.311,2.928,2.928S37.744,30.508,36.128,30.508z M27.743,26.476c-0.53,0-0.959,0.43-0.959,0.96
		c0,0.53,0.43,0.959,0.959,0.959h8.385c0.529,0,0.96-0.43,0.96-0.96s-0.431-0.96-0.96-0.96H27.743z"/>
	<rect x="30.943" y="21.772" display="inline" width="1.952" height="4.544"/>
	<path display="inline" d="M63.008,33.964h-6.4c-0.539-0.098-0.896-0.614-0.799-1.153c0.074-0.406,0.393-0.725,0.799-0.799h6.4
		c0.539-0.098,1.055,0.26,1.153,0.799c0.098,0.539-0.26,1.056-0.799,1.153C63.245,33.985,63.125,33.985,63.008,33.964z"/>
	<g display="inline">
		<g>
			<path fill="none" d="M8.018,30.304L8.69,29.06c-0.419-0.079-0.829-0.19-1.22-0.339C7.732,29.207,7.917,29.74,8.018,30.304z"/>
			<path fill="none" d="M17.929,22.13c-0.269,0.024-0.534,0.065-0.794,0.123c-0.093,3.533-2.768,6.46-6.262,6.879L6.56,37.068h50.72
				L50.88,25.292c-1.137-1.968-3.231-3.187-5.504-3.2H21.043c-0.451,0.211-0.951,0.337-1.48,0.356
				C18.981,22.469,18.431,22.346,17.929,22.13z"/>
			<g>
				<path fill="none" d="M53.664,30.415c-0.461,1.182-0.602,2.503-0.329,3.838c0.217,1.067,0.688,2.01,1.314,2.815h2.63
					L53.664,30.415z"/>
				<path fill="none" d="M45.376,22.092H42.88c1.019,1.808,2.837,3.134,5.052,3.423c0.3,0.038,0.595,0.057,0.888,0.057
					c0.703,0,1.385-0.119,2.031-0.322C49.708,23.307,47.631,22.105,45.376,22.092z"/>
				<path fill="none" d="M52.607,24.364l7.168,13.216c0.248,0.488,0.052,1.086-0.437,1.333c-0.133,0.067-0.278,0.104-0.428,0.106
					l0.032,0.032H57.12c0.898,0.427,1.884,0.682,2.915,0.682c0.45,0,0.911-0.044,1.371-0.138c3.705-0.754,6.097-4.368,5.343-8.072
					c-0.66-3.243-3.514-5.481-6.7-5.481c-0.004,0-0.006,0-0.01,0c0.194-2.198-1.381-4.176-3.589-4.463
					c-0.179-0.024-0.359-0.035-0.536-0.035c-0.318,0-0.629,0.037-0.931,0.105c0.294-0.622,0.495-1.3,0.589-2.019
					c0.485-3.734-2.15-7.155-5.883-7.64c-0.299-0.039-0.594-0.057-0.888-0.057c-3.137,0-5.891,2.164-6.62,5.227
					c-0.567-0.574-1.323-0.971-2.186-1.083c-0.163-0.021-0.328-0.031-0.487-0.031c-1.856,0-3.471,1.378-3.715,3.269
					c-0.033,0.257-0.04,0.512-0.021,0.761h9.604C48.39,20.072,51.165,21.717,52.607,24.364z"/>
				<path fill="none" d="M39.031,23.519c0.163,0.021,0.326,0.031,0.485,0.031c1.185,0,2.266-0.563,2.96-1.458h-5.93
					C37.133,22.85,38.006,23.385,39.031,23.519z"/>
				<g>
					<path fill="none" d="M58.521,39.551c-0.374-0.174-0.767-0.312-1.177-0.406C57.725,39.311,58.115,39.453,58.521,39.551z"/>
					<path fill="none" d="M54.535,39.698c-0.25-0.201-0.482-0.42-0.707-0.646h3c-0.271-0.038-0.546-0.063-0.828-0.063L8,39.02
						c-3.293,0-5.967,2.66-5.984,5.953v2.719c0,3.306,2.679,5.984,5.984,5.984h48c3.305,0,5.983-2.679,5.983-5.984v-2.719
						c0-1.252-0.386-2.413-1.042-3.373c-0.302,0.031-0.604,0.048-0.906,0.048C58.045,41.647,56.091,40.955,54.535,39.698z"/>
					<path d="M57.12,39.052h-0.292c0.175,0.024,0.347,0.054,0.517,0.093C57.271,39.113,57.193,39.086,57.12,39.052z"/>
				</g>
				<path d="M6.56,37.068l4.313-7.936c-0.199,0.024-0.398,0.045-0.602,0.052c-0.542,0.02-1.069-0.028-1.581-0.125l-0.673,1.244
					c0.044,0.246,0.077,0.495,0.086,0.752c0.082,2.263-1.27,4.232-3.235,5.069l-0.805,1.486c-0.067,0.133-0.104,0.279-0.106,0.428
					c-0.012,0.548,0.423,1.002,0.971,1.013h48.9c-0.584-0.589-1.078-1.258-1.474-1.983H6.56z"/>
				<path d="M42.477,22.092h0.403c-0.059-0.105-0.126-0.206-0.18-0.314C42.632,21.888,42.555,21.99,42.477,22.092z"/>
				<path d="M54.649,37.068h-2.295c0.396,0.726,0.89,1.395,1.474,1.983h3.292C56.155,38.594,55.311,37.919,54.649,37.068z"/>
			</g>
			<path d="M17.133,21.684c0.002,0.04,0.006,0.08,0.008,0.121c0.005,0.151-0.002,0.299-0.006,0.448
				c0.261-0.057,0.525-0.098,0.794-0.123C17.647,22.009,17.376,21.867,17.133,21.684z"/>
		</g>
		<path d="M68.623,31.142c-0.406-1.99-1.495-3.789-3.074-5.064c-1.092-0.88-2.377-1.484-3.734-1.767
			c-0.202-0.873-0.601-1.696-1.178-2.414c-0.815-1.018-1.918-1.733-3.161-2.063c0.594-4.758-2.779-9.122-7.539-9.74
			c-0.375-0.049-0.758-0.074-1.135-0.074c-1.945,0-3.862,0.666-5.396,1.875c-0.878,0.691-1.612,1.546-2.164,2.506
			c-0.322-0.102-0.654-0.176-0.998-0.221c-0.243-0.031-0.489-0.048-0.734-0.048c-2.833,0-5.247,2.123-5.612,4.936
			c-0.045,0.34-0.053,0.677-0.036,1.008h-8.892c0.136-0.524,0.203-1.077,0.183-1.646c-0.052-1.492-0.675-2.886-1.75-3.922
			c-1.073-1.033-2.484-1.602-3.971-1.602c-0.068,0-0.139,0.001-0.208,0.003c-1.539,0.055-2.946,0.725-3.955,1.789
			c-0.368-0.263-0.754-0.499-1.155-0.703c-1.26-0.642-2.674-0.981-4.092-0.981c-0.108,0-0.218,0.002-0.327,0.007
			c-2.414,0.086-4.65,1.106-6.297,2.875c-1.646,1.768-2.505,4.071-2.418,6.485C1,22.993,1.084,23.598,1.226,24.186
			c-3.337,0.74-5.784,3.781-5.659,7.317c0.067,1.884,0.853,3.642,2.21,4.95c1.355,1.305,3.134,2.022,5.012,2.022
			c0.086,0,0.175-0.002,0.261-0.005c0.13-0.005,0.258-0.021,0.387-0.032C1.362,39.869,0,42.261,0,44.973v2.719
			c0,0.021,0,0.043,0,0.064c0.035,4.383,3.617,7.907,8,7.872h48.063c4.383,0,7.937-3.553,7.937-7.937v-2.719
			c0-0.021-0.001-0.043-0.001-0.064c-0.011-1.375-0.371-2.665-0.995-3.787c1.769-0.633,3.285-1.805,4.341-3.399
			C68.637,35.771,69.091,33.435,68.623,31.142z M2.982,36.559c-0.065,0.002-0.13,0.002-0.193,0.002c-2.849,0-5.207-2.257-5.31-5.126
			c-0.104-2.934,2.189-5.397,5.124-5.502c0.064-0.001,0.127-0.002,0.191-0.002c0.467,0,0.919,0.061,1.353,0.174
			c-0.747-1.081-1.205-2.38-1.255-3.79c-0.14-3.936,2.936-7.24,6.871-7.38c0.087-0.003,0.173-0.004,0.259-0.004
			c2.313,0,4.385,1.111,5.69,2.842c0.38-1.638,1.819-2.885,3.579-2.949c0.047-0.001,0.093-0.002,0.14-0.002
			c2.043,0,3.736,1.619,3.809,3.679c0.02,0.559-0.088,1.09-0.287,1.577c-0.323,0.79-0.908,1.438-1.645,1.86
			c-0.519,0.296-1.105,0.489-1.744,0.512c-0.046,0.002-0.092,0.002-0.138,0.002c-0.856,0-1.651-0.284-2.292-0.766
			c0.002,0.04,0.006,0.08,0.008,0.121c0.141,3.935-2.935,7.238-6.87,7.379c-0.087,0.003-0.173,0.004-0.259,0.004
			c-0.892,0-1.75-0.165-2.541-0.468c0.376,0.698,0.604,1.488,0.633,2.335C8.209,33.989,5.916,36.453,2.982,36.559z M8.083,36.172
			c1.29-1.386,1.975-3.182,1.937-5.069c0.105,0,0.214-0.002,0.319-0.006c2.414-0.086,4.65-1.107,6.296-2.875
			c1.042-1.12,1.769-2.453,2.139-3.895c0.215,0.024,0.431,0.036,0.65,0.036c0.068,0,0.138-0.001,0.206-0.004
			c1.787-0.063,3.354-0.944,4.359-2.268h10.352h2.205h5.93c0.078-0.102,0.155-0.204,0.224-0.314c0.054,0.108,0.121,0.209,0.18,0.314
			h2.496c2.255,0.014,4.332,1.215,5.475,3.157c0.009,0.015,0.021,0.028,0.029,0.043l2.784,5.123l3.615,6.654h-0.568
			c-0.234-0.02-0.471-0.034-0.711-0.032H8c-0.021-0.001-0.043-0.001-0.064-0.001c-0.3,0-0.595,0.021-0.886,0.053
			C7.418,36.818,7.766,36.514,8.083,36.172z M61.983,47.691c0,3.306-2.679,5.984-5.983,5.984H8c-3.306,0-5.984-2.679-5.984-5.984
			v-2.719C2.033,41.68,4.707,39.02,8,39.02l48-0.031c0.282,0,0.557,0.025,0.828,0.063h0.292c0.073,0.034,0.15,0.062,0.225,0.093
			c0.41,0.095,0.803,0.232,1.177,0.406c0.979,0.456,1.815,1.164,2.42,2.049c0.656,0.96,1.042,2.121,1.042,3.373V47.691z
			 M61.796,39.495c-0.56-0.585-1.208-1.084-1.923-1.478c-0.001-0.148-0.026-0.297-0.098-0.438l-7.168-13.216
			c-1.442-2.647-4.218-4.292-7.231-4.288h-9.604c-0.019-0.249-0.012-0.503,0.021-0.761c0.244-1.891,1.858-3.269,3.715-3.269
			c0.159,0,0.324,0.01,0.487,0.031c0.862,0.112,1.618,0.509,2.186,1.083c0.729-3.063,3.483-5.227,6.62-5.227
			c0.294,0,0.589,0.018,0.888,0.057c3.732,0.485,6.368,3.906,5.883,7.64c-0.094,0.719-0.295,1.396-0.589,2.019
			c0.302-0.068,0.612-0.105,0.931-0.105c0.177,0,0.357,0.011,0.536,0.035c2.208,0.287,3.783,2.265,3.589,4.463
			c0.004,0,0.006,0,0.01,0c3.187,0,6.04,2.238,6.7,5.481C67.476,35.095,65.275,38.574,61.796,39.495z"/>
	</g>
</g>
<g id="레이어_2_사본" display="none">
	<path display="inline" d="M46.016,47.309H18.079c-0.539-0.099-0.896-0.615-0.798-1.154c0.073-0.406,0.392-0.725,0.798-0.799h27.937
		c0.539-0.098,1.056,0.26,1.153,0.799s-0.26,1.056-0.799,1.154C46.253,47.329,46.133,47.329,46.016,47.309L46.016,47.309z"/>
	<path display="inline" d="M10.976,51.212c-2.703-0.071-4.837-2.319-4.767-5.022c0.071-2.703,2.319-4.837,5.022-4.766
		c2.665,0.069,4.784,2.258,4.769,4.924c-0.018,2.704-2.223,4.883-4.927,4.865C11.041,51.213,11.008,51.213,10.976,51.212z
		 M10.976,43.404c-1.608,0-2.912,1.304-2.912,2.912c0,1.607,1.304,2.912,2.912,2.912s2.912-1.305,2.912-2.912
		C13.87,44.715,12.576,43.422,10.976,43.404z"/>
	<path display="inline" d="M53.535,51.212c-2.704,0-4.896-2.192-4.896-4.896c0-2.705,2.191-4.896,4.896-4.896
		s4.896,2.191,4.896,4.896C58.432,49.02,56.239,51.212,53.535,51.212L53.535,51.212z M53.535,43.404
		c-1.607,0-2.912,1.304-2.912,2.912c0,1.607,1.305,2.912,2.912,2.912c1.608,0,2.912-1.305,2.912-2.912
		C56.431,44.715,55.137,43.422,53.535,43.404z"/>
	<path display="inline" d="M14.207,62.924H6.399c-1.378,0-2.496-1.117-2.496-2.496v-5.792c0-0.548,0.444-0.991,0.992-0.991l0,0
		h10.816c0.548,0,0.991,0.443,0.991,0.991l0,0v5.792C16.703,61.807,15.586,62.924,14.207,62.924z M5.855,55.628v4.832
		c0,0.3,0.243,0.544,0.544,0.544l0,0h7.808c0.301,0,0.545-0.244,0.545-0.544l0,0v-4.832H5.855z"/>
	<path display="inline" d="M57.888,62.924h-7.809c-1.378,0-2.495-1.117-2.495-2.496v-5.792c0-0.548,0.443-0.991,0.991-0.991l0,0
		h10.849c0.548,0,0.991,0.443,0.991,0.991v5.792c0.001,1.379-1.117,2.496-2.495,2.496C57.909,62.924,57.898,62.924,57.888,62.924z
		 M49.535,55.628v4.832c0,0.3,0.244,0.544,0.544,0.544l0,0h7.841c0.3,0,0.544-0.244,0.544-0.544l0,0v-4.832H49.535z"/>
	<path display="inline" d="M36.128,30.508h-8.385c-1.617,0-2.928-1.311-2.928-2.928s1.311-2.928,2.928-2.928h8.385
		c1.616,0,2.928,1.311,2.928,2.928S37.744,30.508,36.128,30.508z M27.743,26.476c-0.53,0-0.959,0.43-0.959,0.96
		c0,0.53,0.43,0.959,0.959,0.959h8.385c0.529,0,0.96-0.43,0.96-0.96s-0.431-0.96-0.96-0.96H27.743z"/>
	<rect x="30.943" y="21.772" display="inline" width="1.952" height="4.544"/>
	<path display="inline" d="M63.008,33.964h-6.4c-0.539-0.098-0.896-0.614-0.799-1.153c0.074-0.406,0.393-0.725,0.799-0.799h6.4
		c0.539-0.098,1.055,0.26,1.153,0.799c0.098,0.539-0.26,1.056-0.799,1.153C63.245,33.985,63.125,33.985,63.008,33.964z"/>
	<g display="inline">
		<g>
			<g>
				<path d="M4.672,6.222c1.39,0,2.516,1.126,2.516,2.516c0,1.389-1.126,2.516-2.516,2.516c-1.389,0-2.515-1.127-2.515-2.516
					C2.157,7.348,3.283,6.222,4.672,6.222 M4.672,4.766c-2.189,0-3.97,1.782-3.97,3.971c0,2.189,1.781,3.97,3.97,3.97
					c2.19,0,3.971-1.781,3.971-3.97C8.643,6.548,6.862,4.766,4.672,4.766L4.672,4.766z"/>
			</g>
		</g>
	</g>
	<g display="inline">
		<g>
			<g>
				<path d="M34.838,7.555c1.391,0,2.516,1.126,2.516,2.516c0,1.389-1.125,2.516-2.516,2.516c-1.389,0-2.514-1.127-2.514-2.516
					C32.324,8.681,33.449,7.555,34.838,7.555 M34.838,6.1c-2.188,0-3.97,1.782-3.97,3.971c0,2.189,1.781,3.97,3.97,3.97
					c2.19,0,3.972-1.781,3.972-3.97C38.81,7.881,37.028,6.1,34.838,6.1L34.838,6.1z"/>
			</g>
		</g>
	</g>
	<g display="inline">
		<g>
			<g>
				<path d="M62.198,12.262c1.704,0,3.083,1.381,3.083,3.085s-1.379,3.085-3.083,3.085s-3.086-1.381-3.086-3.085
					S60.494,12.262,62.198,12.262 M62.198,10.71c-2.557,0-4.637,2.081-4.637,4.637s2.08,4.637,4.637,4.637
					c2.556,0,4.636-2.081,4.636-4.637S64.754,10.71,62.198,10.71L62.198,10.71z"/>
			</g>
		</g>
	</g>
	<g display="inline">
		<g>
			<path fill="none" d="M8.018,30.304L8.69,29.06c-0.419-0.079-0.829-0.19-1.22-0.339C7.732,29.207,7.917,29.74,8.018,30.304z"/>
			<path fill="none" d="M17.929,22.13c-0.269,0.024-0.534,0.065-0.794,0.123c-0.093,3.533-2.768,6.46-6.262,6.879L6.56,37.068h50.72
				L50.88,25.292c-1.137-1.968-3.231-3.187-5.504-3.2H21.043c-0.451,0.211-0.951,0.337-1.48,0.356
				C18.981,22.469,18.431,22.346,17.929,22.13z"/>
			<g>
				<path fill="none" d="M53.664,30.415c-0.461,1.182-0.602,2.503-0.329,3.838c0.217,1.067,0.688,2.01,1.314,2.815h2.63
					L53.664,30.415z"/>
				<path fill="none" d="M45.376,22.092H42.88c1.019,1.808,2.837,3.134,5.052,3.423c0.3,0.038,0.595,0.057,0.888,0.057
					c0.703,0,1.385-0.119,2.031-0.322C49.708,23.307,47.631,22.105,45.376,22.092z"/>
				<path fill="none" d="M52.607,24.364l7.168,13.216c0.248,0.488,0.052,1.086-0.437,1.333c-0.133,0.067-0.278,0.104-0.428,0.106
					l0.032,0.032H57.12c0.898,0.427,1.884,0.682,2.915,0.682c0.45,0,0.911-0.044,1.371-0.138c3.705-0.754,6.097-4.368,5.343-8.072
					c-0.66-3.243-3.514-5.481-6.7-5.481c-0.004,0-0.006,0-0.01,0c0.194-2.198-1.381-4.176-3.589-4.463
					c-0.179-0.024-0.359-0.035-0.536-0.035c-0.318,0-0.629,0.037-0.931,0.105c0.294-0.622,0.495-1.3,0.589-2.019
					c0.485-3.734-2.15-7.155-5.883-7.64c-0.299-0.039-0.594-0.057-0.888-0.057c-3.137,0-5.891,2.164-6.62,5.227
					c-0.567-0.574-1.323-0.971-2.186-1.083c-0.163-0.021-0.328-0.031-0.487-0.031c-1.856,0-3.471,1.378-3.715,3.269
					c-0.033,0.257-0.04,0.512-0.021,0.761h9.604C48.39,20.072,51.165,21.717,52.607,24.364z"/>
				<path fill="none" d="M39.031,23.519c0.163,0.021,0.326,0.031,0.485,0.031c1.185,0,2.266-0.563,2.96-1.458h-5.93
					C37.133,22.85,38.006,23.385,39.031,23.519z"/>
				<g>
					<path fill="none" d="M58.521,39.551c-0.374-0.174-0.767-0.312-1.177-0.406C57.725,39.311,58.115,39.453,58.521,39.551z"/>
					<path fill="none" d="M54.535,39.698c-0.25-0.201-0.482-0.42-0.707-0.646h3c-0.271-0.038-0.546-0.063-0.828-0.063L8,39.02
						c-3.293,0-5.967,2.66-5.984,5.953v2.719c0,3.306,2.679,5.984,5.984,5.984h48c3.305,0,5.983-2.679,5.983-5.984v-2.719
						c0-1.252-0.386-2.413-1.042-3.373c-0.302,0.031-0.604,0.048-0.906,0.048C58.045,41.647,56.091,40.955,54.535,39.698z"/>
					<path d="M57.12,39.052h-0.292c0.175,0.024,0.347,0.054,0.517,0.093C57.271,39.113,57.193,39.086,57.12,39.052z"/>
				</g>
				<path d="M6.56,37.068l4.313-7.936c-0.199,0.024-0.398,0.045-0.602,0.052c-0.542,0.02-1.069-0.028-1.581-0.125l-0.673,1.244
					c0.044,0.246,0.077,0.495,0.086,0.752c0.082,2.263-1.27,4.232-3.235,5.069l-0.805,1.486c-0.067,0.133-0.104,0.279-0.106,0.428
					c-0.012,0.548,0.423,1.002,0.971,1.013h48.9c-0.584-0.589-1.078-1.258-1.474-1.983H6.56z"/>
				<path d="M42.477,22.092h0.403c-0.059-0.105-0.126-0.206-0.18-0.314C42.632,21.888,42.555,21.99,42.477,22.092z"/>
				<path d="M54.649,37.068h-2.295c0.396,0.726,0.89,1.395,1.474,1.983h3.292C56.155,38.594,55.311,37.919,54.649,37.068z"/>
			</g>
			<path d="M17.133,21.684c0.002,0.04,0.006,0.08,0.008,0.121c0.005,0.151-0.002,0.299-0.006,0.448
				c0.261-0.057,0.525-0.098,0.794-0.123C17.647,22.009,17.376,21.867,17.133,21.684z"/>
		</g>
		<path d="M68.623,31.142c-0.406-1.99-1.495-3.789-3.074-5.064c-1.092-0.88-2.377-1.484-3.734-1.767
			c-0.202-0.873-0.601-1.696-1.178-2.414c-0.815-1.018-1.918-1.733-3.161-2.063c0.594-4.758-2.779-9.122-7.539-9.74
			c-0.375-0.049-0.758-0.074-1.135-0.074c-1.945,0-3.862,0.666-5.396,1.875c-0.878,0.691-1.612,1.546-2.164,2.506
			c-0.322-0.102-0.654-0.176-0.998-0.221c-0.243-0.031-0.489-0.048-0.734-0.048c-2.833,0-5.247,2.123-5.612,4.936
			c-0.045,0.34-0.053,0.677-0.036,1.008h-8.892c0.136-0.524,0.203-1.077,0.183-1.646c-0.052-1.492-0.675-2.886-1.75-3.922
			c-1.073-1.033-2.484-1.602-3.971-1.602c-0.068,0-0.139,0.001-0.208,0.003c-1.539,0.055-2.946,0.725-3.955,1.789
			c-0.368-0.263-0.754-0.499-1.155-0.703c-1.26-0.642-2.674-0.981-4.092-0.981c-0.108,0-0.218,0.002-0.327,0.007
			c-2.414,0.086-4.65,1.106-6.297,2.875c-1.646,1.768-2.505,4.071-2.418,6.485C1,22.993,1.084,23.598,1.226,24.186
			c-3.337,0.74-5.784,3.781-5.659,7.317c0.067,1.884,0.853,3.642,2.21,4.95c1.355,1.305,3.134,2.022,5.012,2.022
			c0.086,0,0.175-0.002,0.261-0.005c0.13-0.005,0.258-0.021,0.387-0.032C1.362,39.869,0,42.261,0,44.973v2.719
			c0,0.021,0,0.043,0,0.064c0.035,4.383,3.617,7.907,8,7.872h48.063c4.383,0,7.937-3.553,7.937-7.937v-2.719
			c0-0.021-0.001-0.043-0.001-0.064c-0.011-1.375-0.371-2.665-0.995-3.787c1.769-0.633,3.285-1.805,4.341-3.399
			C68.637,35.771,69.091,33.435,68.623,31.142z M2.982,36.559c-0.065,0.002-0.13,0.002-0.193,0.002c-2.849,0-5.207-2.257-5.31-5.126
			c-0.104-2.934,2.189-5.397,5.124-5.502c0.064-0.001,0.127-0.002,0.191-0.002c0.467,0,0.919,0.061,1.353,0.174
			c-0.747-1.081-1.205-2.38-1.255-3.79c-0.14-3.936,2.936-7.24,6.871-7.38c0.087-0.003,0.173-0.004,0.259-0.004
			c2.313,0,4.385,1.111,5.69,2.842c0.38-1.638,1.819-2.885,3.579-2.949c0.047-0.001,0.093-0.002,0.14-0.002
			c2.043,0,3.736,1.619,3.809,3.679c0.02,0.559-0.088,1.09-0.287,1.577c-0.323,0.79-0.908,1.438-1.645,1.86
			c-0.519,0.296-1.105,0.489-1.744,0.512c-0.046,0.002-0.092,0.002-0.138,0.002c-0.856,0-1.651-0.284-2.292-0.766
			c0.002,0.04,0.006,0.08,0.008,0.121c0.141,3.935-2.935,7.238-6.87,7.379c-0.087,0.003-0.173,0.004-0.259,0.004
			c-0.892,0-1.75-0.165-2.541-0.468c0.376,0.698,0.604,1.488,0.633,2.335C8.209,33.989,5.916,36.453,2.982,36.559z M8.083,36.172
			c1.29-1.386,1.975-3.182,1.937-5.069c0.105,0,0.214-0.002,0.319-0.006c2.414-0.086,4.65-1.107,6.296-2.875
			c1.042-1.12,1.769-2.453,2.139-3.895c0.215,0.024,0.431,0.036,0.65,0.036c0.068,0,0.138-0.001,0.206-0.004
			c1.787-0.063,3.354-0.944,4.359-2.268h10.352h2.205h5.93c0.078-0.102,0.155-0.204,0.224-0.314c0.054,0.108,0.121,0.209,0.18,0.314
			h2.496c2.255,0.014,4.332,1.215,5.475,3.157c0.009,0.015,0.021,0.028,0.029,0.043l2.784,5.123l3.615,6.654h-0.568
			c-0.234-0.02-0.471-0.034-0.711-0.032H8c-0.021-0.001-0.043-0.001-0.064-0.001c-0.3,0-0.595,0.021-0.886,0.053
			C7.418,36.818,7.766,36.514,8.083,36.172z M61.983,47.691c0,3.306-2.679,5.984-5.983,5.984H8c-3.306,0-5.984-2.679-5.984-5.984
			v-2.719C2.033,41.68,4.707,39.02,8,39.02l48-0.031c0.282,0,0.557,0.025,0.828,0.063h0.292c0.073,0.034,0.15,0.062,0.225,0.093
			c0.41,0.095,0.803,0.232,1.177,0.406c0.979,0.456,1.815,1.164,2.42,2.049c0.656,0.96,1.042,2.121,1.042,3.373V47.691z
			 M61.796,39.495c-0.56-0.585-1.208-1.084-1.923-1.478c-0.001-0.148-0.026-0.297-0.098-0.438l-7.168-13.216
			c-1.442-2.647-4.218-4.292-7.231-4.288h-9.604c-0.019-0.249-0.012-0.503,0.021-0.761c0.244-1.891,1.858-3.269,3.715-3.269
			c0.159,0,0.324,0.01,0.487,0.031c0.862,0.112,1.618,0.509,2.186,1.083c0.729-3.063,3.483-5.227,6.62-5.227
			c0.294,0,0.589,0.018,0.888,0.057c3.732,0.485,6.368,3.906,5.883,7.64c-0.094,0.719-0.295,1.396-0.589,2.019
			c0.302-0.068,0.612-0.105,0.931-0.105c0.177,0,0.357,0.011,0.536,0.035c2.208,0.287,3.783,2.265,3.589,4.463
			c0.004,0,0.006,0,0.01,0c3.187,0,6.04,2.238,6.7,5.481C67.476,35.095,65.275,38.574,61.796,39.495z"/>
	</g>
</g>
<g id="레이어_4">
	<path d="M46.152,45.792H17.934c-0.544-0.1-0.905-0.622-0.804-1.165c0.073-0.411,0.394-0.731,0.804-0.808h28.219
		c0.545-0.099,1.064,0.263,1.164,0.808c0.098,0.543-0.263,1.065-0.807,1.165C46.392,45.813,46.271,45.813,46.152,45.792
		L46.152,45.792z"/>
	<path d="M53.748,49.734c-2.732,0-4.945-2.214-4.945-4.944c0-2.733,2.213-4.946,4.945-4.946c2.729,0,4.946,2.213,4.946,4.946
		C58.694,47.521,56.478,49.734,53.748,49.734L53.748,49.734z M53.748,41.849c-1.624,0-2.94,1.316-2.94,2.941
		c0,1.623,1.316,2.941,2.94,2.941c1.623,0,2.94-1.318,2.94-2.941C56.673,43.173,55.365,41.866,53.748,41.849z"/>
	<path d="M59.303,10.091c-2.731,0-4.946-2.214-4.946-4.944c0-2.732,2.215-4.946,4.946-4.946c2.73,0,4.945,2.214,4.945,4.946
		C64.248,7.877,62.033,10.091,59.303,10.091L59.303,10.091z M59.303,2.205c-1.624,0-2.941,1.317-2.941,2.942
		c0,1.624,1.317,2.941,2.941,2.941c1.623,0,2.941-1.318,2.941-2.941C62.226,3.529,60.922,2.222,59.303,2.205z"/>
	<path d="M14.023,61.564H6.137c-1.392,0-2.521-1.129-2.521-2.52v-5.852c0-0.555,0.449-1.001,1.002-1.001l0,0h10.925
		c0.555,0,1.002,0.446,1.002,1.001l0,0v5.852C16.545,60.436,15.416,61.564,14.023,61.564z M5.588,54.195v4.881
		c0,0.302,0.245,0.549,0.549,0.549l0,0h7.886c0.304,0,0.55-0.247,0.55-0.549l0,0v-4.881H5.588z"/>
	<path d="M58.143,61.564h-7.887c-1.391,0-2.519-1.129-2.519-2.52v-5.852c0-0.555,0.447-1.001,0.999-1.001l0,0h10.959
		c0.554,0,1.001,0.446,1.001,1.001v5.852c0.002,1.391-1.129,2.52-2.52,2.52C58.165,61.564,58.155,61.564,58.143,61.564z
		 M49.708,54.195v4.881c0,0.302,0.247,0.549,0.548,0.549l0,0h7.921c0.302,0,0.548-0.247,0.548-0.549l0,0v-4.881H49.708z"/>
	<path d="M36.163,28.824h-8.468c-1.634,0-2.958-1.324-2.958-2.958c0-1.633,1.323-2.957,2.958-2.957h8.468
		c1.635,0,2.96,1.324,2.96,2.957C39.123,27.5,37.798,28.824,36.163,28.824z M27.695,24.751c-0.535,0-0.969,0.435-0.969,0.97
		s0.435,0.968,0.969,0.969h8.468c0.537,0,0.972-0.434,0.972-0.97c0-0.535-0.435-0.969-0.972-0.969H27.695z"/>
	<rect x="30.929" y="20" width="1.971" height="4.59"/>
	<path d="M63.315,32.313h-6.464c-0.545-0.098-0.905-0.621-0.807-1.164c0.074-0.411,0.396-0.732,0.807-0.807h6.464
		c0.545-0.1,1.065,0.261,1.165,0.807c0.099,0.543-0.264,1.065-0.809,1.164C63.555,32.336,63.434,32.336,63.315,32.313z"/>
	<g>
		<g>
			<path d="M7.772,28.618l0.679-1.257c-0.424-0.08-0.837-0.191-1.232-0.343C7.484,27.509,7.67,28.048,7.772,28.618z"/>
			<g>
				<g>
					<path d="M58.784,37.956c-0.379-0.175-0.774-0.314-1.188-0.41C57.979,37.714,58.373,37.857,58.784,37.956z"/>
				</g>
			</g>
			<path d="M16.979,19.912c0.002,0.04,0.006,0.081,0.007,0.122c0.007,0.151-0.001,0.302-0.005,0.452
				c0.263-0.058,0.531-0.099,0.802-0.124C17.498,20.24,17.224,20.095,16.979,19.912z"/>
		</g>
		<path d="M68.987,29.464c-0.41-2.011-1.511-3.827-3.104-5.116c-1.104-0.89-2.401-1.5-3.772-1.785
			c-0.205-0.881-0.608-1.713-1.188-2.438c-0.827-1.028-1.938-1.75-3.195-2.083c0.6-4.806-2.807-9.214-7.615-9.838
			c-0.379-0.049-0.765-0.075-1.146-0.075c-1.966,0-3.899,0.673-5.451,1.895c-0.886,0.698-1.628,1.562-2.185,2.531
			c-0.327-0.103-0.663-0.178-1.009-0.223c-0.244-0.032-0.493-0.049-0.742-0.049c-2.859,0-5.298,2.144-5.668,4.986
			c-0.045,0.344-0.053,0.684-0.037,1.018h-8.98c0.137-0.53,0.205-1.087,0.183-1.662c-0.053-1.507-0.682-2.915-1.769-3.961
			c-1.083-1.043-2.508-1.618-4.01-1.618c-0.069,0-0.141,0.001-0.21,0.003c-1.553,0.056-2.976,0.732-3.994,1.807
			c-0.372-0.266-0.762-0.504-1.167-0.71c-1.273-0.648-2.701-0.991-4.134-0.991c-0.109,0-0.22,0.002-0.33,0.007
			c-2.438,0.086-4.697,1.117-6.36,2.903c-1.662,1.786-2.53,4.112-2.443,6.551c0.023,0.618,0.106,1.228,0.25,1.822
			c-3.371,0.747-5.842,3.82-5.716,7.391c0.068,1.904,0.861,3.678,2.232,4.999c1.369,1.316,3.166,2.042,5.063,2.042
			c0.087,0,0.177-0.002,0.264-0.006c0.132-0.004,0.262-0.021,0.392-0.031c-2.097,1.445-3.472,3.861-3.472,6.601v2.746
			c0,0.021,0,0.043,0,0.065c0.035,4.426,3.653,7.986,8.081,7.951H56.3c4.429,0,8.019-3.589,8.019-8.017v-2.746
			c0-0.021-0.001-0.043-0.001-0.064c-0.011-1.389-0.377-2.692-1.006-3.826c1.785-0.639,3.319-1.823,4.385-3.434
			C69.001,34.139,69.459,31.78,68.987,29.464z M23.905,20.323h10.456h2.227h5.989h0.407h2.52c2.28,0.014,4.378,1.228,5.53,3.189
			c0.011,0.015,0.022,0.028,0.029,0.044l2.814,5.174l3.651,6.72h-0.575c-0.236-0.021-0.475-0.035-0.717-0.033H7.754
			c-0.022-0.001-0.043-0.001-0.065-0.001c-0.192,0-0.379,0.02-0.568,0.034H6.818c0.363-0.268,0.706-0.568,1.02-0.906
			c1.303-1.399,1.995-3.212,1.956-5.119c0.106,0,0.216-0.002,0.322-0.006c2.438-0.086,4.697-1.117,6.36-2.903
			c1.053-1.13,1.788-2.478,2.161-3.933c0.217,0.024,0.436,0.037,0.657,0.037c0.068,0,0.14-0.001,0.209-0.004
			C21.306,22.55,22.89,21.661,23.905,20.323z M2.685,34.934c-0.065,0.002-0.13,0.002-0.195,0.002c-2.878,0-5.26-2.279-5.362-5.177
			c-0.106-2.963,2.21-5.451,5.175-5.557c0.064-0.001,0.128-0.002,0.192-0.002c0.472,0,0.929,0.061,1.367,0.176
			c-0.754-1.092-1.217-2.404-1.269-3.828c-0.14-3.976,2.966-7.313,6.94-7.455c0.088-0.003,0.175-0.005,0.261-0.005
			c2.337,0,4.429,1.124,5.748,2.871c0.383-1.654,1.837-2.914,3.615-2.979c0.048-0.001,0.095-0.002,0.142-0.002
			c2.064,0,3.773,1.636,3.847,3.717c0.02,0.564-0.089,1.101-0.291,1.592c-0.325,0.797-0.917,1.453-1.661,1.878
			c-0.524,0.299-1.116,0.494-1.761,0.518c-0.047,0.002-0.093,0.002-0.14,0.002c-0.864,0-1.667-0.287-2.314-0.773
			c0.002,0.04,0.006,0.081,0.007,0.122c0.135,3.769-2.653,6.959-6.331,7.401v0c-0.201,0.024-0.402,0.045-0.608,0.052
			c-0.235,0.009-0.467-0.001-0.698-0.016c-0.047-0.003-0.094-0.003-0.14-0.006c-0.256-0.022-0.51-0.056-0.759-0.103l-0.003,0.004
			c-0.423-0.079-0.835-0.195-1.229-0.347c0.265,0.491,0.451,1.03,0.553,1.6l0,0c0.044,0.248,0.077,0.5,0.086,0.759
			c0.009,0.256-0.005,0.507-0.031,0.754c-0.006,0.055-0.012,0.109-0.019,0.163c-0.034,0.247-0.08,0.49-0.146,0.725
			c-0.001,0.004-0.003,0.009-0.005,0.013c-0.069,0.244-0.158,0.479-0.26,0.709c-0.009,0.02-0.018,0.04-0.026,0.06
			c-0.556,1.202-1.548,2.169-2.78,2.694l-0.007,0.012C3.998,34.757,3.359,34.909,2.685,34.934z M62.279,46.179
			c0,3.338-2.705,6.045-6.042,6.045H7.754c-3.339,0-6.044-2.707-6.044-6.045v-2.746c0.016-3.113,2.385-5.667,5.415-5.979h46.918
			h3.031c0.174,0.022,0.348,0.053,0.521,0.093c0.414,0.096,0.81,0.235,1.188,0.41c0.989,0.461,1.832,1.176,2.444,2.07
			c0.663,0.969,1.051,2.142,1.051,3.406V46.179z M62.091,37.9c-0.565-0.592-1.22-1.096-1.942-1.492
			c-0.001-0.15-0.027-0.3-0.098-0.442l-7.24-13.348c-1.458-2.674-4.261-4.336-7.307-4.331h-9.697
			c-0.02-0.252-0.013-0.509,0.021-0.768c0.245-1.911,1.877-3.302,3.752-3.302c0.161,0,0.327,0.01,0.494,0.032
			c0.869,0.113,1.633,0.514,2.207,1.094c0.735-3.095,3.518-5.28,6.686-5.28c0.297,0,0.597,0.018,0.898,0.058
			c3.769,0.491,6.431,3.945,5.941,7.717c-0.095,0.726-0.299,1.41-0.596,2.039c0.305-0.069,0.62-0.106,0.941-0.106
			c0.177,0,0.361,0.012,0.54,0.035c2.23,0.29,3.82,2.288,3.625,4.508c0.004,0,0.007,0,0.011,0c3.217,0,6.101,2.261,6.768,5.537
			C67.826,33.455,65.605,36.971,62.091,37.9z"/>
	</g>
	<path d="M10.877,49.734c-2.732,0-4.945-2.214-4.945-4.944c0-2.733,2.213-4.946,4.945-4.946c2.73,0,4.946,2.213,4.946,4.946
		C15.824,47.521,13.608,49.734,10.877,49.734L10.877,49.734z M10.877,41.849c-1.623,0-2.94,1.316-2.94,2.941
		c0,1.623,1.317,2.941,2.94,2.941c1.624,0,2.941-1.318,2.941-2.941C13.802,43.173,12.496,41.866,10.877,41.849z"/>
</g>
</svg>
