<svg id="Layer_1" data-name="Layer 1" xmlns="http://www.w3.org/2000/svg" viewBox="0 0 22 13.51"><defs><style>.cls-1{fill:#494949;}</style></defs><title>Artboard 30</title><path class="cls-1" d="M19.72,13.51H.31a.31.31,0,0,1,0-.62H19.72a.31.31,0,0,1,0,.62Z"/><path class="cls-1" d="M5.6,13.51H.41a.31.31,0,0,1-.31-.27A14.95,14.95,0,0,1,1.21,5.58a.31.31,0,0,1,.44-.14,4.59,4.59,0,0,0,2.24.67.31.31,0,0,1,.26.17A15.94,15.94,0,0,1,5.24,9,15.92,15.92,0,0,1,5.71,11a.31.31,0,0,1-.61.1,15.31,15.31,0,0,0-.45-2,15.33,15.33,0,0,0-1-2.43A5.22,5.22,0,0,1,2.51,6.5a5.24,5.24,0,0,1-.87-.35,14.33,14.33,0,0,0-1,6.76H5.6a.31.31,0,0,1,0,.62Z"/><path class="cls-1" d="M7.12,11.54H4.79A1.57,1.57,0,0,1,3.38,10V8.21a.31.31,0,0,1,.62,0V10c0,.44.37,1,.8,1H7.12a.31.31,0,0,1,0,.62Z"/><path class="cls-1" d="M7.12,13.51H4.07a2.66,2.66,0,0,1-2.66-2.66V8.68a.31.31,0,0,1,.62,0v2.17a2,2,0,0,0,2,2H7.12a.31.31,0,0,1,0,.62Z"/><path class="cls-1" d="M7.34,13.51H6.5a.31.31,0,0,1,0-.62H7V11.54H6.5a.31.31,0,0,1,0-.62h.84a.31.31,0,0,1,.31.31v2A.31.31,0,0,1,7.34,13.51Z"/><path class="cls-1" d="M21.59,13.51H16.4a.31.31,0,0,1,0-.62h4.92a14.33,14.33,0,0,0-1-6.76,5.21,5.21,0,0,1-2,.57,15.23,15.23,0,0,0-1.42,4.43.31.31,0,0,1-.61-.1,15.84,15.84,0,0,1,1.56-4.77.31.31,0,0,1,.26-.17,4.6,4.6,0,0,0,2.24-.67.31.31,0,0,1,.44.14,15,15,0,0,1,1.11,7.66A.31.31,0,0,1,21.59,13.51Z"/><path class="cls-1" d="M17.21,11.54H15.07a.31.31,0,1,1,0-.62h2.14c.43,0,.8-.53.8-1V8.21a.31.31,0,0,1,.62,0V10A1.57,1.57,0,0,1,17.21,11.54Z"/><path class="cls-1" d="M17.93,13.51H14.88a.31.31,0,1,1,0-.62h3.06a2,2,0,0,0,2-2V8.68a.31.31,0,0,1,.62,0v2.17A2.66,2.66,0,0,1,17.93,13.51Z"/><path class="cls-1" d="M15.5,13.51h-.84a.31.31,0,0,1-.31-.31v-2a.31.31,0,0,1,.31-.31h.84a.31.31,0,0,1,0,.62H15V12.9h.54a.31.31,0,0,1,0,.62Z"/><path class="cls-1" d="M14.66,13.51H13.43a.88.88,0,0,1-.52-.17l-.65-.47a.84.84,0,0,1-.17-1.19l.38-.5a.83.83,0,0,1,.8-.32l1.44.24a.31.31,0,0,1-.1.61l-1.44-.24a.22.22,0,0,0-.21.08l-.38.5a.22.22,0,0,0,0,.32l.65.47a.27.27,0,0,0,.16.05h1.23a.31.31,0,1,1,0,.62Z"/><path class="cls-1" d="M8.56,13.51H7.33a.31.31,0,0,1,0-.62H8.56a.27.27,0,0,0,.16-.05l.65-.47a.22.22,0,0,0,0-.31L9,11.56a.22.22,0,0,0-.21-.08l-1.44.24a.31.31,0,0,1-.1-.61l1.44-.24a.83.83,0,0,1,.8.32l.38.5a.84.84,0,0,1-.17,1.18l-.66.47A.88.88,0,0,1,8.56,13.51Z"/><path class="cls-1" d="M7.91,11.55a.31.31,0,0,1-.3-.27,6.72,6.72,0,0,1,.24-3.56A3,3,0,0,1,9,6.28a2.7,2.7,0,0,1,1-.36.31.31,0,0,1,.36.35.67.67,0,0,0,0,.1c0,.38.61.81,1,1,.33-.19.91-.62.91-1a.67.67,0,0,0,0-.1.31.31,0,0,1,.36-.35,2.7,2.7,0,0,1,1,.36,3,3,0,0,1,1.17,1.43A9.86,9.86,0,0,1,15,11.15a.31.31,0,1,1-.61-.06A9.6,9.6,0,0,0,14.16,8a2.45,2.45,0,0,0-.93-1.16,2,2,0,0,0-.4-.19c-.19.79-1.23,1.33-1.36,1.39a.31.31,0,0,1-.26,0c-.14-.06-1.27-.6-1.47-1.4a2,2,0,0,0-.4.19A2.45,2.45,0,0,0,8.4,8a6.19,6.19,0,0,0-.19,3.23.31.31,0,0,1-.27.34Z"/><path class="cls-1" d="M9.19,11.55a.31.31,0,0,1-.31-.31V8.74a.31.31,0,0,1,.62,0v2.5A.31.31,0,0,1,9.19,11.55Z"/><path class="cls-1" d="M13.37,11.3a.31.31,0,0,1-.31-.31V8.74a.31.31,0,0,1,.62,0V11A.31.31,0,0,1,13.37,11.3Z"/><path class="cls-1" d="M3.6,5.78A2.73,2.73,0,0,1,1.08,2.89,2.73,2.73,0,0,1,3.6,0,2.73,2.73,0,0,1,6.12,2.89,2.73,2.73,0,0,1,3.6,5.78ZM3.6.62a2.12,2.12,0,0,0-1.9,2.28A2.12,2.12,0,0,0,3.6,5.17,2.12,2.12,0,0,0,5.5,2.89,2.12,2.12,0,0,0,3.6.62Z"/><path class="cls-1" d="M18.41,5.78a2.73,2.73,0,0,1-2.52-2.89A2.73,2.73,0,0,1,18.41,0a2.73,2.73,0,0,1,2.52,2.89A2.73,2.73,0,0,1,18.41,5.78Zm0-5.17a2.12,2.12,0,0,0-1.9,2.28,2.12,2.12,0,0,0,1.9,2.28,2.12,2.12,0,0,0,1.9-2.28A2.12,2.12,0,0,0,18.41.62Z"/><path class="cls-1" d="M11.36,5.78A2.73,2.73,0,0,1,8.84,2.89,2.73,2.73,0,0,1,11.36,0a2.73,2.73,0,0,1,2.52,2.89A2.73,2.73,0,0,1,11.36,5.78Zm0-5.17a2.12,2.12,0,0,0-1.9,2.28,2.12,2.12,0,0,0,1.9,2.28,2.12,2.12,0,0,0,1.9-2.28A2.12,2.12,0,0,0,11.36.62Z"/></svg>