<svg id="Layer_1" data-name="Layer 1" xmlns="http://www.w3.org/2000/svg" viewBox="0 0 20 13.63"><defs><style>.cls-1{fill:#494949;}</style></defs><title>Artboard 21</title><path class="cls-1" d="M2.28,5.88H1a1,1,0,0,1-1-1V4.49H.59v.44A.36.36,0,0,0,1,5.29H2.28a.36.36,0,0,0,.36-.36V4.49h.59v.44A1,1,0,0,1,2.28,5.88Z"/><path class="cls-1" d="M1.62,13.38a1.11,1.11,0,0,1-1.11-1.2L.86,7.83c0-.18,0-.37,0-.55V5.59h.59v1.7c0,.2,0,.4,0,.6L1.1,12.23a.51.51,0,0,0,.14.39.53.53,0,0,0,.76,0,.51.51,0,0,0,.14-.39L1.79,7.88c0-.2,0-.4,0-.59V5.59h.59v1.7c0,.18,0,.37,0,.55l.35,4.35a1.11,1.11,0,0,1-1.11,1.2Z"/><path class="cls-1" d="M2.28,5.88H1a1,1,0,0,1-1-1V.3A.3.3,0,0,1,.3,0h0a.3.3,0,0,1,.3.3V4.93A.36.36,0,0,0,1,5.29H2.28a.36.36,0,0,0,.36-.36V.3a.3.3,0,0,1,.59,0V4.93A1,1,0,0,1,2.28,5.88Z"/><path class="cls-1" d="M1.62,5a.3.3,0,0,1-.3-.3V.3a.3.3,0,1,1,.59,0V4.71A.3.3,0,0,1,1.62,5Z"/><path class="cls-1" d="M18.91,13.38h0a1.07,1.07,0,0,1-1.05-1.28l.64-3.21a2.54,2.54,0,0,0,0-.5V8.27a.83.83,0,0,0-.46-.74l-.12-.06a1.34,1.34,0,0,1-.75-1.21V4.88A6.14,6.14,0,0,1,19.52.07.3.3,0,0,1,20,.3v12A1.09,1.09,0,0,1,18.91,13.38ZM19.41,1A5.55,5.55,0,0,0,17.8,4.88V6.26a.75.75,0,0,0,.42.68l.12.06a1.42,1.42,0,0,1,.79,1.28V8.4a3.13,3.13,0,0,1-.06.61l-.64,3.21a.47.47,0,0,0,.1.39.48.48,0,0,0,.37.18h0a.5.5,0,0,0,.5-.5Z"/><path class="cls-1" d="M10.22,13.63a6.41,6.41,0,1,1,6.41-6.41A6.42,6.42,0,0,1,10.22,13.63Zm0-12.23A5.82,5.82,0,1,0,16,7.21,5.83,5.83,0,0,0,10.22,1.39Z"/><path class="cls-1" d="M10.22,11.73a4.52,4.52,0,1,1,4.52-4.52A4.52,4.52,0,0,1,10.22,11.73Zm0-8.44a3.92,3.92,0,1,0,3.92,3.92A3.93,3.93,0,0,0,10.22,3.29Z"/></svg>