<svg id="Layer_1" data-name="Layer 1" xmlns="http://www.w3.org/2000/svg" viewBox="0 0 18 20.66"><defs><style>.cls-1{fill:#494949;}</style></defs><title>Artboard 23</title><path class="cls-1" d="M6,17.65h5a.29.29,0,0,0,0-.57H6.06c-.44-.29-2.14-1.68-3.23-2.6A20.79,20.79,0,0,1,.65,11.74a1.49,1.49,0,0,1,.73-.14,1.66,1.66,0,0,1,1.35.88.29.29,0,0,0,.09.09L4.89,13.9a.29.29,0,0,0,.42-.14A.72.72,0,0,1,6,13.29H8a2.07,2.07,0,0,0,.92-.35,2.07,2.07,0,0,1,.8-.32h2a3.07,3.07,0,0,1,1.81.93.29.29,0,1,0,.39-.42A3.61,3.61,0,0,0,11.68,12h-2a2.36,2.36,0,0,0-1.08.39,1.91,1.91,0,0,1-.64.28H6a1.29,1.29,0,0,0-1,.54L3.18,12.12A2.24,2.24,0,0,0,1.38,11a1.68,1.68,0,0,0-1.33.46.29.29,0,0,0,0,.28,18.54,18.54,0,0,0,2.4,3.1l0,0c.3.25,2.92,2.45,3.4,2.71A.29.29,0,0,0,6,17.65Z"/><path class="cls-1" d="M11.42,18a.29.29,0,0,0,.18-.51l-.45-.35a.29.29,0,0,0-.18-.06H6.06c-.44-.29-2.14-1.68-3.23-2.6A20.79,20.79,0,0,1,.65,11.74a1.5,1.5,0,0,1,.73-.14,1.66,1.66,0,0,1,1.35.88.29.29,0,0,0,.09.09l2.09,1.34a.29.29,0,0,0,.31-.48l-2-1.31A2.24,2.24,0,0,0,1.38,11a1.68,1.68,0,0,0-1.33.46.29.29,0,0,0,0,.28,18.54,18.54,0,0,0,2.4,3.1l0,0c.3.25,2.92,2.45,3.4,2.71a.29.29,0,0,0,.14,0h4.89l.37.29A.29.29,0,0,0,11.42,18Z"/><path class="cls-1" d="M6,15.3H9.34a.29.29,0,1,0,0-.57H6a.72.72,0,1,1,0-1.44H8a2.07,2.07,0,0,0,.92-.35,2.07,2.07,0,0,1,.8-.32h2a3.06,3.06,0,0,1,1.81.92l1.12,1.21a.29.29,0,1,0,.42-.39L13.9,13.14h0A3.61,3.61,0,0,0,11.68,12h-2a2.36,2.36,0,0,0-1.08.39,1.91,1.91,0,0,1-.64.28H6A1.29,1.29,0,0,0,6,15.3Z"/><path class="cls-1" d="M12.82,20.58l-2-2a.29.29,0,0,1,0-.41l4.69-4.69a.3.3,0,0,1,.41,0l2,2a.29.29,0,0,1,0,.41l-4.69,4.69a.29.29,0,0,1-.41,0Zm2.88-6.5-4.29,4.29L13,20l4.29-4.29Z"/><path class="cls-1" d="M11.85,11.07,8.39,8.83,4.94,11.07a.29.29,0,0,1-.43-.34L5.82,7,2.66,4.47A.29.29,0,0,1,2.84,4h4L8.12.19a.29.29,0,0,1,.54,0L10,4h4a.29.29,0,0,1,.18.51L11,7l1.31,3.76a.29.29,0,0,1-.43.34ZM8.55,8.25l2.91,1.88L10.35,7a.29.29,0,0,1,.09-.32l2.67-2.11H9.77a.29.29,0,0,1-.27-.19L8.39,1.16,7.29,4.34A.29.29,0,0,1,7,4.53H3.67L6.34,6.64A.29.29,0,0,1,6.43,7l-1.1,3.17L8.24,8.25a.29.29,0,0,1,.31,0Z"/><path class="cls-1" d="M11.16,2.57a.29.29,0,0,0,.2-.08L12.92.92a.29.29,0,0,0-.41-.41L11,2.08a.29.29,0,0,0,.2.49Z"/><path class="cls-1" d="M5.91,2.57a.29.29,0,0,0,.2-.49L4.55.51a.29.29,0,1,0-.41.41L5.7,2.48A.29.29,0,0,0,5.91,2.57Z"/><path class="cls-1" d="M14.13,8.4a.29.29,0,0,0,.12-.55L12.49,7a.29.29,0,1,0-.25.52L14,8.38A.29.29,0,0,0,14.13,8.4Z"/><path class="cls-1" d="M2.38,8.4a.29.29,0,0,0,.12,0l1.66-.8a.29.29,0,0,0-.25-.52l-1.66.8a.29.29,0,0,0,.12.55Z"/></svg>