<svg id="Layer_1" data-name="Layer 1" xmlns="http://www.w3.org/2000/svg" viewBox="0 0 17 19.25"><defs><style>.cls-1{fill:#494949;}</style></defs><title>Artboard 17</title><path class="cls-1" d="M11.5,12.87H7.6a5.51,5.51,0,0,1-5.5-5.5V6.69a.28.28,0,0,1,.28-.28H16.72a.28.28,0,0,1,.28.28v.68A5.51,5.51,0,0,1,11.5,12.87ZM2.67,7v.39A4.94,4.94,0,0,0,7.6,12.3H11.5a4.94,4.94,0,0,0,4.94-4.94V7Z"/><path class="cls-1" d="M16.72,7H8.89a.28.28,0,0,1-.28-.28V.28A.28.28,0,0,1,8.89,0H11a6,6,0,0,1,6,6v.73A.28.28,0,0,1,16.72,7ZM9.17,6.4h7.26V6A5.39,5.39,0,0,0,11,.57H9.17Z"/><path class="cls-1" d="M2.38,7a.28.28,0,0,1-.28-.28V4.78a1,1,0,0,0-1-1,.28.28,0,1,1,0-.57A1.58,1.58,0,0,1,2.67,4.78V6.69A.28.28,0,0,1,2.38,7Z"/><path class="cls-1" d="M8.89,7a.28.28,0,0,1-.25-.42L12.05.27a.28.28,0,0,1,.5.27L9.77,5.67,15,1.74a.28.28,0,0,1,.34.45L9.06,6.91A.28.28,0,0,1,8.89,7Z"/><path class="cls-1" d="M8.89,7a.28.28,0,0,1-.08-.56l7.63-2.33a.28.28,0,1,1,.17.54L9,7Z"/><path class="cls-1" d="M7.47,16.83a.28.28,0,0,1-.2-.48l3.89-4a.28.28,0,0,1,.41.4l-3.89,4A.28.28,0,0,1,7.47,16.83Z"/><path class="cls-1" d="M11.81,16.83a.28.28,0,0,1-.21-.09l-3.71-4a.28.28,0,0,1,.42-.39l3.71,4a.28.28,0,0,1-.21.48Z"/><path class="cls-1" d="M6.65,19.25a1.58,1.58,0,1,1,1.58-1.58A1.58,1.58,0,0,1,6.65,19.25Zm0-2.59a1,1,0,1,0,1,1A1,1,0,0,0,6.65,16.66Z"/><path class="cls-1" d="M12.45,19.25A1.58,1.58,0,1,1,14,17.67,1.58,1.58,0,0,1,12.45,19.25Zm0-2.59a1,1,0,1,0,1,1A1,1,0,0,0,12.45,16.66Z"/><path class="cls-1" d="M2.15,4.46H.63a.63.63,0,0,1,0-1.25H1.1a.28.28,0,0,1,0,.57H.63a.06.06,0,1,0,0,.12H2.15a.28.28,0,0,1,0,.57Z"/></svg>