<svg id="Layer_1" data-name="Layer 1" xmlns="http://www.w3.org/2000/svg" viewBox="0 0 19 19.99"><defs><style>.cls-1{fill:#494949;}</style></defs><title>Artboard 33</title><path class="cls-1" d="M9.47,11.8a1.89,1.89,0,1,1,1.89-1.89A1.89,1.89,0,0,1,9.47,11.8Zm0-3.22A1.34,1.34,0,1,0,10.8,9.91,1.34,1.34,0,0,0,9.47,8.58Z"/><path class="cls-1" d="M11.08,20H7.89a.28.28,0,0,1-.28-.28V16.13a1.74,1.74,0,0,1,1.74-1.74h.26a1.74,1.74,0,0,1,1.74,1.74v3.58A.28.28,0,0,1,11.08,20Zm-2.91-.55H10.8V16.13a1.19,1.19,0,0,0-1.19-1.19H9.36a1.19,1.19,0,0,0-1.19,1.19Z"/><path class="cls-1" d="M13.06,20a.28.28,0,0,1-.28-.28v-14L9.48,3.81,6.18,5.73v14a.28.28,0,0,1-.55,0V5.57a.28.28,0,0,1,.14-.24L9.35,3.25a.28.28,0,0,1,.28,0L13.2,5.33a.28.28,0,0,1,.14.24V19.71A.28.28,0,0,1,13.06,20Z"/><path class="cls-1" d="M13.06,6.46H5.9a.28.28,0,0,1,0-.55h7.16a.28.28,0,1,1,0,.55Z"/><path class="cls-1" d="M18.72,20H.28a.28.28,0,1,1,0-.55H18.72a.28.28,0,0,1,0,.55Z"/><path class="cls-1" d="M9.48,3.76a.28.28,0,0,1-.28-.28V.28A.28.28,0,0,1,9.48,0h2.28A.28.28,0,0,1,12,.28V1.88a.28.28,0,0,1-.28.28h-2V3.49A.28.28,0,0,1,9.48,3.76Zm.28-2.16h1.73V.55H9.76Z"/><path class="cls-1" d="M5.9,20H.28A.28.28,0,0,1,0,19.71V13.13a.28.28,0,0,1,.28-.28H5.9a.28.28,0,0,1,.28.28v6.58A.28.28,0,0,1,5.9,20ZM.55,19.43H5.63v-6H.55Z"/><path class="cls-1" d="M18.72,20H13.09a.28.28,0,0,1-.28-.28V13.13a.28.28,0,0,1,.28-.28h5.63a.28.28,0,0,1,.28.28v6.58A.28.28,0,0,1,18.72,20Zm-5.35-.55h5.08v-6H13.36Z"/><path class="cls-1" d="M5.9,13.4a.28.28,0,0,1-.28-.28V10.84L3.22,8.67.55,10.76v2.37a.28.28,0,0,1-.55,0v-2.5a.28.28,0,0,1,.11-.22l3-2.32a.28.28,0,0,1,.35,0l2.67,2.41a.28.28,0,0,1,.09.2v2.41A.28.28,0,0,1,5.9,13.4Z"/><path class="cls-1" d="M3.85,13.4H2.33a.28.28,0,0,1-.28-.28V11.81a1,1,0,0,1,1-1h.12a1,1,0,0,1,1,1v1.32A.28.28,0,0,1,3.85,13.4ZM2.6,12.85h1v-1a.43.43,0,0,0-.43-.43H3a.43.43,0,0,0-.43.43Z"/><path class="cls-1" d="M18.72,13.4a.28.28,0,0,1-.28-.28V10.84L16,8.67l-2.67,2.09v2.37a.28.28,0,0,1-.55,0v-2.5a.28.28,0,0,1,.11-.22l3-2.32a.28.28,0,0,1,.35,0l2.67,2.41a.28.28,0,0,1,.09.2v2.41A.28.28,0,0,1,18.72,13.4Z"/><path class="cls-1" d="M16.67,13.4H15.15a.28.28,0,0,1-.28-.28V11.81a1,1,0,0,1,1-1H16a1,1,0,0,1,1,1v1.32A.28.28,0,0,1,16.67,13.4Zm-1.25-.55h1v-1a.43.43,0,0,0-.43-.43h-.12a.43.43,0,0,0-.43.43Z"/><path class="cls-1" d="M8.8,10.73a.28.28,0,0,1-.14-.51l.56-.33V9.23a.28.28,0,0,1,.55,0V10a.28.28,0,0,1-.13.24l-.69.41A.27.27,0,0,1,8.8,10.73Z"/><path class="cls-1" d="M4.41,17.63H1.72a.28.28,0,0,1-.28-.28V14.66a.28.28,0,0,1,.28-.28H4.41a.28.28,0,0,1,.28.28v2.69A.28.28,0,0,1,4.41,17.63ZM2,17.08H4.13V14.94H2Z"/><path class="cls-1" d="M3.06,17.46a.28.28,0,0,1-.28-.28V14.66a.28.28,0,1,1,.55,0v2.52A.28.28,0,0,1,3.06,17.46Z"/><path class="cls-1" d="M17.26,17.63H14.57a.28.28,0,0,1-.28-.28V14.66a.28.28,0,0,1,.28-.28h2.69a.28.28,0,0,1,.28.28v2.69A.28.28,0,0,1,17.26,17.63Zm-2.41-.55H17V14.94H14.85Z"/><path class="cls-1" d="M15.92,17.46a.28.28,0,0,1-.28-.28V14.66a.28.28,0,0,1,.55,0v2.52A.28.28,0,0,1,15.92,17.46Z"/></svg>