<svg id="Layer_1" data-name="Layer 1" xmlns="http://www.w3.org/2000/svg" viewBox="0 0 16 17.21"><defs><style>.cls-1{fill:#494949;}</style></defs><title>Artboard 26</title><path class="cls-1" d="M15.72,17.21H14.05a.28.28,0,0,1-.23-.12l-.61-.88H2.78l-.59.87a.28.28,0,0,1-.23.12H.28A.28.28,0,0,1,0,16.92V1.62A1.63,1.63,0,0,1,1.62,0H14.38A1.63,1.63,0,0,1,16,1.62v15.3A.28.28,0,0,1,15.72,17.21Zm-1.52-.56h1.24v-15A1.06,1.06,0,0,0,14.38.56H1.62A1.06,1.06,0,0,0,.56,1.62v15H1.81l.59-.87a.28.28,0,0,1,.23-.12H13.36a.28.28,0,0,1,.23.12Z"/><path class="cls-1" d="M14.38,7.71H1.62a.28.28,0,0,1-.28-.28V1.79a.28.28,0,0,1,.28-.28H14.38a.28.28,0,0,1,.28.28V7.43A.28.28,0,0,1,14.38,7.71ZM1.91,7.15H14.09V2.08H1.91Z"/><path class="cls-1" d="M14.38,14.7H1.62a.28.28,0,0,1-.28-.28V8.77a.28.28,0,0,1,.28-.28H14.38a.28.28,0,0,1,.28.28v5.64A.28.28,0,0,1,14.38,14.7ZM1.91,14.13H14.09V9.06H1.91Z"/><path class="cls-1" d="M5,7.71H3a.28.28,0,0,1-.28-.28V3.14A.28.28,0,0,1,3,2.85H5a.28.28,0,0,1,.28.28v4.3A.28.28,0,0,1,5,7.71ZM3.25,7.15H4.7V3.42H3.25Z"/><path class="cls-1" d="M7,7.71H5a.28.28,0,0,1-.28-.28V3.14A.28.28,0,0,1,5,2.85H7a.28.28,0,0,1,.28.28v4.3A.28.28,0,0,1,7,7.71ZM5.26,7.15H6.71V3.42H5.26Z"/><path class="cls-1" d="M9,7.71H7a.28.28,0,0,1-.28-.28V3.14A.28.28,0,0,1,7,2.85H9a.28.28,0,0,1,.28.28v4.3A.28.28,0,0,1,9,7.71ZM7.28,7.15H8.72V3.42H7.28Z"/><path class="cls-1" d="M9,14.7H7a.28.28,0,0,1-.28-.28v-4.3A.28.28,0,0,1,7,9.83H9a.28.28,0,0,1,.28.28v4.3A.28.28,0,0,1,9,14.7Zm-1.73-.56H8.72V10.4H7.28Z"/><path class="cls-1" d="M11,14.7H9a.28.28,0,0,1-.28-.28v-4.3A.28.28,0,0,1,9,9.83h2a.28.28,0,0,1,.28.28v4.3A.28.28,0,0,1,11,14.7Zm-1.73-.56h1.45V10.4H9.29Z"/><path class="cls-1" d="M13,14.7H11a.28.28,0,0,1-.28-.28v-4.3A.28.28,0,0,1,11,9.83h2a.28.28,0,0,1,.28.28v4.3A.28.28,0,0,1,13,14.7Zm-1.73-.56h1.45V10.4H11.3Z"/><path class="cls-1" d="M10.35,7.71a.28.28,0,0,1-.27-.21L9,3.59a.28.28,0,0,1,.17-.34l1.8-.67a.28.28,0,0,1,.37.19l1.11,3.91a.28.28,0,0,1-.17.34l-1.8.67Zm-.76-4,1,3.37,1.27-.47-1-3.37Z"/></svg>