<svg id="Layer_1" data-name="Layer 1" xmlns="http://www.w3.org/2000/svg" viewBox="0 0 22 13.87"><defs><style>.cls-1{fill:#494949;}</style></defs><title>Artboard 27</title><path class="cls-1" d="M9.22,13.87a2,2,0,0,1-.92-.23l-.09,0a4.41,4.41,0,0,0-2.07-.52H.78A.78.78,0,0,1,0,12.29V2.06a.78.78,0,0,1,.78-.78h.74a.27.27,0,1,1,0,.54H.78a.24.24,0,0,0-.24.24V12.29a.24.24,0,0,0,.24.24H6.14a5,5,0,0,1,2.33.58l.09,0a1.41,1.41,0,0,0,1.33,0l.26-.14a.27.27,0,0,1,.26.48l-.26.14A2,2,0,0,1,9.22,13.87Z"/><path class="cls-1" d="M9.22,12.56a.27.27,0,0,1-.16-.05,3.58,3.58,0,0,0-2.14-.71H2.06A.78.78,0,0,1,1.28,11V.78A.78.78,0,0,1,2.06,0H7.24A3.05,3.05,0,0,1,9.41.9a.27.27,0,0,1,.08.19v11.2a.27.27,0,0,1-.27.27Zm-3-1.31h.71a4.13,4.13,0,0,1,2,.54V1.21A2.51,2.51,0,0,0,7.24.54H2.06a.24.24,0,0,0-.24.24V11a.24.24,0,0,0,.24.24Z"/><path class="cls-1" d="M7.77,6.93H3.08a.27.27,0,1,1,0-.54H7.77a.27.27,0,1,1,0,.54Z"/><path class="cls-1" d="M7.77,8.47H3.08a.27.27,0,1,1,0-.54H7.77a.27.27,0,0,1,0,.54Z"/><path class="cls-1" d="M7.77,3.33H3.08a.27.27,0,1,1,0-.54H7.77a.27.27,0,1,1,0,.54Z"/><path class="cls-1" d="M7.15,5.4H3.08a.27.27,0,1,1,0-.54H7.15a.27.27,0,0,1,0,.54Z"/><path class="cls-1" d="M9.2,13.87a2,2,0,0,1-.92-.23L8,13.5A.27.27,0,1,1,8.27,13l.26.14a1.41,1.41,0,0,0,1.33,0l.09,0a5,5,0,0,1,2.33-.58h5.36a.24.24,0,0,0,.24-.24V2.06a.24.24,0,0,0-.24-.24H16.9a.27.27,0,1,1,0-.54h.74a.78.78,0,0,1,.78.78V12.29a.78.78,0,0,1-.78.78H12.28a4.41,4.41,0,0,0-2.07.52l-.09,0A2,2,0,0,1,9.2,13.87Z"/><path class="cls-1" d="M9.2,12.56a.27.27,0,0,1-.27-.27V1.09A.27.27,0,0,1,9,.9,3.05,3.05,0,0,1,11.18,0h5.18a.78.78,0,0,1,.78.78V11a.78.78,0,0,1-.78.78H11.5a3.58,3.58,0,0,0-2.14.71A.27.27,0,0,1,9.2,12.56ZM9.47,1.21V11.79a4.13,4.13,0,0,1,2-.54h4.86A.24.24,0,0,0,16.6,11V.78a.24.24,0,0,0-.24-.24H11.18A2.51,2.51,0,0,0,9.47,1.21Z"/><path class="cls-1" d="M15.33,6.93H10.64a.27.27,0,1,1,0-.54h4.69a.27.27,0,1,1,0,.54Z"/><path class="cls-1" d="M15.33,8.47H10.64a.27.27,0,1,1,0-.54h4.69a.27.27,0,1,1,0,.54Z"/><path class="cls-1" d="M15.33,3.33H10.64a.27.27,0,1,1,0-.54h4.69a.27.27,0,1,1,0,.54Z"/><path class="cls-1" d="M15.33,5.4H11.27a.27.27,0,1,1,0-.54h4.06a.27.27,0,1,1,0,.54Z"/><path class="cls-1" d="M20.63,13.72a.27.27,0,0,1-.23-.13l-1.1-1.85a.27.27,0,0,1,0-.14v-10a.27.27,0,1,1,.54,0v9.95l.83,1.4.87-1.46a.27.27,0,0,1,.47.28l-1.1,1.85A.27.27,0,0,1,20.63,13.72Z"/><path class="cls-1" d="M21.26,12.64a.27.27,0,0,1-.23-.41l.43-.72V1.57a.27.27,0,0,1,.54,0v10a.27.27,0,0,1,0,.14l-.46.78A.27.27,0,0,1,21.26,12.64Z"/><path class="cls-1" d="M21.73,1.84h-2.2a.27.27,0,1,1,0-.54h2.2a.27.27,0,1,1,0,.54Z"/><path class="cls-1" d="M21.73,1.84a.27.27,0,0,1-.27-.27V1.12A.36.36,0,0,0,21.1.77h-.95a.36.36,0,0,0-.36.36v.45a.27.27,0,1,1-.54,0V1.12a.9.9,0,0,1,.9-.9h.95a.9.9,0,0,1,.9.9v.45A.27.27,0,0,1,21.73,1.84Z"/><path class="cls-1" d="M20.63,11.83a.27.27,0,0,1-.27-.27v-10a.27.27,0,0,1,.54,0v10A.27.27,0,0,1,20.63,11.83Z"/><path class="cls-1" d="M21.73,11.83H19.79a.27.27,0,0,1,0-.54h1.94a.27.27,0,0,1,0,.54Z"/></svg>