<?xml version="1.0" standalone="no"?>
<!DOCTYPE svg PUBLIC "-//W3C//DTD SVG 20010904//EN"
 "http://www.w3.org/TR/2001/REC-SVG-20010904/DTD/svg10.dtd">
<svg version="1.0" xmlns="http://www.w3.org/2000/svg"
 width="512.000000pt" height="512.000000pt" viewBox="0 0 512.000000 512.000000"
 preserveAspectRatio="xMidYMid meet">

<g transform="translate(0.000000,512.000000) scale(0.100000,-0.100000)"
fill="#000000" stroke="none">
<path d="M1050 4965 c-52 -25 -108 -45 -125 -45 -16 0 -53 -6 -80 -14 -173
-46 -308 -166 -380 -339 l-30 -72 -3 -575 c-3 -405 0 -602 8 -665 42 -314 179
-586 408 -808 44 -43 92 -97 106 -121 47 -80 253 -190 471 -251 79 -22 111
-40 132 -72 16 -24 19 -63 23 -333 5 -293 6 -307 28 -347 18 -35 58 -71 110
-99 1 0 9 -40 18 -88 130 -746 904 -1211 1619 -972 57 19 132 49 167 67 279
139 520 407 620 689 74 208 78 251 78 1030 l0 676 55 11 c94 20 183 70 261
148 113 111 164 233 164 390 0 156 -51 279 -164 391 -81 81 -164 126 -271 149
-88 18 -132 18 -220 0 -98 -21 -185 -67 -260 -136 -123 -115 -177 -238 -177
-399 0 -112 22 -192 79 -289 73 -123 216 -224 355 -253 l58 -12 0 -671 c0
-530 -3 -690 -14 -765 -76 -499 -457 -880 -956 -956 -224 -33 -444 0 -653 101
-318 152 -560 468 -621 811 -12 71 -12 80 3 89 41 26 90 84 100 120 7 25 11
146 11 318 0 298 1 307 53 355 15 14 66 36 126 53 226 66 414 170 457 252 8
15 36 46 62 70 248 224 394 489 448 817 18 109 20 1188 3 1272 -20 97 -75 195
-153 272 -85 85 -171 130 -296 156 -47 10 -116 33 -155 51 -115 55 -223 42
-296 -38 -94 -101 -82 -267 24 -344 84 -61 171 -62 286 -5 39 20 81 36 93 36
39 -1 101 -35 140 -78 67 -74 70 -102 66 -520 -4 -361 -5 -369 -31 -466 -100
-371 -383 -653 -756 -754 -85 -23 -115 -26 -261 -26 -148 0 -176 3 -264 27
-428 115 -734 477 -776 915 -14 144 -13 647 1 712 15 69 62 129 128 163 72 36
104 34 195 -9 95 -45 150 -53 212 -29 200 76 211 348 19 436 -70 32 -136 25
-245 -26z m185 -65 c8 0 30 -14 49 -31 61 -53 61 -128 0 -186 -47 -44 -91 -44
-179 -1 l-65 32 0 63 0 63 53 26 c63 32 97 44 115 38 8 -2 20 -4 27 -4z m1258
-31 l57 -29 0 -66 0 -65 -72 -35 c-78 -37 -116 -39 -165 -7 -79 52 -67 179 20
222 49 25 76 21 160 -20z m-1563 -97 l0 -48 -53 -18 c-101 -34 -176 -107 -223
-216 -18 -42 -19 -79 -22 -540 -4 -520 4 -690 37 -815 53 -199 145 -367 277
-505 l53 -55 -30 -33 c-34 -38 -34 -38 -103 37 -112 119 -206 279 -260 442
-63 186 -66 230 -66 849 0 467 2 565 15 615 40 151 144 263 292 314 82 29 83
28 83 -27z m1850 0 c114 -53 215 -189 240 -321 13 -71 13 -1059 0 -1171 -34
-282 -164 -555 -352 -738 l-55 -53 -25 38 -25 38 59 65 c140 152 232 330 284
550 16 66 18 142 21 657 4 648 5 639 -63 741 -37 56 -130 125 -184 137 -28 6
-30 10 -30 52 l0 45 38 -7 c20 -4 62 -18 92 -33z m1483 -1167 c85 -22 146 -56
206 -116 111 -112 155 -271 116 -422 -21 -81 -50 -132 -107 -194 -139 -146
-339 -180 -524 -88 -223 110 -307 400 -179 618 32 56 118 138 173 166 97 49
213 63 315 36z m-3388 -495 c166 -217 443 -380 719 -425 477 -78 960 157 1193
578 l34 62 -6 -58 c-22 -201 -135 -427 -294 -589 -61 -62 -83 -78 -106 -78
-16 0 -88 -29 -159 -65 -186 -93 -287 -118 -476 -118 -189 0 -291 25 -475 117
-71 35 -149 69 -171 75 -72 19 -214 188 -294 349 -46 93 -85 219 -95 307 l-7
60 48 -80 c26 -44 66 -105 89 -135z m349 -664 c167 -95 341 -139 551 -139 203
0 352 38 532 134 110 59 159 65 192 23 12 -15 21 -38 21 -52 0 -69 -197 -172
-473 -247 -71 -19 -131 -71 -163 -140 -23 -49 -24 -57 -24 -343 l0 -294 -29
-29 c-48 -48 -118 -32 -140 33 -7 19 -11 137 -11 310 0 223 -3 286 -15 314
-33 80 -90 126 -190 155 -171 50 -341 125 -407 180 -32 25 -38 37 -38 68 0 37
16 61 50 74 27 11 64 -1 144 -47z"/>
<path d="M4088 3519 c-7 -4 -28 -9 -45 -12 -18 -3 -39 -11 -46 -19 -8 -7 -32
-24 -54 -38 -22 -13 -53 -46 -69 -72 -16 -26 -33 -48 -37 -48 -5 0 -6 -3 -4
-7 3 -5 0 -19 -6 -33 -5 -14 -12 -32 -14 -40 -9 -30 -3 -165 7 -177 2 -2 3 -6
4 -10 21 -80 136 -195 219 -218 4 -2 8 -3 10 -5 19 -15 185 -15 205 0 1 2 5 3
10 4 66 17 184 124 202 184 10 31 16 52 20 65 14 43 17 90 8 130 -5 27 -11 54
-12 60 -5 23 -41 92 -58 109 -10 10 -18 22 -18 27 0 5 -8 12 -17 15 -10 3 -30
17 -45 31 -16 14 -28 22 -28 18 0 -4 -4 -2 -8 5 -5 7 -22 15 -38 18 -16 3 -38
7 -49 11 -29 9 -123 10 -137 2z m172 -121 c60 -26 94 -60 121 -122 89 -208
-123 -418 -326 -322 -218 103 -179 421 58 465 51 10 88 4 147 -21z"/>
</g>
</svg>
