<?xml version="1.0" standalone="no"?>
<!DOCTYPE svg PUBLIC "-//W3C//DTD SVG 20010904//EN"
 "http://www.w3.org/TR/2001/REC-SVG-20010904/DTD/svg10.dtd">
<svg version="1.0" xmlns="http://www.w3.org/2000/svg"
 width="199.000000pt" height="210.000000pt" viewBox="0 0 199.000000 210.000000"
 preserveAspectRatio="xMidYMid meet">

<g transform="translate(0.000000,210.000000) scale(0.100000,-0.100000)"
fill="#000000" stroke="none">
<path d="M395 2066 c-73 -24 -122 -54 -173 -110 -73 -80 -95 -145 -90 -261 5
-110 37 -182 110 -251 74 -69 140 -95 257 -101 l97 -6 28 -48 c37 -67 58 -65
95 9 l21 42 68 0 c175 1 294 69 369 212 25 48 28 62 28 158 0 95 -3 110 -28
160 -39 76 -108 143 -181 177 l-61 28 -250 2 c-183 2 -261 -1 -290 -11z m551
-73 c67 -23 154 -110 177 -177 51 -150 -12 -305 -151 -373 -49 -24 -71 -28
-165 -32 -103 -3 -109 -4 -119 -27 -14 -30 -22 -30 -36 1 -11 24 -15 25 -106
25 -73 0 -109 5 -152 21 -170 64 -247 257 -165 417 26 52 111 127 164 145 65
24 485 23 553 0z"/>
<path d="M340 1710 c0 -63 3 -80 14 -80 11 0 16 14 18 48 l3 47 19 -37 c11
-21 26 -38 33 -38 7 0 21 17 32 38 l20 37 1 -47 c0 -36 4 -48 15 -48 12 0 15
16 15 80 0 73 -2 80 -20 80 -13 0 -27 -14 -40 -40 -11 -22 -22 -40 -25 -40 -3
0 -14 18 -25 40 -13 26 -27 40 -40 40 -18 0 -20 -7 -20 -80z"/>
<path d="M551 1764 c-45 -57 -8 -134 64 -134 74 0 114 89 62 138 -35 33 -99
30 -126 -4z m97 -16 c18 -18 14 -53 -8 -73 -18 -17 -21 -17 -45 -1 -15 10 -25
26 -25 41 0 37 52 59 78 33z"/>
<path d="M705 1770 c3 -11 17 -46 30 -77 30 -75 54 -81 77 -21 9 24 23 60 32
81 16 36 16 37 -4 37 -12 0 -24 -9 -29 -22 -5 -13 -14 -36 -21 -53 l-12 -30
-20 53 c-15 38 -26 52 -40 52 -15 0 -18 -5 -13 -20z"/>
<path d="M870 1710 l0 -80 60 0 c46 0 60 3 60 14 0 10 -14 16 -42 18 -57 4
-60 32 -5 36 53 5 51 32 -3 32 -29 0 -40 4 -40 15 0 11 12 15 45 15 33 0 45 4
45 15 0 12 -13 15 -60 15 l-60 0 0 -80z"/>
<path d="M1662 2048 c4 -30 43 -33 43 -3 0 13 -8 21 -23 23 -20 3 -23 0 -20
-20z"/>
<path d="M1510 2005 c-11 -13 -11 -19 3 -33 20 -19 41 -5 35 24 -4 24 -22 28
-38 9z"/>
<path d="M1823 2013 c-7 -3 -13 -13 -13 -23 0 -19 17 -30 38 -23 6 3 12 13 12
23 0 19 -17 30 -37 23z"/>
<path d="M1613 1939 c-76 -38 -105 -144 -58 -215 30 -46 74 -66 138 -61 51 3
62 8 94 40 32 31 37 43 41 94 3 49 0 64 -20 92 -27 40 -81 71 -123 71 -16 0
-49 -9 -72 -21z"/>
<path d="M1424 1859 c-3 -6 0 -18 9 -26 18 -18 37 -9 37 18 0 21 -34 27 -46 8z"/>
<path d="M1890 1851 c0 -20 25 -35 41 -25 5 3 9 14 9 25 0 14 -7 19 -25 19
-18 0 -25 -5 -25 -19z"/>
<path d="M1450 1691 c0 -20 25 -35 41 -25 5 3 9 14 9 25 0 14 -7 19 -25 19
-18 0 -25 -5 -25 -19z"/>
<path d="M1864 1699 c-3 -6 0 -18 9 -26 18 -18 37 -9 37 18 0 21 -34 27 -46 8z"/>
<path d="M1580 1585 c0 -18 5 -25 19 -25 24 0 33 13 25 34 -10 27 -44 20 -44
-9z"/>
<path d="M1744 1595 c-4 -9 -2 -21 4 -27 15 -15 44 -1 40 19 -4 23 -36 29 -44
8z"/>
<path d="M756 1214 c-10 -9 -16 -33 -16 -60 l0 -44 -197 0 c-109 0 -203 -4
-209 -8 -6 -4 -79 -110 -163 -235 l-151 -228 0 -197 c0 -141 3 -201 12 -210 8
-8 57 -12 155 -12 143 0 143 0 143 -23 0 -13 12 -48 27 -78 73 -143 273 -156
366 -23 16 22 31 59 34 82 l6 42 298 0 298 0 7 -38 c9 -49 20 -70 58 -110 38
-41 68 -58 122 -66 112 -19 225 62 243 174 l6 35 85 5 85 5 3 494 c2 389 0
496 -10 503 -7 4 -277 8 -600 8 -520 0 -588 -2 -602 -16z m1154 -489 l0 -435
-64 0 c-56 0 -66 3 -71 20 -11 33 -55 80 -98 101 -54 28 -140 28 -194 0 -42
-21 -103 -85 -103 -108 0 -10 -60 -13 -280 -13 l-280 0 0 374 c0 205 -3 401
-6 435 l-7 61 552 0 551 0 0 -435z m-1170 -42 l-1 -358 -20 28 c-36 48 -100
78 -167 78 -91 1 -159 -37 -196 -110 l-17 -31 -124 0 -125 0 0 160 c0 132 3
167 17 193 l17 32 6 -25 6 -25 253 -3 c179 -2 258 1 267 9 11 9 14 49 14 180
0 156 -1 169 -19 179 -27 14 -277 13 -303 -1 -21 -11 -21 -11 1 20 l22 31 185
0 184 0 0 -357z m-140 127 l0 -120 -186 0 c-145 0 -184 3 -178 13 21 34 129
194 142 210 13 14 32 17 119 17 l103 0 0 -120z m6 -459 c110 -50 113 -205 4
-262 -46 -25 -76 -24 -130 4 -106 54 -107 198 0 254 52 28 72 28 126 4z m1034
-3 c58 -30 95 -97 84 -153 -9 -47 -55 -100 -100 -115 -100 -33 -209 62 -189
166 11 63 78 119 145 123 9 1 36 -9 60 -21z"/>
<path d="M1137 737 c-3 -8 1 -23 8 -34 11 -14 18 -16 32 -7 28 17 23 48 -8 52
-16 2 -29 -3 -32 -11z"/>
<path d="M1337 743 c-12 -12 -7 -41 8 -47 25 -9 45 4 45 30 0 18 -5 24 -23 24
-13 0 -27 -3 -30 -7z"/>
<path d="M1530 725 c0 -31 26 -43 47 -22 21 21 9 47 -22 47 -20 0 -25 -5 -25
-25z"/>
<path d="M519 266 c-35 -17 -34 -75 2 -95 24 -13 29 -13 53 2 60 40 10 126
-55 93z"/>
<path d="M1560 273 c-21 -7 -40 -34 -40 -55 0 -24 35 -58 59 -58 49 0 70 76
29 104 -24 17 -25 17 -48 9z"/>
</g>
</svg>
